SplineFontDB: 3.2
FontName: MedieviaSansMono
FullName: Medievia Sans Mono
FamilyName: Medievia Sans Mono
Weight: Book
Copyright: Copyright (c) 2003 by Bitstream, Inc. All Rights Reserved.\nCopyright (c) 2004 by Medievia.com, Inc.\nCopyright (c) 2024 by Stephen Lyons <slysven@virginmedia.com>
UComments: "3.0.0 Represents an attempt by Stephen Lyons to improve/update some glyphs and improve the glyph ordering/encoding so that they may be accessed by the Mudlet MUD client with a codec that accesses some of the Mediavia specific glyphs in the Private Use Area starting at U+-E100. Some replacement/new glyphs have been imported from the DejaVu Sans/Sans Mono fonts, which, like the previous Medievia truetype font have been derived from the Bitstream Vera fonts; other glyphs have also been imported from the Symbola font by George Douros, note however that only versions up to 10.24 are unlicenced according to: +ACIA-In lieu of a licence; fonts and documents in this site are free for any use; George Douros+ACIA see: https://web.archive.org/web/20180212144935/http://users.teilar.gr:80/+AH4A-g1951d/ ."

StartChar: uni0012
Encoding: 18 18 17
Width: 1233
Flags: W
LayerCount: 2
Fore
SplineSet
-355 910 m 1049
-2355 1641 m 1049
EndSplineSet
Refer: 348 8597 S 1 0 0 1 0 0 2
Validated: 1
Comment: "Replaced by a reference to U+-2195 {UP DOWN ARROW}"
EndChar

StartChar: uni0014
Encoding: 20 20 19
Width: 1233
Flags: W
LayerCount: 2
Fore
SplineSet
507 -296 m 1,0,-1
 507 740 l 1,1,2
 125 826 125 826 125 1154 c 0,3,4
 125 1313 125 1313 210 1397 c 0,5,6
 293 1480 293 1480 532 1480 c 2,7,-1
 1001 1480 l 1,8,-1
 1001 -296 l 1,9,-1
 878 -296 l 1,10,-1
 878 1357 l 1,11,-1
 631 1357 l 1,12,-1
 631 -296 l 1,13,-1
 507 -296 l 1,0,-1
EndSplineSet
Validated: 1
Comment: "Ought to be replaced by a reference to U+-00B6 {PILCROW SIGN} - however that position is already used by the Medievia font to supply the MC_TEE_L1_V2 symbol for a different encoding."
EndChar

StartChar: exclam
Encoding: 33 33 32
Width: 1233
Flags: W
LayerCount: 2
Fore
SplineSet
516 1493 m 5,0,-1
 719 1493 l 5,1,-1
 719 838 l 5,2,-1
 698 481 l 5,3,-1
 537 481 l 5,4,-1
 516 838 l 5,5,-1
 516 1493 l 5,0,-1
516 254 m 5,6,-1
 719 254 l 5,7,-1
 719 0 l 5,8,-1
 516 0 l 5,9,-1
 516 254 l 5,6,-1
EndSplineSet
Validated: 1
EndChar

StartChar: quotedbl
Encoding: 34 34 33
Width: 1233
Flags: W
LayerCount: 2
Fore
SplineSet
895 1493 m 1,0,-1
 895 938 l 1,1,-1
 721 938 l 1,2,-1
 721 1493 l 1,3,-1
 895 1493 l 1,0,-1
512 1493 m 1,4,-1
 512 938 l 1,5,-1
 338 938 l 1,6,-1
 338 1493 l 1,7,-1
 512 1493 l 1,4,-1
EndSplineSet
Validated: 1
EndChar

StartChar: numbersign
Encoding: 35 35 34
Width: 1233
Flags: W
LayerCount: 2
Fore
SplineSet
684 1470 m 1,0,-1
 580 1055 l 1,1,-1
 825 1055 l 1,2,-1
 930 1470 l 1,3,-1
 1090 1470 l 1,4,-1
 985 1055 l 1,5,-1
 1229 1055 l 1,6,-1
 1229 901 l 1,7,-1
 948 901 l 1,8,-1
 864 567 l 1,9,-1
 1114 567 l 1,10,-1
 1114 414 l 1,11,-1
 825 414 l 1,12,-1
 721 0 l 1,13,-1
 561 0 l 1,14,-1
 666 414 l 1,15,-1
 420 414 l 1,16,-1
 315 0 l 1,17,-1
 156 0 l 1,18,-1
 260 414 l 1,19,-1
 2 414 l 1,20,-1
 2 567 l 1,21,-1
 299 567 l 1,22,-1
 383 901 l 1,23,-1
 117 901 l 1,24,-1
 117 1055 l 1,25,-1
 420 1055 l 1,26,-1
 524 1470 l 1,27,-1
 684 1470 l 1,0,-1
788 901 m 1,28,-1
 543 901 l 1,29,-1
 459 567 l 1,30,-1
 705 567 l 1,31,-1
 788 901 l 1,28,-1
EndSplineSet
Validated: 1
EndChar

StartChar: dollar
Encoding: 36 36 35
Width: 1233
Flags: W
LayerCount: 2
Fore
SplineSet
692 580 m 1,0,-1
 692 146 l 1,1,2
 802 149 802 149 864 207 c 128,-1,3
 926 265 926 265 926 365 c 0,4,5
 926 458 926 458 870 509.5 c 128,-1,6
 814 561 814 561 692 580 c 1,0,-1
592 770 m 1,7,-1
 592 1183 l 1,8,9
 488 1179 488 1179 429.5 1123 c 128,-1,10
 371 1067 371 1067 371 973 c 0,11,12
 371 887 371 887 425.5 837 c 128,-1,13
 480 787 480 787 592 770 c 1,7,-1
692 -301 m 1,14,-1
 592 -301 l 1,15,-1
 591 0 l 1,16,17
 489 5 489 5 388.5 28 c 128,-1,18
 288 51 288 51 190 92 c 1,19,-1
 190 272 l 1,20,21
 290 210 290 210 391.5 177 c 128,-1,22
 493 144 493 144 592 142 c 1,23,-1
 592 600 l 1,24,25
 392 631 392 631 291 722 c 128,-1,26
 190 813 190 813 190 963 c 0,27,28
 190 1120 190 1120 295.5 1213.5 c 128,-1,29
 401 1307 401 1307 592 1321 c 1,30,-1
 592 1556 l 1,31,-1
 692 1556 l 1,32,-1
 693 1321 l 1,33,34
 772 1316 772 1316 853 1301 c 128,-1,35
 934 1286 934 1286 1018 1260 c 1,36,-1
 1018 1087 l 1,37,38
 933 1130 933 1130 852.5 1153.5 c 128,-1,39
 772 1177 772 1177 692 1181 c 1,40,-1
 692 750 l 1,41,42
 898 719 898 719 1006 622 c 128,-1,43
 1114 525 1114 525 1114 371 c 256,44,45
 1114 217 1114 217 997.5 114 c 128,-1,46
 881 11 881 11 693 2 c 1,47,-1
 692 -301 l 1,14,-1
EndSplineSet
Validated: 1
EndChar

StartChar: percent
Encoding: 37 37 36
Width: 1233
Flags: W
LayerCount: 2
Fore
SplineSet
696 319 m 0,0,1
 696 241 696 241 748.5 188 c 128,-1,2
 801 135 801 135 879 135 c 0,3,4
 956 135 956 135 1009.5 188.5 c 128,-1,5
 1063 242 1063 242 1063 319 c 256,6,7
 1063 396 1063 396 1009 450 c 128,-1,8
 955 504 955 504 879 504 c 0,9,10
 801 504 801 504 748.5 451 c 128,-1,11
 696 398 696 398 696 319 c 0,0,1
561 319 m 0,12,13
 561 454 561 454 653 546.5 c 128,-1,14
 745 639 745 639 879 639 c 0,15,16
 943 639 943 639 1000.5 615 c 128,-1,17
 1058 591 1058 591 1104 545 c 0,18,19
 1150 498 1150 498 1175 440 c 128,-1,20
 1200 382 1200 382 1200 319 c 0,21,22
 1200 186 1200 186 1107 93 c 128,-1,23
 1014 0 1014 0 879 0 c 0,24,25
 743 0 743 0 652 91.5 c 128,-1,26
 561 183 561 183 561 319 c 0,12,13
121 465 m 1,27,-1
 86 561 l 1,28,-1
 1128 979 l 1,29,-1
 1169 883 l 1,30,-1
 121 465 l 1,27,-1
168 1112 m 0,31,32
 168 1033 168 1033 220.5 980.5 c 128,-1,33
 273 928 273 928 352 928 c 0,34,35
 429 928 429 928 483 981.5 c 128,-1,36
 537 1035 537 1035 537 1112 c 256,37,38
 537 1189 537 1189 483 1242.5 c 128,-1,39
 429 1296 429 1296 352 1296 c 256,40,41
 275 1296 275 1296 221.5 1243 c 128,-1,42
 168 1190 168 1190 168 1112 c 0,31,32
33 1112 m 256,43,44
 33 1247 33 1247 125 1339.5 c 128,-1,45
 217 1432 217 1432 352 1432 c 0,46,47
 416 1432 416 1432 474.5 1408 c 128,-1,48
 533 1384 533 1384 578 1339 c 256,49,50
 623 1294 623 1294 647.5 1235.5 c 128,-1,51
 672 1177 672 1177 672 1112 c 0,52,53
 672 978 672 978 579 885.5 c 128,-1,54
 486 793 486 793 352 793 c 0,55,56
 217 793 217 793 125 885 c 128,-1,57
 33 977 33 977 33 1112 c 256,43,44
EndSplineSet
Validated: 1
EndChar

StartChar: ampersand
Encoding: 38 38 37
Width: 1233
Flags: W
LayerCount: 2
Fore
SplineSet
547 907 m 2,0,-1
 963 348 l 1,1,2
 1002 397 1002 397 1021 472 c 128,-1,3
 1040 547 1040 547 1040 651 c 0,4,5
 1040 683 1040 683 1037 753 c 1,6,-1
 1036 760 l 1,7,-1
 1200 760 l 1,8,-1
 1200 721 l 2,9,10
 1200 560 1200 560 1163 438.5 c 128,-1,11
 1126 317 1126 317 1051 229 c 1,12,-1
 1221 0 l 1,13,-1
 1008 0 l 1,14,-1
 930 109 l 1,15,16
 847 39 847 39 754 5 c 128,-1,17
 661 -29 661 -29 555 -29 c 0,18,19
 339 -29 339 -29 198 105.5 c 128,-1,20
 57 240 57 240 57 444 c 0,21,22
 57 581 57 581 126 698 c 128,-1,23
 195 815 195 815 334 915 c 1,24,25
 284 987 284 987 260 1056 c 128,-1,26
 236 1125 236 1125 236 1196 c 0,27,28
 236 1346 236 1346 335.5 1433 c 128,-1,29
 435 1520 435 1520 608 1520 c 0,30,31
 673 1520 673 1520 738.5 1508 c 128,-1,32
 804 1496 804 1496 874 1473 c 1,33,-1
 874 1290 l 1,34,35
 815 1329 815 1329 752.5 1347.5 c 128,-1,36
 690 1366 690 1366 621 1366 c 0,37,38
 524 1366 524 1366 468 1320.5 c 128,-1,39
 412 1275 412 1275 412 1198 c 0,40,41
 412 1139 412 1139 441 1074.5 c 128,-1,42
 470 1010 470 1010 547 907 c 2,0,-1
416 803 m 1,43,44
 324 730 324 730 278.5 648.5 c 128,-1,45
 233 567 233 567 233 475 c 0,46,47
 233 324 233 324 333 224.5 c 128,-1,48
 433 125 433 125 588 125 c 0,49,50
 630 125 630 125 676 137 c 128,-1,51
 722 149 722 149 766 172 c 0,52,53
 793 187 793 187 810.5 198.5 c 128,-1,54
 828 210 828 210 844 223 c 1,55,-1
 416 803 l 1,43,44
EndSplineSet
Validated: 1
EndChar

StartChar: quotesingle
Encoding: 39 39 38
Width: 1233
Flags: W
LayerCount: 2
Fore
SplineSet
702 1493 m 1,0,-1
 702 938 l 1,1,-1
 528 938 l 1,2,-1
 528 1493 l 1,3,-1
 702 1493 l 1,0,-1
EndSplineSet
Validated: 1
EndChar

StartChar: parenleft
Encoding: 40 40 39
Width: 1233
Flags: W
LayerCount: 2
Fore
SplineSet
885 1554 m 1,0,1
 752 1326 752 1326 686.5 1099.5 c 128,-1,2
 621 873 621 873 621 643 c 0,3,4
 621 414 621 414 686.5 187 c 128,-1,5
 752 -40 752 -40 885 -270 c 1,6,-1
 725 -270 l 1,7,8
 574 -32 574 -32 500 193.5 c 128,-1,9
 426 419 426 419 426 643 c 0,10,11
 426 866 426 866 500 1092 c 128,-1,12
 574 1318 574 1318 725 1554 c 1,13,-1
 885 1554 l 1,0,1
EndSplineSet
Validated: 1
EndChar

StartChar: parenright
Encoding: 41 41 40
Width: 1233
Flags: W
LayerCount: 2
Fore
SplineSet
348 1554 m 1,0,-1
 508 1554 l 1,1,2
 659 1318 659 1318 733 1092 c 128,-1,3
 807 866 807 866 807 643 c 0,4,5
 807 418 807 418 733 192 c 128,-1,6
 659 -34 659 -34 508 -270 c 1,7,-1
 348 -270 l 1,8,9
 481 -38 481 -38 546.5 189 c 128,-1,10
 612 416 612 416 612 643 c 0,11,12
 612 871 612 871 546.5 1098 c 128,-1,13
 481 1325 481 1325 348 1554 c 1,0,-1
EndSplineSet
Validated: 1
EndChar

StartChar: asterisk
Encoding: 42 42 41
Width: 1233
Flags: W
LayerCount: 2
Fore
SplineSet
1067 1247 m 1,0,-1
 709 1053 l 1,1,-1
 1067 858 l 1,2,-1
 1010 760 l 1,3,-1
 674 963 l 1,4,-1
 674 586 l 1,5,-1
 559 586 l 1,6,-1
 559 963 l 1,7,-1
 223 760 l 1,8,-1
 166 858 l 1,9,-1
 524 1053 l 1,10,-1
 166 1247 l 1,11,-1
 223 1346 l 1,12,-1
 559 1143 l 1,13,-1
 559 1520 l 1,14,-1
 674 1520 l 1,15,-1
 674 1143 l 1,16,-1
 1010 1346 l 1,17,-1
 1067 1247 l 1,0,-1
EndSplineSet
Validated: 1
EndChar

StartChar: plus
Encoding: 43 43 42
Width: 1233
Flags: W
LayerCount: 2
Fore
SplineSet
700 1171 m 1,0,-1
 700 727 l 1,1,-1
 1145 727 l 1,2,-1
 1145 557 l 1,3,-1
 700 557 l 1,4,-1
 700 113 l 1,5,-1
 532 113 l 1,6,-1
 532 557 l 1,7,-1
 88 557 l 1,8,-1
 88 727 l 1,9,-1
 532 727 l 1,10,-1
 532 1171 l 1,11,-1
 700 1171 l 1,0,-1
EndSplineSet
Validated: 1
EndChar

StartChar: comma
Encoding: 44 44 43
Width: 1233
Flags: W
LayerCount: 2
Fore
SplineSet
502 303 m 1,0,-1
 754 303 l 1,1,-1
 754 96 l 1,2,-1
 557 -287 l 1,3,-1
 403 -287 l 1,4,-1
 502 96 l 1,5,-1
 502 303 l 1,0,-1
EndSplineSet
Validated: 1
EndChar

StartChar: hyphen
Encoding: 45 45 44
Width: 1233
Flags: W
LayerCount: 2
Fore
SplineSet
356 643 m 1,0,-1
 877 643 l 1,1,-1
 877 479 l 1,2,-1
 356 479 l 1,3,-1
 356 643 l 1,0,-1
EndSplineSet
Validated: 1
EndChar

StartChar: period
Encoding: 46 46 45
Width: 1233
Flags: W
LayerCount: 2
Fore
SplineSet
489 305 m 1,0,-1
 741 305 l 1,1,-1
 741 0 l 1,2,-1
 489 0 l 1,3,-1
 489 305 l 1,0,-1
EndSplineSet
Validated: 1
EndChar

StartChar: slash
Encoding: 47 47 46
Width: 1233
Flags: W
LayerCount: 2
Fore
SplineSet
889 1493 m 1,0,-1
 1079 1493 l 1,1,-1
 293 -190 l 1,2,-1
 102 -190 l 1,3,-1
 889 1493 l 1,0,-1
EndSplineSet
Validated: 1
EndChar

StartChar: zero
Encoding: 48 48 47
Width: 1233
Flags: W
LayerCount: 2
Fore
SplineSet
483 750 m 0,0,1
 483 805 483 805 521.5 845 c 128,-1,2
 560 885 560 885 614 885 c 0,3,4
 670 885 670 885 710 845 c 128,-1,5
 750 805 750 805 750 750 c 0,6,7
 750 694 750 694 710.5 655 c 128,-1,8
 671 616 671 616 614 616 c 0,9,10
 558 616 558 616 520.5 654 c 128,-1,11
 483 692 483 692 483 750 c 0,0,1
616 1360 m 0,12,13
 475 1360 475 1360 405.5 1208 c 128,-1,14
 336 1056 336 1056 336 745 c 0,15,16
 336 435 336 435 405.5 283 c 128,-1,17
 475 131 475 131 616 131 c 0,18,19
 758 131 758 131 827.5 283 c 128,-1,20
 897 435 897 435 897 745 c 0,21,22
 897 1056 897 1056 827.5 1208 c 128,-1,23
 758 1360 758 1360 616 1360 c 0,12,13
616 1520 m 256,24,25
 855 1520 855 1520 977.5 1324 c 128,-1,26
 1100 1128 1100 1128 1100 745 c 0,27,28
 1100 363 1100 363 977.5 167 c 128,-1,29
 855 -29 855 -29 616 -29 c 256,30,31
 377 -29 377 -29 255 167 c 128,-1,32
 133 363 133 363 133 745 c 0,33,34
 133 1128 133 1128 255 1324 c 128,-1,35
 377 1520 377 1520 616 1520 c 256,24,25
EndSplineSet
Validated: 1
EndChar

StartChar: one
Encoding: 49 49 48
Width: 1233
Flags: W
LayerCount: 2
Fore
SplineSet
270 170 m 1,0,-1
 584 170 l 1,1,-1
 584 1311 l 1,2,-1
 246 1235 l 1,3,-1
 246 1419 l 1,4,-1
 582 1493 l 1,5,-1
 784 1493 l 1,6,-1
 784 170 l 1,7,-1
 1094 170 l 1,8,-1
 1094 0 l 1,9,-1
 270 0 l 1,10,-1
 270 170 l 1,0,-1
EndSplineSet
Validated: 1
EndChar

StartChar: two
Encoding: 50 50 49
Width: 1233
Flags: W
LayerCount: 2
Fore
SplineSet
373 170 m 1,0,-1
 1059 170 l 1,1,-1
 1059 0 l 1,2,-1
 152 0 l 1,3,-1
 152 170 l 1,4,5
 339 367 339 367 479 518 c 128,-1,6
 619 669 619 669 672 731 c 0,7,8
 772 853 772 853 807 928.5 c 128,-1,9
 842 1004 842 1004 842 1083 c 0,10,11
 842 1208 842 1208 768.5 1279 c 128,-1,12
 695 1350 695 1350 567 1350 c 0,13,14
 476 1350 476 1350 376 1317 c 128,-1,15
 276 1284 276 1284 164 1217 c 1,16,-1
 164 1421 l 1,17,18
 267 1470 267 1470 366.5 1495 c 128,-1,19
 466 1520 466 1520 563 1520 c 0,20,21
 782 1520 782 1520 915.5 1403.5 c 128,-1,22
 1049 1287 1049 1287 1049 1098 c 0,23,24
 1049 1002 1049 1002 1004.5 906 c 128,-1,25
 960 810 960 810 860 694 c 0,26,27
 804 629 804 629 697.5 514 c 128,-1,28
 591 399 591 399 373 170 c 1,0,-1
EndSplineSet
Validated: 1
EndChar

StartChar: three
Encoding: 51 51 50
Width: 1233
Flags: W
LayerCount: 2
Fore
SplineSet
776 799 m 1,0,1
 923 760 923 760 1001 660.5 c 128,-1,2
 1079 561 1079 561 1079 412 c 0,3,4
 1079 206 1079 206 940.5 88.5 c 128,-1,5
 802 -29 802 -29 557 -29 c 0,6,7
 454 -29 454 -29 347 -10 c 128,-1,8
 240 9 240 9 137 45 c 1,9,-1
 137 246 l 1,10,11
 239 193 239 193 338 167 c 128,-1,12
 437 141 437 141 535 141 c 0,13,14
 701 141 701 141 790 216 c 128,-1,15
 879 291 879 291 879 432 c 0,16,17
 879 562 879 562 790 638.5 c 128,-1,18
 701 715 701 715 549 715 c 2,19,-1
 395 715 l 1,20,-1
 395 881 l 1,21,-1
 549 881 l 2,22,23
 688 881 688 881 766 942 c 128,-1,24
 844 1003 844 1003 844 1112 c 0,25,26
 844 1227 844 1227 771.5 1288.5 c 128,-1,27
 699 1350 699 1350 565 1350 c 0,28,29
 476 1350 476 1350 381 1330 c 128,-1,30
 286 1310 286 1310 182 1270 c 1,31,-1
 182 1456 l 1,32,33
 303 1488 303 1488 397.5 1504 c 128,-1,34
 492 1520 492 1520 565 1520 c 0,35,36
 783 1520 783 1520 913.5 1410.5 c 128,-1,37
 1044 1301 1044 1301 1044 1120 c 0,38,39
 1044 997 1044 997 975.5 915 c 128,-1,40
 907 833 907 833 776 799 c 1,0,1
EndSplineSet
Validated: 1
EndChar

StartChar: four
Encoding: 52 52 51
Width: 1233
Flags: W
LayerCount: 2
Fore
SplineSet
735 1309 m 1,0,-1
 264 520 l 1,1,-1
 735 520 l 1,2,-1
 735 1309 l 1,0,-1
702 1493 m 1,3,-1
 936 1493 l 1,4,-1
 936 520 l 1,5,-1
 1135 520 l 1,6,-1
 1135 356 l 1,7,-1
 936 356 l 1,8,-1
 936 0 l 1,9,-1
 735 0 l 1,10,-1
 735 356 l 1,11,-1
 102 356 l 1,12,-1
 102 547 l 1,13,-1
 702 1493 l 1,3,-1
EndSplineSet
Validated: 1
EndChar

StartChar: five
Encoding: 53 53 52
Width: 1233
Flags: W
LayerCount: 2
Fore
SplineSet
207 1493 m 1,0,-1
 963 1493 l 1,1,-1
 963 1323 l 1,2,-1
 391 1323 l 1,3,-1
 391 956 l 1,4,5
 434 972 434 972 477.5 979.5 c 128,-1,6
 521 987 521 987 565 987 c 0,7,8
 797 987 797 987 933 850 c 128,-1,9
 1069 713 1069 713 1069 479 c 0,10,11
 1069 243 1069 243 926.5 107 c 128,-1,12
 784 -29 784 -29 537 -29 c 0,13,14
 418 -29 418 -29 319.5 -13 c 128,-1,15
 221 3 221 3 143 35 c 1,16,-1
 143 240 l 1,17,18
 235 190 235 190 328 165.5 c 128,-1,19
 421 141 421 141 518 141 c 0,20,21
 685 141 685 141 775.5 229 c 128,-1,22
 866 317 866 317 866 479 c 0,23,24
 866 639 866 639 772.5 728 c 128,-1,25
 679 817 679 817 512 817 c 0,26,27
 431 817 431 817 354 798.5 c 128,-1,28
 277 780 277 780 207 743 c 1,29,-1
 207 1493 l 1,0,-1
EndSplineSet
Validated: 1
EndChar

StartChar: six
Encoding: 54 54 53
Width: 1233
Flags: W
LayerCount: 2
Fore
SplineSet
991 1460 m 1,0,-1
 991 1274 l 1,1,2
 928 1311 928 1311 857 1330.5 c 128,-1,3
 786 1350 786 1350 709 1350 c 0,4,5
 517 1350 517 1350 418 1205.5 c 128,-1,6
 319 1061 319 1061 319 780 c 1,7,8
 367 880 367 880 452 933.5 c 128,-1,9
 537 987 537 987 647 987 c 0,10,11
 863 987 863 987 981.5 854.5 c 128,-1,12
 1100 722 1100 722 1100 479 c 0,13,14
 1100 237 1100 237 978 104 c 128,-1,15
 856 -29 856 -29 635 -29 c 0,16,17
 375 -29 375 -29 254 157.5 c 128,-1,18
 133 344 133 344 133 745 c 0,19,20
 133 1123 133 1123 278.5 1321.5 c 128,-1,21
 424 1520 424 1520 700 1520 c 0,22,23
 774 1520 774 1520 848 1504.5 c 128,-1,24
 922 1489 922 1489 991 1460 c 1,0,-1
631 829 m 0,25,26
 502 829 502 829 428 736 c 128,-1,27
 354 643 354 643 354 479 c 256,28,29
 354 315 354 315 428 222 c 128,-1,30
 502 129 502 129 631 129 c 0,31,32
 765 129 765 129 833 217.5 c 128,-1,33
 901 306 901 306 901 479 c 0,34,35
 901 653 901 653 833 741 c 128,-1,36
 765 829 765 829 631 829 c 0,25,26
EndSplineSet
Validated: 1
EndChar

StartChar: seven
Encoding: 55 55 54
Width: 1233
Flags: W
LayerCount: 2
Fore
SplineSet
139 1493 m 1,0,-1
 1079 1493 l 1,1,-1
 1079 1407 l 1,2,-1
 545 0 l 1,3,-1
 334 0 l 1,4,-1
 854 1323 l 1,5,-1
 139 1323 l 1,6,-1
 139 1493 l 1,0,-1
EndSplineSet
Validated: 1
EndChar

StartChar: eight
Encoding: 56 56 55
Width: 1233
Flags: W
LayerCount: 2
Fore
SplineSet
616 709 m 0,0,1
 481 709 481 709 407.5 633.5 c 128,-1,2
 334 558 334 558 334 420 c 256,3,4
 334 282 334 282 408.5 205.5 c 128,-1,5
 483 129 483 129 616 129 c 0,6,7
 752 129 752 129 825.5 204.5 c 128,-1,8
 899 280 899 280 899 420 c 0,9,10
 899 557 899 557 824.5 633 c 128,-1,11
 750 709 750 709 616 709 c 0,0,1
440 793 m 1,12,13
 311 826 311 826 238.5 916 c 128,-1,14
 166 1006 166 1006 166 1133 c 0,15,16
 166 1311 166 1311 287 1415.5 c 128,-1,17
 408 1520 408 1520 616 1520 c 0,18,19
 825 1520 825 1520 946 1415.5 c 128,-1,20
 1067 1311 1067 1311 1067 1133 c 0,21,22
 1067 1006 1067 1006 994.5 916 c 128,-1,23
 922 826 922 826 793 793 c 1,24,25
 943 760 943 760 1022.5 660 c 128,-1,26
 1102 560 1102 560 1102 401 c 0,27,28
 1102 199 1102 199 973 85 c 128,-1,29
 844 -29 844 -29 616 -29 c 256,30,31
 388 -29 388 -29 259.5 84.5 c 128,-1,32
 131 198 131 198 131 399 c 0,33,34
 131 559 131 559 210.5 659.5 c 128,-1,35
 290 760 290 760 440 793 c 1,12,13
367 1114 m 0,36,37
 367 994 367 994 431 931 c 128,-1,38
 495 868 495 868 616 868 c 0,39,40
 738 868 738 868 802 931 c 128,-1,41
 866 994 866 994 866 1114 c 0,42,43
 866 1236 866 1236 802.5 1300 c 128,-1,44
 739 1364 739 1364 616 1364 c 0,45,46
 495 1364 495 1364 431 1299.5 c 128,-1,47
 367 1235 367 1235 367 1114 c 0,36,37
EndSplineSet
Validated: 1
EndChar

StartChar: nine
Encoding: 57 57 56
Width: 1233
Flags: W
LayerCount: 2
Fore
SplineSet
596 662 m 0,0,1
 725 662 725 662 798.5 755 c 128,-1,2
 872 848 872 848 872 1012 c 256,3,4
 872 1176 872 1176 798.5 1269 c 128,-1,5
 725 1362 725 1362 596 1362 c 0,6,7
 462 1362 462 1362 394 1273.5 c 128,-1,8
 326 1185 326 1185 326 1012 c 0,9,10
 326 838 326 838 393.5 750 c 128,-1,11
 461 662 461 662 596 662 c 0,0,1
236 31 m 1,12,-1
 236 217 l 1,13,14
 299 180 299 180 370 160.5 c 128,-1,15
 441 141 441 141 518 141 c 0,16,17
 710 141 710 141 808.5 285.5 c 128,-1,18
 907 430 907 430 907 711 c 1,19,20
 860 611 860 611 775 557.5 c 128,-1,21
 690 504 690 504 580 504 c 0,22,23
 364 504 364 504 245.5 637 c 128,-1,24
 127 770 127 770 127 1014 c 0,25,26
 127 1255 127 1255 248.5 1387.5 c 128,-1,27
 370 1520 370 1520 592 1520 c 0,28,29
 852 1520 852 1520 973 1333 c 128,-1,30
 1094 1146 1094 1146 1094 745 c 0,31,32
 1094 368 1094 368 948.5 169.5 c 128,-1,33
 803 -29 803 -29 526 -29 c 0,34,35
 453 -29 453 -29 379 -13.5 c 128,-1,36
 305 2 305 2 236 31 c 1,12,-1
EndSplineSet
Validated: 1
EndChar

StartChar: colon
Encoding: 58 58 57
Width: 1233
Flags: W
LayerCount: 2
Fore
SplineSet
489 1063 m 1,0,-1
 741 1063 l 1,1,-1
 741 760 l 1,2,-1
 489 760 l 1,3,-1
 489 1063 l 1,0,-1
489 305 m 1,4,-1
 741 305 l 1,5,-1
 741 0 l 1,6,-1
 489 0 l 1,7,-1
 489 305 l 1,4,-1
EndSplineSet
Validated: 1
EndChar

StartChar: semicolon
Encoding: 59 59 58
Width: 1233
Flags: W
LayerCount: 2
Fore
SplineSet
502 303 m 1,0,-1
 754 303 l 1,1,-1
 754 96 l 1,2,-1
 557 -287 l 1,3,-1
 403 -287 l 1,4,-1
 502 96 l 1,5,-1
 502 303 l 1,0,-1
489 1063 m 1,6,-1
 741 1063 l 1,7,-1
 741 760 l 1,8,-1
 489 760 l 1,9,-1
 489 1063 l 1,6,-1
EndSplineSet
Validated: 1
EndChar

StartChar: less
Encoding: 60 60 59
Width: 1233
Flags: W
LayerCount: 2
Fore
SplineSet
1145 961 m 1,0,-1
 295 641 l 1,1,-1
 1145 324 l 1,2,-1
 1145 141 l 1,3,-1
 88 559 l 1,4,-1
 88 725 l 1,5,-1
 1145 1143 l 1,6,-1
 1145 961 l 1,0,-1
EndSplineSet
Validated: 1
EndChar

StartChar: equal
Encoding: 61 61 60
Width: 1233
Flags: W
LayerCount: 2
Fore
SplineSet
88 524 m 1,0,-1
 1145 524 l 1,1,-1
 1145 352 l 1,2,-1
 88 352 l 1,3,-1
 88 524 l 1,0,-1
88 930 m 1,4,-1
 1145 930 l 1,5,-1
 1145 760 l 1,6,-1
 88 760 l 1,7,-1
 88 930 l 1,4,-1
EndSplineSet
Validated: 1
EndChar

StartChar: greater
Encoding: 62 62 61
Width: 1233
Flags: W
LayerCount: 2
Fore
SplineSet
88 961 m 1,0,-1
 88 1143 l 1,1,-1
 1145 725 l 1,2,-1
 1145 559 l 1,3,-1
 88 141 l 1,4,-1
 88 324 l 1,5,-1
 938 641 l 1,6,-1
 88 961 l 1,0,-1
EndSplineSet
Validated: 1
EndChar

StartChar: question
Encoding: 63 63 62
Width: 1233
Flags: W
LayerCount: 2
Fore
SplineSet
684 401 m 1,0,-1
 494 401 l 1,1,-1
 494 555 l 2,2,3
 494 653 494 653 524.5 721.5 c 128,-1,4
 555 790 555 790 639 872 c 2,5,-1
 729 961 l 2,6,7
 791 1020 791 1020 814.5 1064 c 128,-1,8
 838 1108 838 1108 838 1157 c 0,9,10
 838 1246 838 1246 772.5 1301 c 128,-1,11
 707 1356 707 1356 598 1356 c 0,12,13
 520 1356 520 1356 431 1321.5 c 128,-1,14
 342 1287 342 1287 244 1219 c 1,15,-1
 244 1407 l 1,16,17
 338 1464 338 1464 433.5 1492 c 128,-1,18
 529 1520 529 1520 633 1520 c 0,19,20
 819 1520 819 1520 929.5 1424 c 128,-1,21
 1040 1328 1040 1328 1040 1167 c 0,22,23
 1040 1091 1040 1091 1006.5 1025.5 c 128,-1,24
 973 960 973 960 879 868 c 2,25,-1
 791 782 l 2,26,27
 722 716 722 716 703 674 c 128,-1,28
 684 632 684 632 684 571 c 2,29,-1
 684 524 l 1,30,-1
 684 401 l 1,0,-1
487 254 m 1,31,-1
 690 254 l 1,32,-1
 690 0 l 1,33,-1
 487 0 l 1,34,-1
 487 254 l 1,31,-1
EndSplineSet
Validated: 1
EndChar

StartChar: at
Encoding: 64 64 63
Width: 1233
Flags: W
LayerCount: 2
Fore
SplineSet
1038 545 m 0,0,1
 1038 674 1038 674 974 751.5 c 128,-1,2
 910 829 910 829 803 829 c 256,3,4
 696 829 696 829 631.5 751.5 c 128,-1,5
 567 674 567 674 567 545 c 0,6,7
 567 415 567 415 631.5 337.5 c 128,-1,8
 696 260 696 260 803 260 c 256,9,10
 910 260 910 260 974 337.5 c 128,-1,11
 1038 415 1038 415 1038 545 c 0,0,1
1178 135 m 1,12,-1
 1034 135 l 1,13,-1
 1034 246 l 1,14,15
 997 183 997 183 931.5 149 c 128,-1,16
 866 115 866 115 784 115 c 0,17,18
 623 115 623 115 517.5 236 c 128,-1,19
 412 357 412 357 412 545 c 256,20,21
 412 733 412 733 517.5 854 c 128,-1,22
 623 975 623 975 784 975 c 0,23,24
 864 975 864 975 931 940 c 128,-1,25
 998 905 998 905 1034 844 c 1,26,-1
 1034 907 l 2,27,28
 1034 1063 1034 1063 946 1158 c 128,-1,29
 858 1253 858 1253 713 1253 c 0,30,31
 467 1253 467 1253 321.5 1061.5 c 128,-1,32
 176 870 176 870 176 543 c 0,33,34
 176 214 176 214 341 19 c 128,-1,35
 506 -176 506 -176 780 -176 c 0,36,37
 834 -176 834 -176 888 -166 c 128,-1,38
 942 -156 942 -156 999 -135 c 1,39,-1
 1047 -270 l 1,40,41
 984 -295 984 -295 922.5 -307 c 128,-1,42
 861 -319 861 -319 803 -319 c 0,43,44
 446 -319 446 -319 236.5 -86 c 128,-1,45
 27 147 27 147 27 543 c 0,46,47
 27 933 27 933 215 1164 c 128,-1,48
 403 1395 403 1395 719 1395 c 0,49,50
 928 1395 928 1395 1053 1262 c 128,-1,51
 1178 1129 1178 1129 1178 905 c 2,52,-1
 1178 135 l 1,12,-1
EndSplineSet
Validated: 1
EndChar

StartChar: A
Encoding: 65 65 64
Width: 1233
Flags: W
LayerCount: 2
Fore
SplineSet
616 1315 m 1,0,-1
 403 551 l 1,1,-1
 829 551 l 1,2,-1
 616 1315 l 1,0,-1
494 1493 m 1,3,-1
 739 1493 l 1,4,-1
 1196 0 l 1,5,-1
 987 0 l 1,6,-1
 877 389 l 1,7,-1
 354 389 l 1,8,-1
 246 0 l 1,9,-1
 37 0 l 1,10,-1
 494 1493 l 1,3,-1
EndSplineSet
Validated: 1
EndChar

StartChar: B
Encoding: 66 66 65
Width: 1233
Flags: W
LayerCount: 2
Fore
SplineSet
369 713 m 1,0,-1
 369 166 l 1,1,-1
 608 166 l 2,2,3
 784 166 784 166 859 227.5 c 128,-1,4
 934 289 934 289 934 430 c 0,5,6
 934 576 934 576 855 644.5 c 128,-1,7
 776 713 776 713 608 713 c 2,8,-1
 369 713 l 1,0,-1
369 1327 m 1,9,-1
 369 877 l 1,10,-1
 604 877 l 2,11,12
 750 877 750 877 815.5 933 c 128,-1,13
 881 989 881 989 881 1114 c 0,14,15
 881 1227 881 1227 816.5 1277 c 128,-1,16
 752 1327 752 1327 604 1327 c 2,17,-1
 369 1327 l 1,9,-1
166 1493 m 1,18,-1
 608 1493 l 2,19,20
 837 1493 837 1493 961 1394 c 128,-1,21
 1085 1295 1085 1295 1085 1114 c 0,22,23
 1085 977 1085 977 1019.5 898 c 128,-1,24
 954 819 954 819 823 799 c 1,25,26
 970 777 970 777 1053.5 673.5 c 128,-1,27
 1137 570 1137 570 1137 410 c 0,28,29
 1137 207 1137 207 1004 103.5 c 128,-1,30
 871 0 871 0 608 0 c 2,31,-1
 166 0 l 1,32,-1
 166 1493 l 1,18,-1
EndSplineSet
Validated: 1
EndChar

StartChar: C
Encoding: 67 67 66
Width: 1233
Flags: W
LayerCount: 2
Fore
SplineSet
1073 53 m 1,0,1
 996 12 996 12 915 -8.5 c 128,-1,2
 834 -29 834 -29 743 -29 c 0,3,4
 456 -29 456 -29 297.5 174 c 128,-1,5
 139 377 139 377 139 745 c 0,6,7
 139 1111 139 1111 298.5 1315.5 c 128,-1,8
 458 1520 458 1520 743 1520 c 0,9,10
 834 1520 834 1520 915 1499.5 c 128,-1,11
 996 1479 996 1479 1073 1438 c 1,12,-1
 1073 1231 l 1,13,14
 999 1292 999 1292 914 1324 c 128,-1,15
 829 1356 829 1356 743 1356 c 0,16,17
 546 1356 546 1356 448 1204 c 128,-1,18
 350 1052 350 1052 350 745 c 0,19,20
 350 439 350 439 448 287 c 128,-1,21
 546 135 546 135 743 135 c 0,22,23
 831 135 831 135 915.5 167 c 128,-1,24
 1000 199 1000 199 1073 260 c 1,25,-1
 1073 53 l 1,0,1
EndSplineSet
Validated: 1
EndChar

StartChar: D
Encoding: 68 68 67
Width: 1233
Flags: W
LayerCount: 2
Fore
SplineSet
436 166 m 2,0,1
 691 166 691 166 792 291.5 c 128,-1,2
 893 417 893 417 893 745 c 0,3,4
 893 1076 893 1076 792.5 1201.5 c 128,-1,5
 692 1327 692 1327 436 1327 c 2,6,-1
 340 1327 l 1,7,-1
 340 166 l 1,8,-1
 436 166 l 2,0,1
440 1493 m 2,9,10
 782 1493 782 1493 944 1311 c 128,-1,11
 1106 1129 1106 1129 1106 745 c 0,12,13
 1106 363 1106 363 944 181.5 c 128,-1,14
 782 0 782 0 440 0 c 2,15,-1
 137 0 l 1,16,-1
 137 1493 l 1,17,-1
 440 1493 l 2,9,10
EndSplineSet
Validated: 1
EndChar

StartChar: E
Encoding: 69 69 68
Width: 1233
Flags: W
LayerCount: 2
Fore
SplineSet
197 1493 m 1,0,-1
 1083 1493 l 1,1,-1
 1083 1323 l 1,2,-1
 399 1323 l 1,3,-1
 399 881 l 1,4,-1
 1053 881 l 1,5,-1
 1053 711 l 1,6,-1
 399 711 l 1,7,-1
 399 170 l 1,8,-1
 1102 170 l 1,9,-1
 1102 0 l 1,10,-1
 197 0 l 1,11,-1
 197 1493 l 1,0,-1
EndSplineSet
Validated: 1
EndChar

StartChar: F
Encoding: 70 70 69
Width: 1233
Flags: W
LayerCount: 2
Fore
SplineSet
233 1493 m 1,0,-1
 1112 1493 l 1,1,-1
 1112 1323 l 1,2,-1
 436 1323 l 1,3,-1
 436 883 l 1,4,-1
 1049 883 l 1,5,-1
 1049 713 l 1,6,-1
 436 713 l 1,7,-1
 436 0 l 1,8,-1
 233 0 l 1,9,-1
 233 1493 l 1,0,-1
EndSplineSet
Validated: 1
EndChar

StartChar: G
Encoding: 71 71 70
Width: 1233
Flags: W
LayerCount: 2
Fore
SplineSet
1104 123 m 1,0,1
 1023 48 1023 48 921.5 9.5 c 128,-1,2
 820 -29 820 -29 702 -29 c 0,3,4
 418 -29 418 -29 260 174.5 c 128,-1,5
 102 378 102 378 102 745 c 0,6,7
 102 1111 102 1111 262 1315.5 c 128,-1,8
 422 1520 422 1520 707 1520 c 0,9,10
 801 1520 801 1520 887 1493.5 c 128,-1,11
 973 1467 973 1467 1053 1413 c 1,12,-1
 1053 1206 l 1,13,14
 972 1283 972 1283 887 1319.5 c 128,-1,15
 802 1356 802 1356 707 1356 c 0,16,17
 510 1356 510 1356 411.5 1203.5 c 128,-1,18
 313 1051 313 1051 313 745 c 0,19,20
 313 434 313 434 408.5 284.5 c 128,-1,21
 504 135 504 135 702 135 c 0,22,23
 769 135 769 135 819.5 150.5 c 128,-1,24
 870 166 870 166 911 199 c 1,25,-1
 911 600 l 1,26,-1
 694 600 l 1,27,-1
 694 766 l 1,28,-1
 1104 766 l 1,29,-1
 1104 123 l 1,0,1
EndSplineSet
Validated: 1
EndChar

StartChar: H
Encoding: 72 72 71
Width: 1233
Flags: W
LayerCount: 2
Fore
SplineSet
137 1493 m 1,0,-1
 340 1493 l 1,1,-1
 340 881 l 1,2,-1
 893 881 l 1,3,-1
 893 1493 l 1,4,-1
 1096 1493 l 1,5,-1
 1096 0 l 1,6,-1
 893 0 l 1,7,-1
 893 711 l 1,8,-1
 340 711 l 1,9,-1
 340 0 l 1,10,-1
 137 0 l 1,11,-1
 137 1493 l 1,0,-1
EndSplineSet
Validated: 1
EndChar

StartChar: I
Encoding: 73 73 72
Width: 1233
Flags: W
LayerCount: 2
Fore
SplineSet
201 1493 m 1,0,-1
 1030 1493 l 1,1,-1
 1030 1323 l 1,2,-1
 717 1323 l 1,3,-1
 717 170 l 1,4,-1
 1030 170 l 1,5,-1
 1030 0 l 1,6,-1
 201 0 l 1,7,-1
 201 170 l 1,8,-1
 514 170 l 1,9,-1
 514 1323 l 1,10,-1
 201 1323 l 1,11,-1
 201 1493 l 1,0,-1
EndSplineSet
Validated: 1
EndChar

StartChar: J
Encoding: 74 74 73
Width: 1233
Flags: W
LayerCount: 2
Fore
SplineSet
109 61 m 1,0,-1
 109 297 l 1,1,2
 200 216 200 216 297 175.5 c 128,-1,3
 394 135 394 135 498 135 c 0,4,5
 641 135 641 135 697.5 209.5 c 128,-1,6
 754 284 754 284 754 487 c 2,7,-1
 754 1323 l 1,8,-1
 373 1323 l 1,9,-1
 373 1493 l 1,10,-1
 956 1493 l 1,11,-1
 956 487 l 2,12,13
 956 205 956 205 850.5 88 c 128,-1,14
 745 -29 745 -29 498 -29 c 0,15,16
 402 -29 402 -29 307 -7 c 128,-1,17
 212 15 212 15 109 61 c 1,0,-1
EndSplineSet
Validated: 1
EndChar

StartChar: K
Encoding: 75 75 74
Width: 1233
Flags: W
LayerCount: 2
Fore
SplineSet
137 1493 m 1,0,-1
 340 1493 l 1,1,-1
 340 829 l 1,2,-1
 971 1493 l 1,3,-1
 1208 1493 l 1,4,-1
 627 883 l 1,5,-1
 1225 0 l 1,6,-1
 981 0 l 1,7,-1
 494 748 l 1,8,-1
 340 584 l 1,9,-1
 340 0 l 1,10,-1
 137 0 l 1,11,-1
 137 1493 l 1,0,-1
EndSplineSet
Validated: 1
EndChar

StartChar: L
Encoding: 76 76 75
Width: 1233
Flags: W
LayerCount: 2
Fore
SplineSet
215 1493 m 1,0,-1
 418 1493 l 1,1,-1
 418 170 l 1,2,-1
 1139 170 l 1,3,-1
 1139 0 l 1,4,-1
 215 0 l 1,5,-1
 215 1493 l 1,0,-1
EndSplineSet
Validated: 1
EndChar

StartChar: M
Encoding: 77 77 76
Width: 1233
Flags: W
LayerCount: 2
Fore
SplineSet
86 1493 m 1,0,-1
 356 1493 l 1,1,-1
 614 733 l 1,2,-1
 874 1493 l 1,3,-1
 1145 1493 l 1,4,-1
 1145 0 l 1,5,-1
 958 0 l 1,6,-1
 958 1319 l 1,7,-1
 692 532 l 1,8,-1
 539 532 l 1,9,-1
 272 1319 l 1,10,-1
 272 0 l 1,11,-1
 86 0 l 1,12,-1
 86 1493 l 1,0,-1
EndSplineSet
Validated: 1
EndChar

StartChar: N
Encoding: 78 78 77
Width: 1233
Flags: W
LayerCount: 2
Fore
SplineSet
139 1493 m 1,0,-1
 395 1493 l 1,1,-1
 899 264 l 1,2,-1
 899 1493 l 1,3,-1
 1094 1493 l 1,4,-1
 1094 0 l 1,5,-1
 838 0 l 1,6,-1
 334 1229 l 1,7,-1
 334 0 l 1,8,-1
 139 0 l 1,9,-1
 139 1493 l 1,0,-1
EndSplineSet
Validated: 1
EndChar

StartChar: O
Encoding: 79 79 78
Width: 1233
Flags: W
LayerCount: 2
Fore
SplineSet
905 745 m 256,0,1
 905 1074 905 1074 837.5 1215 c 128,-1,2
 770 1356 770 1356 616 1356 c 0,3,4
 463 1356 463 1356 395.5 1215 c 128,-1,5
 328 1074 328 1074 328 745 c 0,6,7
 328 417 328 417 395.5 276 c 128,-1,8
 463 135 463 135 616 135 c 0,9,10
 770 135 770 135 837.5 275.5 c 128,-1,11
 905 416 905 416 905 745 c 256,0,1
1116 745 m 0,12,13
 1116 355 1116 355 992.5 163 c 128,-1,14
 869 -29 869 -29 616 -29 c 256,15,16
 363 -29 363 -29 240 162 c 128,-1,17
 117 353 117 353 117 745 c 0,18,19
 117 1136 117 1136 240.5 1328 c 128,-1,20
 364 1520 364 1520 616 1520 c 0,21,22
 869 1520 869 1520 992.5 1328 c 128,-1,23
 1116 1136 1116 1136 1116 745 c 0,12,13
EndSplineSet
Validated: 1
EndChar

StartChar: P
Encoding: 80 80 79
Width: 1233
Flags: W
LayerCount: 2
Fore
SplineSet
399 1327 m 1,0,-1
 399 766 l 1,1,-1
 633 766 l 2,2,3
 773 766 773 766 851.5 840 c 128,-1,4
 930 914 930 914 930 1047 c 256,5,6
 930 1180 930 1180 852 1253.5 c 128,-1,7
 774 1327 774 1327 633 1327 c 2,8,-1
 399 1327 l 1,0,-1
197 1493 m 1,9,-1
 633 1493 l 2,10,11
 883 1493 883 1493 1012 1379.5 c 128,-1,12
 1141 1266 1141 1266 1141 1047 c 0,13,14
 1141 826 1141 826 1012.5 713 c 128,-1,15
 884 600 884 600 633 600 c 2,16,-1
 399 600 l 1,17,-1
 399 0 l 1,18,-1
 197 0 l 1,19,-1
 197 1493 l 1,9,-1
EndSplineSet
Validated: 1
EndChar

StartChar: Q
Encoding: 81 81 80
Width: 1233
Flags: W
LayerCount: 2
Fore
SplineSet
655 -27 m 1,0,1
 648 -27 648 -27 635 -28 c 128,-1,2
 622 -29 622 -29 614 -29 c 0,3,4
 364 -29 364 -29 240.5 163 c 128,-1,5
 117 355 117 355 117 745 c 0,6,7
 117 1136 117 1136 240.5 1328 c 128,-1,8
 364 1520 364 1520 616 1520 c 0,9,10
 869 1520 869 1520 992.5 1328 c 128,-1,11
 1116 1136 1116 1136 1116 745 c 0,12,13
 1116 451 1116 451 1047.5 271.5 c 128,-1,14
 979 92 979 92 840 20 c 1,15,-1
 1040 -170 l 1,16,-1
 889 -270 l 1,17,-1
 655 -27 l 1,0,1
905 745 m 256,18,19
 905 1074 905 1074 837.5 1215 c 128,-1,20
 770 1356 770 1356 616 1356 c 0,21,22
 463 1356 463 1356 395.5 1215 c 128,-1,23
 328 1074 328 1074 328 745 c 0,24,25
 328 417 328 417 395.5 276 c 128,-1,26
 463 135 463 135 616 135 c 0,27,28
 770 135 770 135 837.5 275.5 c 128,-1,29
 905 416 905 416 905 745 c 256,18,19
EndSplineSet
Validated: 1
EndChar

StartChar: R
Encoding: 82 82 81
Width: 1233
Flags: W
LayerCount: 2
Fore
SplineSet
760 705 m 1,0,1
 838 685 838 685 893 629.5 c 128,-1,2
 948 574 948 574 1030 408 c 2,3,-1
 1233 0 l 1,4,-1
 1016 0 l 1,5,-1
 838 377 l 2,6,7
 761 538 761 538 699.5 584.5 c 128,-1,8
 638 631 638 631 539 631 c 2,9,-1
 346 631 l 1,10,-1
 346 0 l 1,11,-1
 143 0 l 1,12,-1
 143 1493 l 1,13,-1
 559 1493 l 2,14,15
 805 1493 805 1493 936 1382 c 128,-1,16
 1067 1271 1067 1271 1067 1061 c 0,17,18
 1067 913 1067 913 986.5 819.5 c 128,-1,19
 906 726 906 726 760 705 c 1,0,1
346 1327 m 1,20,-1
 346 797 l 1,21,-1
 567 797 l 2,22,23
 712 797 712 797 783 862 c 128,-1,24
 854 927 854 927 854 1061 c 0,25,26
 854 1190 854 1190 778.5 1258.5 c 128,-1,27
 703 1327 703 1327 559 1327 c 2,28,-1
 346 1327 l 1,20,-1
EndSplineSet
Validated: 1
EndChar

StartChar: S
Encoding: 83 83 82
Width: 1233
Flags: W
LayerCount: 2
Fore
SplineSet
1012 1442 m 1,0,-1
 1012 1237 l 1,1,2
 920 1296 920 1296 827.5 1326 c 128,-1,3
 735 1356 735 1356 641 1356 c 0,4,5
 498 1356 498 1356 415 1289.5 c 128,-1,6
 332 1223 332 1223 332 1110 c 0,7,8
 332 1011 332 1011 386.5 959 c 128,-1,9
 441 907 441 907 590 872 c 2,10,-1
 696 848 l 2,11,12
 906 799 906 799 1002 694 c 128,-1,13
 1098 589 1098 589 1098 408 c 0,14,15
 1098 195 1098 195 966 83 c 128,-1,16
 834 -29 834 -29 582 -29 c 0,17,18
 477 -29 477 -29 371 -6.5 c 128,-1,19
 265 16 265 16 158 61 c 1,20,-1
 158 276 l 1,21,22
 273 203 273 203 375.5 169 c 128,-1,23
 478 135 478 135 582 135 c 0,24,25
 735 135 735 135 820 203.5 c 128,-1,26
 905 272 905 272 905 395 c 0,27,28
 905 507 905 507 846.5 566 c 128,-1,29
 788 625 788 625 643 657 c 2,30,-1
 535 682 l 2,31,32
 327 729 327 729 233 824 c 128,-1,33
 139 919 139 919 139 1079 c 0,34,35
 139 1279 139 1279 273.5 1399.5 c 128,-1,36
 408 1520 408 1520 631 1520 c 0,37,38
 717 1520 717 1520 812 1500.5 c 128,-1,39
 907 1481 907 1481 1012 1442 c 1,0,-1
EndSplineSet
Validated: 1
EndChar

StartChar: T
Encoding: 84 84 83
Width: 1233
Flags: W
LayerCount: 2
Fore
SplineSet
47 1493 m 1,0,-1
 1186 1493 l 1,1,-1
 1186 1323 l 1,2,-1
 719 1323 l 1,3,-1
 719 0 l 1,4,-1
 516 0 l 1,5,-1
 516 1323 l 1,6,-1
 47 1323 l 1,7,-1
 47 1493 l 1,0,-1
EndSplineSet
Validated: 1
EndChar

StartChar: U
Encoding: 85 85 84
Width: 1233
Flags: W
LayerCount: 2
Fore
SplineSet
147 573 m 2,0,-1
 147 1493 l 1,1,-1
 350 1493 l 1,2,-1
 350 481 l 2,3,4
 350 372 350 372 356 325.5 c 128,-1,5
 362 279 362 279 377 254 c 0,6,7
 409 195 409 195 469.5 165 c 128,-1,8
 530 135 530 135 616 135 c 0,9,10
 703 135 703 135 763 165 c 128,-1,11
 823 195 823 195 856 254 c 0,12,13
 871 279 871 279 877 325 c 128,-1,14
 883 371 883 371 883 479 c 2,15,-1
 883 573 l 1,16,-1
 883 1493 l 1,17,-1
 1085 1493 l 1,18,-1
 1085 573 l 2,19,20
 1085 344 1085 344 1056.5 247.5 c 128,-1,21
 1028 151 1028 151 958 88 c 0,22,23
 892 29 892 29 807 0 c 128,-1,24
 722 -29 722 -29 616 -29 c 0,25,26
 511 -29 511 -29 426 0 c 128,-1,27
 341 29 341 29 274 88 c 0,28,29
 205 150 205 150 176 248.5 c 128,-1,30
 147 347 147 347 147 573 c 2,0,-1
EndSplineSet
Validated: 1
EndChar

StartChar: V
Encoding: 86 86 85
Width: 1233
Flags: W
LayerCount: 2
Fore
SplineSet
616 170 m 1,0,-1
 967 1493 l 1,1,-1
 1176 1493 l 1,2,-1
 739 0 l 1,3,-1
 494 0 l 1,4,-1
 57 1493 l 1,5,-1
 266 1493 l 1,6,-1
 616 170 l 1,0,-1
EndSplineSet
Validated: 1
EndChar

StartChar: W
Encoding: 87 87 86
Width: 1233
Flags: W
LayerCount: 2
Fore
SplineSet
0 1493 m 1,0,-1
 197 1493 l 1,1,-1
 340 281 l 1,2,-1
 510 1083 l 1,3,-1
 721 1083 l 1,4,-1
 893 279 l 1,5,-1
 1036 1493 l 1,6,-1
 1233 1493 l 1,7,-1
 1010 0 l 1,8,-1
 819 0 l 1,9,-1
 616 887 l 1,10,-1
 414 0 l 1,11,-1
 223 0 l 1,12,-1
 0 1493 l 1,0,-1
EndSplineSet
Validated: 1
EndChar

StartChar: X
Encoding: 88 88 87
Width: 1233
Flags: W
LayerCount: 2
Fore
SplineSet
86 1493 m 1,0,-1
 303 1493 l 1,1,-1
 631 930 l 1,2,-1
 965 1493 l 1,3,-1
 1182 1493 l 1,4,-1
 735 791 l 1,5,-1
 1214 0 l 1,6,-1
 997 0 l 1,7,-1
 631 643 l 1,8,-1
 236 0 l 1,9,-1
 18 0 l 1,10,-1
 518 791 l 1,11,-1
 86 1493 l 1,0,-1
EndSplineSet
Validated: 1
EndChar

StartChar: Y
Encoding: 89 89 88
Width: 1233
Flags: W
LayerCount: 2
Fore
SplineSet
37 1493 m 1,0,-1
 252 1493 l 1,1,-1
 616 834 l 1,2,-1
 979 1493 l 1,3,-1
 1196 1493 l 1,4,-1
 717 670 l 1,5,-1
 717 0 l 1,6,-1
 514 0 l 1,7,-1
 514 670 l 1,8,-1
 37 1493 l 1,0,-1
EndSplineSet
Validated: 1
EndChar

StartChar: Z
Encoding: 90 90 89
Width: 1233
Flags: W
LayerCount: 2
Fore
SplineSet
178 1493 m 1,0,-1
 1147 1493 l 1,1,-1
 1147 1339 l 1,2,-1
 367 170 l 1,3,-1
 1169 170 l 1,4,-1
 1169 0 l 1,5,-1
 156 0 l 1,6,-1
 156 154 l 1,7,-1
 915 1323 l 1,8,-1
 178 1323 l 1,9,-1
 178 1493 l 1,0,-1
EndSplineSet
Validated: 1
EndChar

StartChar: bracketleft
Encoding: 91 91 90
Width: 1233
Flags: W
LayerCount: 2
Fore
SplineSet
463 1556 m 1,0,-1
 887 1556 l 1,1,-1
 887 1413 l 1,2,-1
 647 1413 l 1,3,-1
 647 -127 l 1,4,-1
 887 -127 l 1,5,-1
 887 -270 l 1,6,-1
 463 -270 l 1,7,-1
 463 1556 l 1,0,-1
EndSplineSet
Validated: 1
EndChar

StartChar: backslash
Encoding: 92 92 91
Width: 1233
Flags: W
LayerCount: 2
Fore
SplineSet
293 1493 m 1,0,-1
 1079 -190 l 1,1,-1
 889 -190 l 1,2,-1
 102 1493 l 1,3,-1
 293 1493 l 1,0,-1
EndSplineSet
Validated: 1
EndChar

StartChar: bracketright
Encoding: 93 93 92
Width: 1233
Flags: W
LayerCount: 2
Fore
SplineSet
770 1556 m 1,0,-1
 770 -270 l 1,1,-1
 346 -270 l 1,2,-1
 346 -127 l 1,3,-1
 586 -127 l 1,4,-1
 586 1413 l 1,5,-1
 346 1413 l 1,6,-1
 346 1556 l 1,7,-1
 770 1556 l 1,0,-1
EndSplineSet
Validated: 1
EndChar

StartChar: asciicircum
Encoding: 94 94 93
Width: 1233
Flags: W
LayerCount: 2
Fore
SplineSet
705 1493 m 1,0,-1
 1161 936 l 1,1,-1
 983 936 l 1,2,-1
 616 1331 l 1,3,-1
 250 936 l 1,4,-1
 72 936 l 1,5,-1
 528 1493 l 1,6,-1
 705 1493 l 1,0,-1
EndSplineSet
Validated: 1
EndChar

StartChar: underscore
Encoding: 95 95 94
Width: 1233
Flags: W
LayerCount: 2
Fore
SplineSet
1024 -403 m 1,0,-1
 1024 -483 l 1,1,-1
 0 -483 l 1,2,-1
 0 -403 l 1,3,-1
 1024 -403 l 1,0,-1
EndSplineSet
Validated: 1
EndChar

StartChar: grave
Encoding: 96 96 95
Width: 1233
Flags: W
LayerCount: 2
Fore
SplineSet
477 1638 m 1,0,-1
 758 1262 l 1,1,-1
 604 1262 l 1,2,-1
 279 1638 l 1,3,-1
 477 1638 l 1,0,-1
EndSplineSet
Validated: 1
EndChar

StartChar: a
Encoding: 97 97 96
Width: 1233
Flags: W
LayerCount: 2
Fore
SplineSet
702 563 m 1,0,-1
 641 563 l 2,1,2
 480 563 480 563 398.5 506.5 c 128,-1,3
 317 450 317 450 317 338 c 0,4,5
 317 237 317 237 378 181 c 128,-1,6
 439 125 439 125 547 125 c 0,7,8
 699 125 699 125 786 230.5 c 128,-1,9
 873 336 873 336 874 522 c 2,10,-1
 874 563 l 1,11,-1
 702 563 l 1,0,-1
1059 639 m 2,12,-1
 1059 0 l 1,13,-1
 874 0 l 1,14,-1
 874 166 l 1,15,16
 815 66 815 66 725.5 18.5 c 128,-1,17
 636 -29 636 -29 508 -29 c 0,18,19
 337 -29 337 -29 235 67.5 c 128,-1,20
 133 164 133 164 133 326 c 0,21,22
 133 513 133 513 258.5 610 c 128,-1,23
 384 707 384 707 627 707 c 2,24,-1
 874 707 l 1,25,-1
 874 736 l 2,26,27
 873 870 873 870 806 930.5 c 128,-1,28
 739 991 739 991 592 991 c 0,29,30
 498 991 498 991 402 964 c 128,-1,31
 306 937 306 937 215 885 c 1,32,-1
 215 1069 l 1,33,34
 317 1108 317 1108 410.5 1127.5 c 128,-1,35
 504 1147 504 1147 592 1147 c 0,36,37
 731 1147 731 1147 829.5 1106 c 128,-1,38
 928 1065 928 1065 989 983 c 0,39,40
 1027 933 1027 933 1043 859.5 c 128,-1,41
 1059 786 1059 786 1059 639 c 2,12,-1
EndSplineSet
Validated: 1
EndChar

StartChar: b
Encoding: 98 98 97
Width: 1233
Flags: W
LayerCount: 2
Fore
SplineSet
918 559 m 256,0,1
 918 773 918 773 850 882 c 128,-1,2
 782 991 782 991 649 991 c 0,3,4
 515 991 515 991 446 881.5 c 128,-1,5
 377 772 377 772 377 559 c 0,6,7
 377 347 377 347 446 237 c 128,-1,8
 515 127 515 127 649 127 c 0,9,10
 782 127 782 127 850 236 c 128,-1,11
 918 345 918 345 918 559 c 256,0,1
377 977 m 1,12,13
 421 1059 421 1059 498.5 1103 c 128,-1,14
 576 1147 576 1147 678 1147 c 0,15,16
 880 1147 880 1147 996 991.5 c 128,-1,17
 1112 836 1112 836 1112 563 c 0,18,19
 1112 286 1112 286 995.5 128.5 c 128,-1,20
 879 -29 879 -29 676 -29 c 0,21,22
 576 -29 576 -29 499.5 14.5 c 128,-1,23
 423 58 423 58 377 141 c 1,24,-1
 377 0 l 1,25,-1
 193 0 l 1,26,-1
 193 1556 l 1,27,-1
 377 1556 l 1,28,-1
 377 977 l 1,12,13
EndSplineSet
Validated: 1
EndChar

StartChar: c
Encoding: 99 99 98
Width: 1233
Flags: W
LayerCount: 2
Fore
SplineSet
1061 57 m 1,0,1
 987 14 987 14 908.5 -7.5 c 128,-1,2
 830 -29 830 -29 748 -29 c 0,3,4
 488 -29 488 -29 341.5 127 c 128,-1,5
 195 283 195 283 195 559 c 256,6,7
 195 835 195 835 341.5 991 c 128,-1,8
 488 1147 488 1147 748 1147 c 0,9,10
 829 1147 829 1147 906 1126 c 128,-1,11
 983 1105 983 1105 1061 1061 c 1,12,-1
 1061 868 l 1,13,14
 988 933 988 933 914.5 962 c 128,-1,15
 841 991 841 991 748 991 c 0,16,17
 575 991 575 991 482 879 c 128,-1,18
 389 767 389 767 389 559 c 0,19,20
 389 352 389 352 482.5 239.5 c 128,-1,21
 576 127 576 127 748 127 c 0,22,23
 844 127 844 127 920 156.5 c 128,-1,24
 996 186 996 186 1061 248 c 1,25,-1
 1061 57 l 1,0,1
EndSplineSet
Validated: 1
EndChar

StartChar: d
Encoding: 100 100 99
Width: 1233
Flags: W
LayerCount: 2
Fore
SplineSet
858 977 m 1,0,-1
 858 1556 l 1,1,-1
 1042 1556 l 1,2,-1
 1042 0 l 1,3,-1
 858 0 l 1,4,-1
 858 141 l 1,5,6
 812 58 812 58 735.5 14.5 c 128,-1,7
 659 -29 659 -29 559 -29 c 0,8,9
 356 -29 356 -29 239.5 128.5 c 128,-1,10
 123 286 123 286 123 563 c 0,11,12
 123 836 123 836 240 991.5 c 128,-1,13
 357 1147 357 1147 559 1147 c 0,14,15
 660 1147 660 1147 737 1103.5 c 128,-1,16
 814 1060 814 1060 858 977 c 1,0,-1
317 559 m 256,17,18
 317 345 317 345 385 236 c 128,-1,19
 453 127 453 127 586 127 c 256,20,21
 719 127 719 127 788.5 237 c 128,-1,22
 858 347 858 347 858 559 c 0,23,24
 858 772 858 772 788.5 881.5 c 128,-1,25
 719 991 719 991 586 991 c 256,26,27
 453 991 453 991 385 882 c 128,-1,28
 317 773 317 773 317 559 c 256,17,18
EndSplineSet
Validated: 1
EndChar

StartChar: e
Encoding: 101 101 100
Width: 1233
Flags: W
LayerCount: 2
Fore
SplineSet
1112 606 m 2,0,-1
 1112 516 l 1,1,-1
 315 516 l 1,2,-1
 315 510 l 2,3,4
 315 327 315 327 410.5 227 c 128,-1,5
 506 127 506 127 680 127 c 0,6,7
 768 127 768 127 864 155 c 128,-1,8
 960 183 960 183 1069 240 c 1,9,-1
 1069 57 l 1,10,11
 964 14 964 14 866.5 -7.5 c 128,-1,12
 769 -29 769 -29 678 -29 c 0,13,14
 417 -29 417 -29 270 127.5 c 128,-1,15
 123 284 123 284 123 559 c 0,16,17
 123 827 123 827 267 987 c 128,-1,18
 411 1147 411 1147 651 1147 c 0,19,20
 865 1147 865 1147 988.5 1002 c 128,-1,21
 1112 857 1112 857 1112 606 c 2,0,-1
928 660 m 1,22,23
 924 822 924 822 851.5 906.5 c 128,-1,24
 779 991 779 991 643 991 c 0,25,26
 510 991 510 991 424 903 c 128,-1,27
 338 815 338 815 322 659 c 1,28,-1
 928 660 l 1,22,23
EndSplineSet
Validated: 1
EndChar

StartChar: f
Encoding: 102 102 101
Width: 1233
Flags: W
LayerCount: 2
Fore
SplineSet
1063 1556 m 1,0,-1
 1063 1403 l 1,1,-1
 854 1403 l 2,2,3
 755 1403 755 1403 716.5 1362.5 c 128,-1,4
 678 1322 678 1322 678 1219 c 2,5,-1
 678 1120 l 1,6,-1
 1063 1120 l 1,7,-1
 1063 977 l 1,8,-1
 678 977 l 1,9,-1
 678 0 l 1,10,-1
 494 0 l 1,11,-1
 494 977 l 1,12,-1
 195 977 l 1,13,-1
 195 1120 l 1,14,-1
 494 1120 l 1,15,-1
 494 1198 l 2,16,17
 494 1382 494 1382 578.5 1469 c 128,-1,18
 663 1556 663 1556 842 1556 c 2,19,-1
 1063 1556 l 1,0,-1
EndSplineSet
Validated: 1
EndChar

StartChar: g
Encoding: 103 103 102
Width: 1233
Flags: W
LayerCount: 2
Fore
SplineSet
858 569 m 0,0,1
 858 776 858 776 790.5 883.5 c 128,-1,2
 723 991 723 991 594 991 c 0,3,4
 459 991 459 991 388 883.5 c 128,-1,5
 317 776 317 776 317 569 c 256,6,7
 317 362 317 362 388.5 253.5 c 128,-1,8
 460 145 460 145 596 145 c 0,9,10
 723 145 723 145 790.5 254 c 128,-1,11
 858 363 858 363 858 569 c 0,0,1
1042 72 m 2,12,13
 1042 -180 1042 -180 923 -310 c 128,-1,14
 804 -440 804 -440 573 -440 c 0,15,16
 497 -440 497 -440 414 -426 c 128,-1,17
 331 -412 331 -412 248 -385 c 1,18,-1
 248 -203 l 1,19,20
 346 -249 346 -249 426 -271 c 128,-1,21
 506 -293 506 -293 573 -293 c 0,22,23
 722 -293 722 -293 790 -212 c 128,-1,24
 858 -131 858 -131 858 45 c 2,25,-1
 858 53 l 1,26,-1
 858 178 l 1,27,28
 814 84 814 84 738 38 c 128,-1,29
 662 -8 662 -8 553 -8 c 0,30,31
 357 -8 357 -8 240 149 c 128,-1,32
 123 306 123 306 123 569 c 0,33,34
 123 833 123 833 240 990 c 128,-1,35
 357 1147 357 1147 553 1147 c 0,36,37
 661 1147 661 1147 736 1104 c 128,-1,38
 811 1061 811 1061 858 971 c 1,39,-1
 858 1116 l 1,40,-1
 1042 1116 l 1,41,-1
 1042 72 l 2,12,13
EndSplineSet
Validated: 1
EndChar

StartChar: h
Encoding: 104 104 103
Width: 1233
Flags: W
LayerCount: 2
Fore
SplineSet
1051 694 m 2,0,-1
 1051 0 l 1,1,-1
 866 0 l 1,2,-1
 866 694 l 2,3,4
 866 845 866 845 813 916 c 128,-1,5
 760 987 760 987 647 987 c 0,6,7
 518 987 518 987 448.5 895.5 c 128,-1,8
 379 804 379 804 379 633 c 2,9,-1
 379 0 l 1,10,-1
 195 0 l 1,11,-1
 195 1556 l 1,12,-1
 379 1556 l 1,13,-1
 379 952 l 1,14,15
 428 1048 428 1048 512 1097.5 c 128,-1,16
 596 1147 596 1147 711 1147 c 0,17,18
 882 1147 882 1147 966.5 1034.5 c 128,-1,19
 1051 922 1051 922 1051 694 c 2,0,-1
EndSplineSet
Validated: 1
EndChar

StartChar: i
Encoding: 105 105 104
Width: 1233
Flags: W
LayerCount: 2
Fore
SplineSet
256 1120 m 1,0,-1
 727 1120 l 1,1,-1
 727 143 l 1,2,-1
 1092 143 l 1,3,-1
 1092 0 l 1,4,-1
 178 0 l 1,5,-1
 178 143 l 1,6,-1
 543 143 l 1,7,-1
 543 977 l 1,8,-1
 256 977 l 1,9,-1
 256 1120 l 1,0,-1
543 1556 m 1,10,-1
 727 1556 l 1,11,-1
 727 1323 l 1,12,-1
 543 1323 l 1,13,-1
 543 1556 l 1,10,-1
EndSplineSet
Validated: 1
EndChar

StartChar: j
Encoding: 106 106 105
Width: 1233
Flags: W
LayerCount: 2
Fore
SplineSet
600 -20 m 2,0,-1
 600 977 l 1,1,-1
 283 977 l 1,2,-1
 283 1120 l 1,3,-1
 784 1120 l 1,4,-1
 784 -20 l 2,5,6
 784 -215 784 -215 694.5 -320.5 c 128,-1,7
 605 -426 605 -426 440 -426 c 2,8,-1
 186 -426 l 1,9,-1
 186 -270 l 1,10,-1
 420 -270 l 2,11,12
 510 -270 510 -270 555 -207.5 c 128,-1,13
 600 -145 600 -145 600 -20 c 2,0,-1
600 1556 m 1,14,-1
 784 1556 l 1,15,-1
 784 1323 l 1,16,-1
 600 1323 l 1,17,-1
 600 1556 l 1,14,-1
EndSplineSet
Validated: 1
EndChar

StartChar: k
Encoding: 107 107 106
Width: 1233
Flags: W
LayerCount: 2
Fore
SplineSet
236 1556 m 1,0,-1
 426 1556 l 1,1,-1
 426 655 l 1,2,-1
 909 1120 l 1,3,-1
 1133 1120 l 1,4,-1
 692 698 l 1,5,-1
 1202 0 l 1,6,-1
 977 0 l 1,7,-1
 563 578 l 1,8,-1
 426 449 l 1,9,-1
 426 0 l 1,10,-1
 236 0 l 1,11,-1
 236 1556 l 1,0,-1
EndSplineSet
Validated: 1
EndChar

StartChar: l
Encoding: 108 108 107
Width: 1233
Flags: W
LayerCount: 2
Fore
SplineSet
639 406 m 2,0,1
 639 282 639 282 684.5 219 c 128,-1,2
 730 156 730 156 819 156 c 2,3,-1
 1034 156 l 1,4,-1
 1034 0 l 1,5,-1
 801 0 l 2,6,7
 636 0 636 0 545.5 106 c 128,-1,8
 455 212 455 212 455 406 c 2,9,-1
 455 1423 l 1,10,-1
 160 1423 l 1,11,-1
 160 1567 l 1,12,-1
 639 1567 l 1,13,-1
 639 406 l 2,0,1
EndSplineSet
Validated: 1
EndChar

StartChar: m
Encoding: 109 109 108
Width: 1233
Flags: W
LayerCount: 2
Fore
SplineSet
676 1006 m 1,0,1
 710 1078 710 1078 762.5 1112.5 c 128,-1,2
 815 1147 815 1147 889 1147 c 0,3,4
 1024 1147 1024 1147 1079.5 1042.5 c 128,-1,5
 1135 938 1135 938 1135 649 c 2,6,-1
 1135 0 l 1,7,-1
 967 0 l 1,8,-1
 967 641 l 2,9,10
 967 878 967 878 940.5 935.5 c 128,-1,11
 914 993 914 993 844 993 c 0,12,13
 764 993 764 993 734.5 931.5 c 128,-1,14
 705 870 705 870 705 641 c 2,15,-1
 705 0 l 1,16,-1
 537 0 l 1,17,-1
 537 641 l 2,18,19
 537 881 537 881 508.5 937 c 128,-1,20
 480 993 480 993 406 993 c 0,21,22
 333 993 333 993 304.5 931.5 c 128,-1,23
 276 870 276 870 276 641 c 2,24,-1
 276 0 l 1,25,-1
 109 0 l 1,26,-1
 109 1120 l 1,27,-1
 276 1120 l 1,28,-1
 276 1024 l 1,29,30
 309 1084 309 1084 358.5 1115.5 c 128,-1,31
 408 1147 408 1147 471 1147 c 0,32,33
 547 1147 547 1147 597.5 1112 c 128,-1,34
 648 1077 648 1077 676 1006 c 1,0,1
EndSplineSet
Validated: 1
EndChar

StartChar: n
Encoding: 110 110 109
Width: 1233
Flags: W
LayerCount: 2
Fore
SplineSet
1051 694 m 2,0,-1
 1051 0 l 1,1,-1
 866 0 l 1,2,-1
 866 694 l 2,3,4
 866 845 866 845 813 916 c 128,-1,5
 760 987 760 987 647 987 c 0,6,7
 518 987 518 987 448.5 895.5 c 128,-1,8
 379 804 379 804 379 633 c 2,9,-1
 379 0 l 1,10,-1
 195 0 l 1,11,-1
 195 1120 l 1,12,-1
 379 1120 l 1,13,-1
 379 952 l 1,14,15
 428 1048 428 1048 512 1097.5 c 128,-1,16
 596 1147 596 1147 711 1147 c 0,17,18
 882 1147 882 1147 966.5 1034.5 c 128,-1,19
 1051 922 1051 922 1051 694 c 2,0,-1
EndSplineSet
Validated: 1
EndChar

StartChar: o
Encoding: 111 111 110
Width: 1233
Flags: W
LayerCount: 2
Fore
SplineSet
616 991 m 0,0,1
 476 991 476 991 404 882 c 128,-1,2
 332 773 332 773 332 559 c 0,3,4
 332 346 332 346 404 236.5 c 128,-1,5
 476 127 476 127 616 127 c 0,6,7
 757 127 757 127 829 236.5 c 128,-1,8
 901 346 901 346 901 559 c 0,9,10
 901 773 901 773 829 882 c 128,-1,11
 757 991 757 991 616 991 c 0,0,1
616 1147 m 256,12,13
 849 1147 849 1147 972.5 996 c 128,-1,14
 1096 845 1096 845 1096 559 c 0,15,16
 1096 272 1096 272 973 121.5 c 128,-1,17
 850 -29 850 -29 616 -29 c 0,18,19
 383 -29 383 -29 260 121.5 c 128,-1,20
 137 272 137 272 137 559 c 0,21,22
 137 845 137 845 260 996 c 128,-1,23
 383 1147 383 1147 616 1147 c 256,12,13
EndSplineSet
Validated: 1
EndChar

StartChar: p
Encoding: 112 112 111
Width: 1233
Flags: W
LayerCount: 2
Fore
SplineSet
375 141 m 1,0,-1
 375 -426 l 1,1,-1
 190 -426 l 1,2,-1
 190 1120 l 1,3,-1
 375 1120 l 1,4,-1
 375 977 l 1,5,6
 421 1060 421 1060 497.5 1103.5 c 128,-1,7
 574 1147 574 1147 674 1147 c 0,8,9
 877 1147 877 1147 992.5 990 c 128,-1,10
 1108 833 1108 833 1108 555 c 0,11,12
 1108 282 1108 282 992 126.5 c 128,-1,13
 876 -29 876 -29 674 -29 c 0,14,15
 572 -29 572 -29 495.5 14.5 c 128,-1,16
 419 58 419 58 375 141 c 1,0,-1
915 559 m 256,17,18
 915 773 915 773 847.5 882 c 128,-1,19
 780 991 780 991 647 991 c 0,20,21
 513 991 513 991 444 881.5 c 128,-1,22
 375 772 375 772 375 559 c 0,23,24
 375 347 375 347 444 237 c 128,-1,25
 513 127 513 127 647 127 c 0,26,27
 780 127 780 127 847.5 236 c 128,-1,28
 915 345 915 345 915 559 c 256,17,18
EndSplineSet
Validated: 1
EndChar

StartChar: q
Encoding: 113 113 112
Width: 1233
Flags: W
LayerCount: 2
Fore
SplineSet
332 555 m 256,0,1
 332 341 332 341 399.5 232 c 128,-1,2
 467 123 467 123 600 123 c 256,3,4
 733 123 733 123 801.5 232.5 c 128,-1,5
 870 342 870 342 870 555 c 256,6,7
 870 768 870 768 801.5 877.5 c 128,-1,8
 733 987 733 987 600 987 c 256,9,10
 467 987 467 987 399.5 878 c 128,-1,11
 332 769 332 769 332 555 c 256,0,1
870 139 m 1,12,13
 825 56 825 56 748.5 11.5 c 128,-1,14
 672 -33 672 -33 571 -33 c 0,15,16
 370 -33 370 -33 253.5 122.5 c 128,-1,17
 137 278 137 278 137 551 c 0,18,19
 137 829 137 829 253 986 c 128,-1,20
 369 1143 369 1143 571 1143 c 0,21,22
 671 1143 671 1143 747.5 1099.5 c 128,-1,23
 824 1056 824 1056 870 973 c 1,24,-1
 870 1116 l 1,25,-1
 1055 1116 l 1,26,-1
 1055 -430 l 1,27,-1
 870 -430 l 1,28,-1
 870 139 l 1,12,13
EndSplineSet
Validated: 1
EndChar

StartChar: r
Encoding: 114 114 113
Width: 1233
Flags: W
LayerCount: 2
Fore
SplineSet
1155 889 m 1,0,1
 1096 935 1096 935 1035 956 c 128,-1,2
 974 977 974 977 901 977 c 0,3,4
 729 977 729 977 638 869 c 128,-1,5
 547 761 547 761 547 557 c 2,6,-1
 547 0 l 1,7,-1
 362 0 l 1,8,-1
 362 1120 l 1,9,-1
 547 1120 l 1,10,-1
 547 901 l 1,11,12
 593 1020 593 1020 688.5 1083.5 c 128,-1,13
 784 1147 784 1147 915 1147 c 0,14,15
 983 1147 983 1147 1042 1130 c 128,-1,16
 1101 1113 1101 1113 1155 1077 c 1,17,-1
 1155 889 l 1,0,1
EndSplineSet
Validated: 1
EndChar

StartChar: s
Encoding: 115 115 114
Width: 1233
Flags: W
LayerCount: 2
Fore
SplineSet
973 1081 m 1,0,-1
 973 901 l 1,1,2
 894 947 894 947 814 970 c 128,-1,3
 734 993 734 993 651 993 c 0,4,5
 526 993 526 993 464.5 952.5 c 128,-1,6
 403 912 403 912 403 829 c 0,7,8
 403 754 403 754 449 717 c 128,-1,9
 495 680 495 680 678 645 c 2,10,-1
 752 631 l 2,11,12
 889 605 889 605 959.5 527 c 128,-1,13
 1030 449 1030 449 1030 324 c 0,14,15
 1030 158 1030 158 912 64.5 c 128,-1,16
 794 -29 794 -29 584 -29 c 0,17,18
 501 -29 501 -29 410 -11.5 c 128,-1,19
 319 6 319 6 213 41 c 1,20,-1
 213 231 l 1,21,22
 316 178 316 178 410 151.5 c 128,-1,23
 504 125 504 125 588 125 c 0,24,25
 710 125 710 125 777 174.5 c 128,-1,26
 844 224 844 224 844 313 c 0,27,28
 844 441 844 441 599 490 c 1,29,-1
 591 492 l 1,30,-1
 522 506 l 2,31,32
 363 537 363 537 290 610.5 c 128,-1,33
 217 684 217 684 217 811 c 0,34,35
 217 972 217 972 326 1059.5 c 128,-1,36
 435 1147 435 1147 637 1147 c 0,37,38
 727 1147 727 1147 810 1130.5 c 128,-1,39
 893 1114 893 1114 973 1081 c 1,0,-1
EndSplineSet
Validated: 1
EndChar

StartChar: t
Encoding: 116 116 115
Width: 1233
Flags: W
LayerCount: 2
Fore
SplineSet
614 1438 m 1,0,-1
 614 1120 l 1,1,-1
 1032 1120 l 1,2,-1
 1032 977 l 1,3,-1
 614 977 l 1,4,-1
 614 369 l 2,5,6
 614 245 614 245 661 196 c 128,-1,7
 708 147 708 147 825 147 c 2,8,-1
 1032 147 l 1,9,-1
 1032 0 l 1,10,-1
 807 0 l 2,11,12
 600 0 600 0 515 83 c 128,-1,13
 430 166 430 166 430 369 c 2,14,-1
 430 977 l 1,15,-1
 131 977 l 1,16,-1
 131 1120 l 1,17,-1
 430 1120 l 1,18,-1
 430 1438 l 1,19,-1
 614 1438 l 1,0,-1
EndSplineSet
Validated: 1
EndChar

StartChar: u
Encoding: 117 117 116
Width: 1233
Flags: W
LayerCount: 2
Fore
SplineSet
195 424 m 2,0,-1
 195 1118 l 1,1,-1
 379 1118 l 1,2,-1
 379 424 l 2,3,4
 379 273 379 273 432.5 202 c 128,-1,5
 486 131 486 131 598 131 c 0,6,7
 728 131 728 131 797 222.5 c 128,-1,8
 866 314 866 314 866 485 c 2,9,-1
 866 1118 l 1,10,-1
 1051 1118 l 1,11,-1
 1051 0 l 1,12,-1
 866 0 l 1,13,-1
 866 168 l 1,14,15
 817 71 817 71 732.5 21 c 128,-1,16
 648 -29 648 -29 535 -29 c 0,17,18
 363 -29 363 -29 279 83.5 c 128,-1,19
 195 196 195 196 195 424 c 2,0,-1
EndSplineSet
Validated: 1
EndChar

StartChar: v
Encoding: 118 118 117
Width: 1233
Flags: W
LayerCount: 2
Fore
SplineSet
100 1120 m 1,0,-1
 291 1120 l 1,1,-1
 616 180 l 1,2,-1
 942 1120 l 1,3,-1
 1133 1120 l 1,4,-1
 735 0 l 1,5,-1
 498 0 l 1,6,-1
 100 1120 l 1,0,-1
EndSplineSet
Validated: 1
EndChar

StartChar: w
Encoding: 119 119 118
Width: 1233
Flags: W
LayerCount: 2
Fore
SplineSet
0 1120 m 1,0,-1
 182 1120 l 1,1,-1
 377 215 l 1,2,-1
 537 793 l 1,3,-1
 694 793 l 1,4,-1
 856 215 l 1,5,-1
 1051 1120 l 1,6,-1
 1233 1120 l 1,7,-1
 971 0 l 1,8,-1
 795 0 l 1,9,-1
 616 614 l 1,10,-1
 438 0 l 1,11,-1
 262 0 l 1,12,-1
 0 1120 l 1,0,-1
EndSplineSet
Validated: 1
EndChar

StartChar: x
Encoding: 120 120 119
Width: 1233
Flags: W
LayerCount: 2
Fore
SplineSet
1118 1120 m 1,0,-1
 717 584 l 1,1,-1
 1157 0 l 1,2,-1
 944 0 l 1,3,-1
 616 449 l 1,4,-1
 289 0 l 1,5,-1
 76 0 l 1,6,-1
 516 584 l 1,7,-1
 115 1120 l 1,8,-1
 319 1120 l 1,9,-1
 616 715 l 1,10,-1
 911 1120 l 1,11,-1
 1118 1120 l 1,0,-1
EndSplineSet
Validated: 1
EndChar

StartChar: y
Encoding: 121 121 120
Width: 1233
Flags: W
LayerCount: 2
Fore
SplineSet
858 360 m 2,0,1
 812 243 812 243 741 52 c 0,2,3
 642 -212 642 -212 608 -270 c 0,4,5
 562 -348 562 -348 493 -387 c 128,-1,6
 424 -426 424 -426 332 -426 c 2,7,-1
 184 -426 l 1,8,-1
 184 -272 l 1,9,-1
 293 -272 l 2,10,11
 374 -272 374 -272 420 -225 c 128,-1,12
 466 -178 466 -178 537 18 c 1,13,-1
 104 1120 l 1,14,-1
 299 1120 l 1,15,-1
 631 244 l 1,16,-1
 958 1120 l 1,17,-1
 1153 1120 l 1,18,-1
 858 360 l 2,0,1
EndSplineSet
Validated: 1
EndChar

StartChar: z
Encoding: 122 122 121
Width: 1233
Flags: W
LayerCount: 2
Fore
SplineSet
227 1122 m 1,0,-1
 1040 1122 l 1,1,-1
 1040 954 l 1,2,-1
 397 150 l 1,3,-1
 1040 150 l 1,4,-1
 1040 0 l 1,5,-1
 203 0 l 1,6,-1
 203 170 l 1,7,-1
 846 975 l 1,8,-1
 227 975 l 1,9,-1
 227 1122 l 1,0,-1
EndSplineSet
Validated: 1
EndChar

StartChar: braceleft
Encoding: 123 123 122
Width: 1233
Flags: W
LayerCount: 2
Fore
SplineSet
1012 -190 m 1,0,-1
 1012 -334 l 1,1,-1
 948 -334 l 2,2,3
 699 -334 699 -334 614.5 -260 c 128,-1,4
 530 -186 530 -186 530 35 c 2,5,-1
 530 274 l 2,6,7
 530 425 530 425 476.5 483 c 128,-1,8
 423 541 423 541 283 541 c 2,9,-1
 221 541 l 1,10,-1
 221 684 l 1,11,-1
 283 684 l 2,12,13
 424 684 424 684 477 741 c 128,-1,14
 530 798 530 798 530 948 c 2,15,-1
 530 1188 l 2,16,17
 530 1409 530 1409 614.5 1482.5 c 128,-1,18
 699 1556 699 1556 948 1556 c 2,19,-1
 1012 1556 l 1,20,-1
 1012 1413 l 1,21,-1
 942 1413 l 2,22,23
 802 1413 802 1413 759.5 1369.5 c 128,-1,24
 717 1326 717 1326 717 1184 c 2,25,-1
 717 936 l 2,26,27
 717 779 717 779 671.5 708 c 128,-1,28
 626 637 626 637 516 612 c 1,29,30
 627 585 627 585 672 514 c 128,-1,31
 717 443 717 443 717 287 c 2,32,-1
 717 39 l 2,33,34
 717 -104 717 -104 759.5 -147 c 128,-1,35
 802 -190 802 -190 942 -190 c 2,36,-1
 1012 -190 l 1,0,-1
EndSplineSet
Validated: 1
EndChar

StartChar: bar
Encoding: 124 124 123
Width: 1233
Flags: W
LayerCount: 2
Fore
SplineSet
702 1565 m 1,0,-1
 702 -483 l 1,1,-1
 530 -483 l 1,2,-1
 530 1565 l 1,3,-1
 702 1565 l 1,0,-1
EndSplineSet
Validated: 1
EndChar

StartChar: braceright
Encoding: 125 125 124
Width: 1233
Flags: W
LayerCount: 2
Fore
SplineSet
221 -190 m 1,0,-1
 289 -190 l 2,1,2
 430 -190 430 -190 473 -146 c 128,-1,3
 516 -102 516 -102 516 39 c 2,4,-1
 516 287 l 2,5,6
 516 443 516 443 561 514 c 128,-1,7
 606 585 606 585 717 612 c 1,8,9
 607 637 607 637 561.5 708 c 128,-1,10
 516 779 516 779 516 936 c 2,11,-1
 516 1184 l 2,12,13
 516 1325 516 1325 473 1369 c 128,-1,14
 430 1413 430 1413 289 1413 c 2,15,-1
 221 1413 l 1,16,-1
 221 1556 l 1,17,-1
 283 1556 l 2,18,19
 532 1556 532 1556 616 1482.5 c 128,-1,20
 700 1409 700 1409 700 1188 c 2,21,-1
 700 948 l 2,22,23
 700 798 700 798 753.5 741 c 128,-1,24
 807 684 807 684 948 684 c 2,25,-1
 1012 684 l 1,26,-1
 1012 541 l 1,27,-1
 948 541 l 2,28,29
 807 541 807 541 753.5 483 c 128,-1,30
 700 425 700 425 700 274 c 2,31,-1
 700 35 l 2,32,33
 700 -186 700 -186 616 -260 c 128,-1,34
 532 -334 532 -334 283 -334 c 2,35,-1
 221 -334 l 1,36,-1
 221 -190 l 1,0,-1
EndSplineSet
Validated: 1
EndChar

StartChar: asciitilde
Encoding: 126 126 125
Width: 1233
Flags: W
LayerCount: 2
Fore
SplineSet
1145 780 m 1,0,-1
 1145 606 l 1,1,2
 1070 547 1070 547 998.5 519.5 c 128,-1,3
 927 492 927 492 848 492 c 0,4,5
 758 492 758 492 645 543 c 0,6,7
 623 553 623 553 612 557 c 0,8,9
 535 590 535 590 483.5 602 c 128,-1,10
 432 614 432 614 381 614 c 0,11,12
 302 614 302 614 231.5 584.5 c 128,-1,13
 161 555 161 555 88 492 c 1,14,-1
 88 666 l 1,15,16
 166 726 166 726 239 753 c 128,-1,17
 312 780 312 780 395 780 c 0,18,19
 448 780 448 780 498 769 c 128,-1,20
 548 758 548 758 622 727 c 0,21,22
 634 722 634 722 655 712 c 0,23,24
 771 657 771 657 864 657 c 0,25,26
 934 657 934 657 1002.5 687.5 c 128,-1,27
 1071 718 1071 718 1145 780 c 1,0,-1
EndSplineSet
Validated: 1
EndChar

StartChar: uni007F
Encoding: 127 127 126
Width: 1233
Flags: W
LayerCount: 2
Fore
SplineSet
1098 0 m 1,0,-1
 136 0 l 1,1,-1
 136 703 l 1,2,-1
 617 1184 l 1,3,-1
 1098 703 l 1,4,-1
 1098 0 l 1,0,-1
950 148 m 1,5,-1
 950 643 l 1,6,-1
 617 976 l 1,7,-1
 284 643 l 1,8,-1
 284 148 l 1,9,-1
 950 148 l 1,5,-1
EndSplineSet
Validated: 1
EndChar

StartChar: notequal
Encoding: 8800 8800 130
Width: 1233
Flags: W
LayerCount: 2
Fore
SplineSet
88 930 m 1,0,-1
 735 930 l 1,1,-1
 981 1245 l 1,2,-1
 1106 1143 l 1,3,-1
 942 930 l 1,4,-1
 1145 930 l 1,5,-1
 1145 760 l 1,6,-1
 811 760 l 1,7,-1
 627 524 l 1,8,-1
 1145 524 l 1,9,-1
 1145 352 l 1,10,-1
 498 352 l 1,11,-1
 250 37 l 1,12,-1
 125 141 l 1,13,-1
 289 352 l 1,14,-1
 88 352 l 1,15,-1
 88 524 l 1,16,-1
 418 524 l 1,17,-1
 602 760 l 1,18,-1
 88 760 l 1,19,-1
 88 930 l 1,0,-1
EndSplineSet
Validated: 1
EndChar

StartChar: infinity
Encoding: 8734 8734 131
Width: 1233
Flags: W
LayerCount: 2
Fore
SplineSet
694 627 m 1,0,1
 751 491 751 491 796.5 441 c 128,-1,2
 842 391 842 391 903 391 c 0,3,4
 974 391 974 391 1019.5 458 c 128,-1,5
 1065 525 1065 525 1065 633 c 0,6,7
 1065 740 1065 740 1023 804 c 128,-1,8
 981 868 981 868 911 868 c 0,9,10
 845 868 845 868 792.5 809.5 c 128,-1,11
 740 751 740 751 694 627 c 1,0,1
537 635 m 1,12,13
 481 769 481 769 435 818.5 c 128,-1,14
 389 868 389 868 328 868 c 0,15,16
 257 868 257 868 211.5 801.5 c 128,-1,17
 166 735 166 735 166 629 c 0,18,19
 166 520 166 520 207.5 455.5 c 128,-1,20
 249 391 249 391 317 391 c 0,21,22
 384 391 384 391 437 450 c 128,-1,23
 490 509 490 509 537 635 c 1,12,13
616 764 m 1,24,25
 663 881 663 881 736.5 944.5 c 128,-1,26
 810 1008 810 1008 901 1008 c 0,27,28
 1020 1008 1020 1008 1106 898.5 c 128,-1,29
 1192 789 1192 789 1192 629 c 0,30,31
 1192 462 1192 462 1110.5 356 c 128,-1,32
 1029 250 1029 250 903 250 c 0,33,34
 820 250 820 250 756 300 c 128,-1,35
 692 350 692 350 614 481 c 1,36,37
 549 357 549 357 483 303.5 c 128,-1,38
 417 250 417 250 332 250 c 0,39,40
 207 250 207 250 124 357 c 128,-1,41
 41 464 41 464 41 629 c 0,42,43
 41 802 41 802 119.5 905 c 128,-1,44
 198 1008 198 1008 330 1008 c 0,45,46
 424 1008 424 1008 492 950.5 c 128,-1,47
 560 893 560 893 616 764 c 1,24,25
EndSplineSet
Validated: 1
EndChar

StartChar: lessequal
Encoding: 8804 8804 132
Width: 1233
Flags: W
LayerCount: 2
Fore
SplineSet
1143 438 m 1,0,-1
 1143 256 l 1,1,-1
 86 588 l 1,2,-1
 86 756 l 1,3,-1
 1143 1087 l 1,4,-1
 1143 903 l 1,5,-1
 342 672 l 1,6,-1
 1143 438 l 1,0,-1
1143 170 m 1,7,-1
 1143 0 l 1,8,-1
 86 0 l 1,9,-1
 86 170 l 1,10,-1
 1143 170 l 1,7,-1
EndSplineSet
Validated: 1
EndChar

StartChar: greaterequal
Encoding: 8805 8805 133
Width: 1233
Flags: W
LayerCount: 2
Fore
SplineSet
88 438 m 1,0,-1
 891 672 l 1,1,-1
 88 903 l 1,2,-1
 88 1087 l 1,3,-1
 1145 756 l 1,4,-1
 1145 588 l 1,5,-1
 88 256 l 1,6,-1
 88 438 l 1,0,-1
88 170 m 1,7,-1
 1145 170 l 1,8,-1
 1145 0 l 1,9,-1
 88 0 l 1,10,-1
 88 170 l 1,7,-1
EndSplineSet
Validated: 1
EndChar

StartChar: partialdiff
Encoding: 8706 8706 134
Width: 1233
Flags: W
LayerCount: 2
Fore
SplineSet
842 621 m 1,0,1
 857 708 857 708 864.5 789.5 c 128,-1,2
 872 871 872 871 872 946 c 0,3,4
 872 1075 872 1075 835.5 1140.5 c 128,-1,5
 799 1206 799 1206 727 1206 c 0,6,7
 672 1206 672 1206 600 1148 c 128,-1,8
 528 1090 528 1090 492 1090 c 256,9,10
 456 1090 456 1090 432 1112 c 128,-1,11
 408 1134 408 1134 408 1165 c 0,12,13
 408 1227 408 1227 480 1276 c 128,-1,14
 552 1325 552 1325 653 1325 c 0,15,16
 833 1325 833 1325 940 1170 c 128,-1,17
 1047 1015 1047 1015 1047 752 c 0,18,19
 1047 417 1047 417 902.5 196 c 128,-1,20
 758 -25 758 -25 545 -25 c 0,21,22
 393 -25 393 -25 291.5 83 c 128,-1,23
 190 191 190 191 190 354 c 0,24,25
 190 552 190 552 300.5 680.5 c 128,-1,26
 411 809 411 809 573 809 c 0,27,28
 674 809 674 809 739 763.5 c 128,-1,29
 804 718 804 718 842 621 c 1,0,1
793 494 m 0,30,31
 793 610 793 610 749.5 672.5 c 128,-1,32
 706 735 706 735 627 735 c 0,33,34
 518 735 518 735 447.5 606 c 128,-1,35
 377 477 377 477 377 270 c 0,36,37
 377 154 377 154 420 92.5 c 128,-1,38
 463 31 463 31 543 31 c 0,39,40
 652 31 652 31 722.5 161 c 128,-1,41
 793 291 793 291 793 494 c 0,30,31
EndSplineSet
Validated: 1
EndChar

StartChar: summation
Encoding: 8721 8721 135
Width: 1233
Flags: W
LayerCount: 2
Fore
SplineSet
332 -299 m 1,0,-1
 1085 -299 l 1,1,-1
 1085 -436 l 1,2,-1
 143 -436 l 1,3,-1
 143 -344 l 1,4,-1
 692 575 l 1,5,-1
 143 1423 l 1,6,-1
 143 1518 l 1,7,-1
 1065 1518 l 1,8,-1
 1065 1378 l 1,9,-1
 332 1378 l 1,10,-1
 854 575 l 1,11,-1
 332 -299 l 1,0,-1
EndSplineSet
Validated: 1
EndChar

StartChar: product
Encoding: 8719 8719 136
Width: 1233
Flags: W
LayerCount: 2
Fore
SplineSet
152 -436 m 1,0,-1
 152 1518 l 1,1,-1
 1081 1518 l 1,2,-1
 1081 -436 l 1,3,-1
 926 -436 l 1,4,-1
 926 1386 l 1,5,-1
 307 1386 l 1,6,-1
 307 -436 l 1,7,-1
 152 -436 l 1,0,-1
EndSplineSet
Validated: 1
EndChar

StartChar: pi
Encoding: 960 960 137
Width: 1233
Flags: W
LayerCount: 2
Fore
SplineSet
80 1100 m 1,0,-1
 1153 1100 l 1,1,-1
 1153 952 l 1,2,-1
 1012 952 l 1,3,-1
 1012 248 l 2,4,5
 1012 176 1012 176 1036.5 144.5 c 128,-1,6
 1061 113 1061 113 1116 113 c 0,7,8
 1131 113 1131 113 1153 115.5 c 128,-1,9
 1175 118 1175 118 1182 119 c 1,10,-1
 1182 -14 l 1,11,12
 1147 -27 1147 -27 1110 -33 c 128,-1,13
 1073 -39 1073 -39 1036 -39 c 0,14,15
 923 -39 923 -39 877 26.5 c 128,-1,16
 831 92 831 92 831 268 c 2,17,-1
 831 952 l 1,18,-1
 403 952 l 1,19,-1
 403 0 l 1,20,-1
 223 0 l 1,21,-1
 223 952 l 1,22,-1
 80 952 l 1,23,-1
 80 1100 l 1,0,-1
EndSplineSet
Validated: 1
EndChar

StartChar: integral
Encoding: 8747 8747 138
Width: 1233
Flags: W
LayerCount: 2
Fore
SplineSet
393 -262 m 0,0,1
 499 -262 499 -262 513 426 c 0,2,3
 515 534 515 534 516 591 c 0,4,5
 528 1106 528 1106 623 1328 c 128,-1,6
 718 1550 718 1550 920 1550 c 0,7,8
 1000 1550 1000 1550 1050 1508 c 128,-1,9
 1100 1466 1100 1466 1100 1401 c 0,10,11
 1100 1347 1100 1347 1068 1315.5 c 128,-1,12
 1036 1284 1036 1284 981 1284 c 0,13,14
 939 1284 939 1284 910.5 1303 c 128,-1,15
 882 1322 882 1322 871 1357 c 0,16,17
 865 1372 865 1372 860.5 1408 c 128,-1,18
 856 1444 856 1444 840 1444 c 0,19,20
 733 1444 733 1444 719 825 c 0,21,22
 715 632 715 632 711 522 c 0,23,24
 694 43 694 43 599.5 -164 c 128,-1,25
 505 -371 505 -371 309 -371 c 0,26,27
 230 -371 230 -371 179.5 -329.5 c 128,-1,28
 129 -288 129 -288 129 -223 c 0,29,30
 129 -167 129 -167 163 -135.5 c 128,-1,31
 197 -104 197 -104 258 -104 c 0,32,33
 291 -104 291 -104 315 -118.5 c 128,-1,34
 339 -133 339 -133 354 -161 c 0,35,36
 363 -178 363 -178 368.5 -220 c 128,-1,37
 374 -262 374 -262 393 -262 c 0,0,1
EndSplineSet
Validated: 1
EndChar

StartChar: uni03A9
Encoding: 937 937 139
Width: 1233
Flags: W
LayerCount: 2
Fore
SplineSet
74 0 m 1,0,-1
 74 172 l 1,1,-1
 319 172 l 1,2,3
 196 306 196 306 141 450 c 128,-1,4
 86 594 86 594 86 782 c 0,5,6
 86 1093 86 1093 230 1276.5 c 128,-1,7
 374 1460 374 1460 614 1460 c 0,8,9
 856 1460 856 1460 1000.5 1277 c 128,-1,10
 1145 1094 1145 1094 1145 782 c 0,11,12
 1145 594 1145 594 1089.5 449.5 c 128,-1,13
 1034 305 1034 305 911 172 c 1,14,-1
 1159 172 l 1,15,-1
 1159 0 l 1,16,-1
 696 0 l 1,17,-1
 696 172 l 1,18,19
 816 248 816 248 883 412.5 c 128,-1,20
 950 577 950 577 950 799 c 0,21,22
 950 1029 950 1029 860 1161.5 c 128,-1,23
 770 1294 770 1294 616 1294 c 256,24,25
 462 1294 462 1294 372.5 1161.5 c 128,-1,26
 283 1029 283 1029 283 799 c 0,27,28
 283 577 283 577 350 412.5 c 128,-1,29
 417 248 417 248 537 172 c 1,30,-1
 537 0 l 1,31,-1
 74 0 l 1,0,-1
EndSplineSet
Validated: 1
EndChar

StartChar: radical
Encoding: 8730 8730 140
Width: 1233
Flags: W
LayerCount: 2
Fore
SplineSet
100 733 m 1,0,-1
 59 858 l 1,1,-1
 350 956 l 1,2,-1
 569 225 l 1,3,-1
 1036 1696 l 1,4,-1
 1184 1696 l 1,5,-1
 1184 1565 l 1,6,-1
 1137 1565 l 1,7,-1
 631 -39 l 1,8,-1
 504 -39 l 1,9,-1
 258 786 l 1,10,-1
 100 733 l 1,0,-1
EndSplineSet
Validated: 1
EndChar

StartChar: approxequal
Encoding: 8776 8776 142
Width: 1233
Flags: W
LayerCount: 2
Fore
SplineSet
1145 963 m 1,0,-1
 1145 788 l 1,1,2
 1070 729 1070 729 998.5 701.5 c 128,-1,3
 927 674 927 674 848 674 c 0,4,5
 758 674 758 674 645 725 c 0,6,7
 623 735 623 735 612 739 c 0,8,9
 535 773 535 773 483.5 785 c 128,-1,10
 432 797 432 797 381 797 c 0,11,12
 302 797 302 797 231.5 767.5 c 128,-1,13
 161 738 161 738 88 674 c 1,14,-1
 88 848 l 1,15,16
 166 908 166 908 239 935.5 c 128,-1,17
 312 963 312 963 395 963 c 0,18,19
 448 963 448 963 498 952 c 128,-1,20
 548 941 548 941 623 909 c 0,21,22
 633 905 633 905 655 894 c 0,23,24
 771 840 771 840 864 840 c 0,25,26
 934 840 934 840 1002.5 870 c 128,-1,27
 1071 900 1071 900 1145 963 c 1,0,-1
1145 596 m 1,28,-1
 1145 420 l 1,29,30
 1070 361 1070 361 998.5 333 c 128,-1,31
 927 305 927 305 848 305 c 0,32,33
 758 305 758 305 645 356 c 0,34,35
 623 366 623 366 612 371 c 0,36,37
 529 407 529 407 479.5 418.5 c 128,-1,38
 430 430 430 430 381 430 c 0,39,40
 303 430 303 430 232.5 400 c 128,-1,41
 162 370 162 370 88 305 c 1,42,-1
 88 479 l 1,43,44
 167 541 167 541 240 568.5 c 128,-1,45
 313 596 313 596 395 596 c 0,46,47
 491 596 491 596 621 541 c 1,48,-1
 622 541 l 1,49,50
 633 536 633 536 655 526 c 0,51,52
 771 471 771 471 864 471 c 0,53,54
 932 471 932 471 1001 501.5 c 128,-1,55
 1070 532 1070 532 1145 596 c 1,28,-1
EndSplineSet
Validated: 1
EndChar

StartChar: Delta
Encoding: 8710 8710 143
Width: 1233
Flags: W
LayerCount: 2
Fore
SplineSet
-6 0 m 1,0,-1
 512 1423 l 1,1,-1
 721 1423 l 1,2,-1
 1241 0 l 1,3,-1
 -6 0 l 1,0,-1
616 1219 m 1,4,-1
 248 172 l 1,5,-1
 985 172 l 1,6,-1
 616 1219 l 1,4,-1
EndSplineSet
Validated: 1
EndChar

StartChar: lozenge
Encoding: 9674 9674 146
Width: 1233
Flags: W
LayerCount: 2
Fore
SplineSet
616 1409 m 1,0,-1
 231 592 l 1,1,-1
 616 -233 l 1,2,-1
 1001 592 l 1,3,-1
 616 1409 l 1,0,-1
616 1653 m 1,4,-1
 1116 592 l 1,5,-1
 616 -477 l 1,6,-1
 117 592 l 1,7,-1
 616 1653 l 1,4,-1
EndSplineSet
Validated: 1
EndChar

StartChar: uni2215
Encoding: 8725 8725 147
Width: 1233
Flags: W
LayerCount: 2
Fore
SplineSet
889 1493 m 1,0,-1
 1079 1493 l 1,1,-1
 293 -190 l 1,2,-1
 102 -190 l 1,3,-1
 889 1493 l 1,0,-1
EndSplineSet
Validated: 1
EndChar

StartChar: uniFB01
Encoding: 64257 64257 149
Width: 1233
Flags: W
LayerCount: 2
Fore
SplineSet
895 1554 m 1,0,-1
 1079 1554 l 1,1,-1
 1079 1321 l 1,2,-1
 895 1321 l 1,3,-1
 895 1554 l 1,0,-1
776 1556 m 1,4,-1
 776 1403 l 1,5,-1
 596 1403 l 2,6,7
 497 1403 497 1403 458.5 1362.5 c 128,-1,8
 420 1322 420 1322 420 1219 c 2,9,-1
 420 1118 l 1,10,-1
 1079 1118 l 1,11,-1
 1079 0 l 1,12,-1
 895 0 l 1,13,-1
 895 977 l 1,14,-1
 420 977 l 1,15,-1
 420 0 l 1,16,-1
 236 0 l 1,17,-1
 236 977 l 1,18,-1
 35 977 l 1,19,-1
 35 1120 l 1,20,-1
 236 1120 l 1,21,-1
 236 1198 l 2,22,23
 236 1382 236 1382 320.5 1469 c 128,-1,24
 405 1556 405 1556 584 1556 c 2,25,-1
 776 1556 l 1,4,-1
EndSplineSet
Validated: 1
EndChar

StartChar: uniFB02
Encoding: 64258 64258 150
Width: 1233
Flags: W
LayerCount: 2
Fore
SplineSet
1079 1556 m 1,0,-1
 1079 0 l 1,1,-1
 895 0 l 1,2,-1
 895 1403 l 1,3,-1
 596 1403 l 2,4,5
 497 1403 497 1403 458.5 1362.5 c 128,-1,6
 420 1322 420 1322 420 1219 c 2,7,-1
 420 1118 l 1,8,-1
 713 1118 l 1,9,-1
 713 977 l 1,10,-1
 420 977 l 1,11,-1
 420 0 l 1,12,-1
 236 0 l 1,13,-1
 236 977 l 1,14,-1
 35 977 l 1,15,-1
 35 1120 l 1,16,-1
 236 1120 l 1,17,-1
 236 1198 l 2,18,19
 236 1382 236 1382 320.5 1469 c 128,-1,20
 405 1556 405 1556 584 1556 c 2,21,-1
 1079 1556 l 1,0,-1
EndSplineSet
Validated: 1
EndChar

StartChar: dotlessi
Encoding: 305 305 155
Width: 1233
Flags: W
LayerCount: 2
Fore
SplineSet
256 1120 m 1,0,-1
 727 1120 l 1,1,-1
 727 143 l 1,2,-1
 1092 143 l 1,3,-1
 1092 0 l 1,4,-1
 178 0 l 1,5,-1
 178 143 l 1,6,-1
 543 143 l 1,7,-1
 543 977 l 1,8,-1
 256 977 l 1,9,-1
 256 1120 l 1,0,-1
EndSplineSet
Validated: 1
EndChar

StartChar: dotaccent
Encoding: 729 729 157
Width: 1233
Flags: W
LayerCount: 2
Fore
SplineSet
514 1552 m 1,0,-1
 719 1552 l 1,1,-1
 719 1348 l 1,2,-1
 514 1348 l 1,3,-1
 514 1552 l 1,0,-1
EndSplineSet
Validated: 1
EndChar

StartChar: ring
Encoding: 730 730 158
Width: 1233
Flags: W
LayerCount: 2
Fore
SplineSet
891 1524 m 256,0,1
 891 1409 891 1409 811.5 1329 c 128,-1,2
 732 1249 732 1249 616 1249 c 0,3,4
 501 1249 501 1249 421.5 1329 c 128,-1,5
 342 1409 342 1409 342 1524 c 256,6,7
 342 1639 342 1639 421.5 1718.5 c 128,-1,8
 501 1798 501 1798 616 1798 c 0,9,10
 732 1798 732 1798 811.5 1718.5 c 128,-1,11
 891 1639 891 1639 891 1524 c 256,0,1
768 1524 m 0,12,13
 768 1587 768 1587 724 1631 c 128,-1,14
 680 1675 680 1675 616 1675 c 256,15,16
 552 1675 552 1675 508.5 1631.5 c 128,-1,17
 465 1588 465 1588 465 1524 c 0,18,19
 465 1459 465 1459 508.5 1415.5 c 128,-1,20
 552 1372 552 1372 616 1372 c 256,21,22
 680 1372 680 1372 724 1416 c 128,-1,23
 768 1460 768 1460 768 1524 c 0,12,13
EndSplineSet
Validated: 1
EndChar

StartChar: hungarumlaut
Encoding: 733 733 159
Width: 1233
Flags: W
LayerCount: 2
Fore
SplineSet
535 1638 m 1,0,-1
 705 1638 l 1,1,-1
 481 1262 l 1,2,-1
 344 1262 l 1,3,-1
 535 1638 l 1,0,-1
868 1638 m 1,4,-1
 1047 1638 l 1,5,-1
 799 1262 l 1,6,-1
 664 1262 l 1,7,-1
 868 1638 l 1,4,-1
EndSplineSet
Validated: 1
EndChar

StartChar: ogonek
Encoding: 731 731 160
Width: 1233
Flags: W
LayerCount: 2
Fore
SplineSet
528 0 m 1,0,-1
 647 0 l 1,1,2
 602 -61 602 -61 580.5 -105 c 128,-1,3
 559 -149 559 -149 559 -180 c 0,4,5
 559 -226 559 -226 586.5 -249 c 128,-1,6
 614 -272 614 -272 668 -272 c 0,7,8
 700 -272 700 -272 731 -264.5 c 128,-1,9
 762 -257 762 -257 793 -242 c 1,10,-1
 793 -375 l 1,11,12
 755 -385 755 -385 721 -390 c 128,-1,13
 687 -395 687 -395 657 -395 c 0,14,15
 535 -395 535 -395 477.5 -351.5 c 128,-1,16
 420 -308 420 -308 420 -215 c 0,17,18
 420 -167 420 -167 446.5 -114.5 c 128,-1,19
 473 -62 473 -62 528 0 c 1,0,-1
EndSplineSet
Validated: 1
EndChar

StartChar: caron
Encoding: 711 711 161
Width: 1233
Flags: W
LayerCount: 2
Fore
SplineSet
543 1262 m 1,0,-1
 297 1638 l 1,1,-1
 436 1638 l 1,2,-1
 616 1393 l 1,3,-1
 797 1638 l 1,4,-1
 936 1638 l 1,5,-1
 690 1262 l 1,6,-1
 543 1262 l 1,0,-1
EndSplineSet
Validated: 1
EndChar

StartChar: Lslash
Encoding: 321 321 162
Width: 1233
Flags: W
LayerCount: 2
Fore
SplineSet
215 1493 m 1,0,-1
 418 1493 l 1,1,-1
 418 877 l 1,2,-1
 733 1096 l 1,3,-1
 811 985 l 1,4,-1
 418 711 l 1,5,-1
 418 170 l 1,6,-1
 1139 170 l 1,7,-1
 1139 0 l 1,8,-1
 215 0 l 1,9,-1
 215 571 l 1,10,-1
 70 465 l 1,11,-1
 -10 575 l 1,12,-1
 215 733 l 1,13,-1
 215 1493 l 1,0,-1
EndSplineSet
Validated: 1
EndChar

StartChar: lslash
Encoding: 322 322 163
Width: 1233
Flags: W
LayerCount: 2
Fore
SplineSet
639 406 m 2,0,1
 639 282 639 282 684.5 219 c 128,-1,2
 730 156 730 156 819 156 c 2,3,-1
 1034 156 l 1,4,-1
 1034 0 l 1,5,-1
 801 0 l 2,6,7
 636 0 636 0 545.5 106 c 128,-1,8
 455 212 455 212 455 406 c 2,9,-1
 455 698 l 1,10,-1
 156 489 l 1,11,-1
 76 600 l 1,12,-1
 455 864 l 1,13,-1
 455 1423 l 1,14,-1
 160 1423 l 1,15,-1
 160 1567 l 1,16,-1
 639 1567 l 1,17,-1
 639 989 l 1,18,-1
 954 1208 l 1,19,-1
 1034 1098 l 1,20,-1
 639 823 l 1,21,-1
 639 406 l 2,0,1
EndSplineSet
Validated: 1
EndChar

StartChar: minus
Encoding: 8722 8722 164
Width: 1233
Flags: W
LayerCount: 2
Fore
SplineSet
88 727 m 1,0,-1
 1145 727 l 1,1,-1
 1145 557 l 1,2,-1
 88 557 l 1,3,-1
 88 727 l 1,0,-1
EndSplineSet
Validated: 1
EndChar

StartChar: Gbreve
Encoding: 286 286 165
Width: 1233
Flags: W
LayerCount: 2
Fore
SplineSet
1104 123 m 1,0,1
 1023 48 1023 48 921.5 9.5 c 128,-1,2
 820 -29 820 -29 702 -29 c 0,3,4
 418 -29 418 -29 260 174.5 c 128,-1,5
 102 378 102 378 102 745 c 0,6,7
 102 1111 102 1111 262 1315.5 c 128,-1,8
 422 1520 422 1520 707 1520 c 0,9,10
 801 1520 801 1520 887 1493.5 c 128,-1,11
 973 1467 973 1467 1053 1413 c 1,12,-1
 1053 1206 l 1,13,14
 972 1283 972 1283 887 1319.5 c 128,-1,15
 802 1356 802 1356 707 1356 c 0,16,17
 510 1356 510 1356 411.5 1203.5 c 128,-1,18
 313 1051 313 1051 313 745 c 0,19,20
 313 434 313 434 408.5 284.5 c 128,-1,21
 504 135 504 135 702 135 c 0,22,23
 769 135 769 135 819.5 150.5 c 128,-1,24
 870 166 870 166 911 199 c 1,25,-1
 911 600 l 1,26,-1
 694 600 l 1,27,-1
 694 766 l 1,28,-1
 1104 766 l 1,29,-1
 1104 123 l 1,0,1
303 1901 m 1,30,-1
 422 1901 l 1,31,32
 434 1847 434 1847 484 1818.5 c 128,-1,33
 534 1790 534 1790 616 1790 c 0,34,35
 699 1790 699 1790 747.5 1817.5 c 128,-1,36
 796 1845 796 1845 811 1901 c 1,37,-1
 930 1901 l 1,38,39
 919 1782 919 1782 839.5 1720.5 c 128,-1,40
 760 1659 760 1659 616 1659 c 256,41,42
 472 1659 472 1659 393 1720 c 128,-1,43
 314 1781 314 1781 303 1901 c 1,30,-1
EndSplineSet
Validated: 1
EndChar

StartChar: Idotaccent
Encoding: 304 304 167
Width: 1233
Flags: W
LayerCount: 2
Fore
SplineSet
201 1493 m 1,0,-1
 1030 1493 l 1,1,-1
 1030 1323 l 1,2,-1
 717 1323 l 1,3,-1
 717 170 l 1,4,-1
 1030 170 l 1,5,-1
 1030 0 l 1,6,-1
 201 0 l 1,7,-1
 201 170 l 1,8,-1
 514 170 l 1,9,-1
 514 1323 l 1,10,-1
 201 1323 l 1,11,-1
 201 1493 l 1,0,-1
514 1872 m 1,12,-1
 719 1872 l 1,13,-1
 719 1667 l 1,14,-1
 514 1667 l 1,15,-1
 514 1872 l 1,12,-1
EndSplineSet
Validated: 1
EndChar

StartChar: Scedilla
Encoding: 350 350 168
Width: 1233
Flags: W
LayerCount: 2
Fore
SplineSet
1012 1442 m 1,0,-1
 1012 1237 l 1,1,2
 920 1296 920 1296 827.5 1326 c 128,-1,3
 735 1356 735 1356 641 1356 c 0,4,5
 498 1356 498 1356 415 1289.5 c 128,-1,6
 332 1223 332 1223 332 1110 c 0,7,8
 332 1011 332 1011 386.5 959 c 128,-1,9
 441 907 441 907 590 872 c 2,10,-1
 696 848 l 2,11,12
 906 799 906 799 1002 694 c 128,-1,13
 1098 589 1098 589 1098 408 c 0,14,15
 1098 195 1098 195 966 83 c 0,16,17
 872 3 872 3 717 -20 c 1,18,19
 760 -70 760 -70 782 -114 c 0,20,21
 808 -166 808 -166 809 -215 c 0,22,23
 809 -304 809 -304 749 -349.5 c 128,-1,24
 689 -395 689 -395 571 -395 c 0,25,26
 526 -395 526 -395 482.5 -389 c 128,-1,27
 439 -383 439 -383 395 -371 c 1,28,-1
 395 -240 l 1,29,30
 429 -257 429 -257 466.5 -264.5 c 128,-1,31
 504 -272 504 -272 551 -272 c 0,32,33
 609 -272 609 -272 639.5 -248 c 128,-1,34
 670 -224 670 -224 670 -178 c 0,35,36
 670 -148 670 -148 648 -104 c 0,37,38
 631 -71 631 -71 602 -29 c 1,39,40
 592 -29 592 -29 582 -29 c 0,41,42
 477 -29 477 -29 371 -6.5 c 128,-1,43
 265 16 265 16 158 61 c 1,44,-1
 158 276 l 1,45,46
 273 203 273 203 375.5 169 c 128,-1,47
 478 135 478 135 582 135 c 0,48,49
 735 135 735 135 820 203.5 c 128,-1,50
 905 272 905 272 905 395 c 0,51,52
 905 507 905 507 846.5 566 c 128,-1,53
 788 625 788 625 643 657 c 2,54,-1
 535 682 l 2,55,56
 327 729 327 729 233 824 c 128,-1,57
 139 919 139 919 139 1079 c 0,58,59
 139 1279 139 1279 273.5 1399.5 c 128,-1,60
 408 1520 408 1520 631 1520 c 0,61,62
 717 1520 717 1520 812 1500.5 c 128,-1,63
 907 1481 907 1481 1012 1442 c 1,0,-1
EndSplineSet
Validated: 1
EndChar

StartChar: scedilla
Encoding: 351 351 169
Width: 1233
Flags: W
LayerCount: 2
Fore
SplineSet
973 1081 m 1,0,-1
 973 901 l 1,1,2
 894 947 894 947 814 970 c 128,-1,3
 734 993 734 993 651 993 c 0,4,5
 526 993 526 993 464.5 952.5 c 128,-1,6
 403 912 403 912 403 829 c 0,7,8
 403 754 403 754 449 717 c 128,-1,9
 495 680 495 680 678 645 c 2,10,-1
 752 631 l 2,11,12
 889 605 889 605 959.5 527 c 128,-1,13
 1030 449 1030 449 1030 324 c 0,14,15
 1030 158 1030 158 912 64 c 0,16,17
 834 2 834 2 716 -18 c 1,18,19
 760 -70 760 -70 782 -114 c 0,20,21
 808 -166 808 -166 809 -215 c 0,22,23
 809 -304 809 -304 749 -349.5 c 128,-1,24
 689 -395 689 -395 571 -395 c 0,25,26
 526 -395 526 -395 482.5 -389 c 128,-1,27
 439 -383 439 -383 395 -371 c 1,28,-1
 395 -240 l 1,29,30
 429 -257 429 -257 466.5 -264.5 c 128,-1,31
 504 -272 504 -272 551 -272 c 0,32,33
 609 -272 609 -272 639.5 -248 c 128,-1,34
 670 -224 670 -224 670 -178 c 0,35,36
 670 -148 670 -148 648 -104 c 0,37,38
 631 -71 631 -71 602 -29 c 1,39,40
 593 -29 593 -29 584 -29 c 0,41,42
 501 -29 501 -29 410 -11.5 c 128,-1,43
 319 6 319 6 213 41 c 1,44,-1
 213 231 l 1,45,46
 316 178 316 178 410 151.5 c 128,-1,47
 504 125 504 125 588 125 c 0,48,49
 710 125 710 125 777 174.5 c 128,-1,50
 844 224 844 224 844 313 c 0,51,52
 844 441 844 441 599 490 c 1,53,-1
 591 492 l 1,54,-1
 522 506 l 2,55,56
 363 537 363 537 290 610.5 c 128,-1,57
 217 684 217 684 217 811 c 0,58,59
 217 972 217 972 326 1059.5 c 128,-1,60
 435 1147 435 1147 637 1147 c 0,61,62
 727 1147 727 1147 810 1130.5 c 128,-1,63
 893 1114 893 1114 973 1081 c 1,0,-1
EndSplineSet
Validated: 1
EndChar

StartChar: Cacute
Encoding: 262 262 170
Width: 1233
Flags: W
LayerCount: 2
Fore
SplineSet
1073 53 m 1,0,1
 996 12 996 12 915 -8.5 c 128,-1,2
 834 -29 834 -29 743 -29 c 0,3,4
 456 -29 456 -29 297.5 174 c 128,-1,5
 139 377 139 377 139 745 c 0,6,7
 139 1111 139 1111 298.5 1315.5 c 128,-1,8
 458 1520 458 1520 743 1520 c 0,9,10
 834 1520 834 1520 915 1499.5 c 128,-1,11
 996 1479 996 1479 1073 1438 c 1,12,-1
 1073 1231 l 1,13,14
 999 1292 999 1292 914 1324 c 128,-1,15
 829 1356 829 1356 743 1356 c 0,16,17
 546 1356 546 1356 448 1204 c 128,-1,18
 350 1052 350 1052 350 745 c 0,19,20
 350 439 350 439 448 287 c 128,-1,21
 546 135 546 135 743 135 c 0,22,23
 831 135 831 135 915.5 167 c 128,-1,24
 1000 199 1000 199 1073 260 c 1,25,-1
 1073 53 l 1,0,1
762 1899 m 1,26,-1
 948 1899 l 1,27,-1
 719 1635 l 1,28,-1
 565 1635 l 1,29,-1
 762 1899 l 1,26,-1
EndSplineSet
Validated: 1
EndChar

StartChar: cacute
Encoding: 263 263 171
Width: 1233
Flags: W
LayerCount: 2
Fore
SplineSet
1061 57 m 1,0,1
 987 14 987 14 908.5 -7.5 c 128,-1,2
 830 -29 830 -29 748 -29 c 0,3,4
 488 -29 488 -29 341.5 127 c 128,-1,5
 195 283 195 283 195 559 c 256,6,7
 195 835 195 835 341.5 991 c 128,-1,8
 488 1147 488 1147 748 1147 c 0,9,10
 829 1147 829 1147 906 1126 c 128,-1,11
 983 1105 983 1105 1061 1061 c 1,12,-1
 1061 868 l 1,13,14
 988 933 988 933 914.5 962 c 128,-1,15
 841 991 841 991 748 991 c 0,16,17
 575 991 575 991 482 879 c 128,-1,18
 389 767 389 767 389 559 c 0,19,20
 389 352 389 352 482.5 239.5 c 128,-1,21
 576 127 576 127 748 127 c 0,22,23
 844 127 844 127 920 156.5 c 128,-1,24
 996 186 996 186 1061 248 c 1,25,-1
 1061 57 l 1,0,1
846 1638 m 1,26,-1
 1044 1638 l 1,27,-1
 719 1262 l 1,28,-1
 565 1262 l 1,29,-1
 846 1638 l 1,26,-1
EndSplineSet
Validated: 1
EndChar

StartChar: Ccaron
Encoding: 268 268 172
Width: 1233
Flags: W
LayerCount: 2
Fore
SplineSet
1073 53 m 1,0,1
 996 12 996 12 915 -8.5 c 128,-1,2
 834 -29 834 -29 743 -29 c 0,3,4
 456 -29 456 -29 297.5 174 c 128,-1,5
 139 377 139 377 139 745 c 0,6,7
 139 1111 139 1111 298.5 1315.5 c 128,-1,8
 458 1520 458 1520 743 1520 c 0,9,10
 834 1520 834 1520 915 1499.5 c 128,-1,11
 996 1479 996 1479 1073 1438 c 1,12,-1
 1073 1231 l 1,13,14
 999 1292 999 1292 914 1324 c 128,-1,15
 829 1356 829 1356 743 1356 c 0,16,17
 546 1356 546 1356 448 1204 c 128,-1,18
 350 1052 350 1052 350 745 c 0,19,20
 350 439 350 439 448 287 c 128,-1,21
 546 135 546 135 743 135 c 0,22,23
 831 135 831 135 915.5 167 c 128,-1,24
 1000 199 1000 199 1073 260 c 1,25,-1
 1073 53 l 1,0,1
612 1635 m 1,26,-1
 401 1901 l 1,27,-1
 541 1901 l 1,28,-1
 706 1723 l 1,29,-1
 872 1901 l 1,30,-1
 1012 1901 l 1,31,-1
 801 1635 l 1,32,-1
 612 1635 l 1,26,-1
EndSplineSet
Validated: 1
EndChar

StartChar: dcroat
Encoding: 273 273 174
Width: 1233
Flags: W
LayerCount: 2
Fore
SplineSet
858 977 m 1,0,-1
 858 1286 l 1,1,-1
 553 1286 l 1,2,-1
 553 1407 l 1,3,-1
 858 1407 l 1,4,-1
 858 1556 l 1,5,-1
 1042 1556 l 1,6,-1
 1042 1407 l 1,7,-1
 1233 1407 l 1,8,-1
 1233 1286 l 1,9,-1
 1042 1286 l 1,10,-1
 1042 0 l 1,11,-1
 858 0 l 1,12,-1
 858 141 l 1,13,14
 812 58 812 58 735.5 14.5 c 128,-1,15
 659 -29 659 -29 559 -29 c 0,16,17
 356 -29 356 -29 239.5 128.5 c 128,-1,18
 123 286 123 286 123 563 c 0,19,20
 123 836 123 836 240 991.5 c 128,-1,21
 357 1147 357 1147 559 1147 c 0,22,23
 660 1147 660 1147 737 1103.5 c 128,-1,24
 814 1060 814 1060 858 977 c 1,0,-1
317 559 m 256,25,26
 317 345 317 345 385 236 c 128,-1,27
 453 127 453 127 586 127 c 256,28,29
 719 127 719 127 788.5 237 c 128,-1,30
 858 347 858 347 858 559 c 0,31,32
 858 772 858 772 788.5 881.5 c 128,-1,33
 719 991 719 991 586 991 c 256,34,35
 453 991 453 991 385 882 c 128,-1,36
 317 773 317 773 317 559 c 256,25,26
EndSplineSet
Validated: 1
EndChar

StartChar: uni2219
Encoding: 8729 8729 175
Width: 1233
Flags: W
LayerCount: 2
Fore
SplineSet
489 864 m 1,0,-1
 741 864 l 1,1,-1
 741 559 l 1,2,-1
 489 559 l 1,3,-1
 489 864 l 1,0,-1
EndSplineSet
Validated: 1
EndChar

StartChar: quoteleft
Encoding: 8216 8216 181
Width: 1233
Flags: W
LayerCount: 2
Fore
SplineSet
0 1422 m 1,0,-1
 0 1657 l 1,1,-1
 204 1657 l 1,2,-1
 204 1422 l 1,3,-1
 0 1422 l 1,0,-1
0 944 m 1,4,-1
 0 1180 l 1,5,-1
 204 1180 l 1,6,-1
 204 944 l 1,7,-1
 0 944 l 1,4,-1
0 468 m 1,8,-1
 0 704 l 1,9,-1
 204 704 l 1,10,-1
 204 468 l 1,11,-1
 0 468 l 1,8,-1
0 -8 m 1,12,-1
 0 227 l 1,13,-1
 204 227 l 1,14,-1
 204 -8 l 1,15,-1
 0 -8 l 1,12,-1
0 -485 m 1,16,-1
 0 -249 l 1,17,-1
 204 -249 l 1,18,-1
 204 -485 l 1,19,-1
 0 -485 l 1,16,-1
206 1659 m 1,20,-1
 206 1895 l 1,21,-1
 410 1895 l 1,22,-1
 410 1659 l 1,23,-1
 206 1659 l 1,20,-1
206 1184 m 1,24,-1
 206 1419 l 1,25,-1
 410 1419 l 1,26,-1
 410 1184 l 1,27,-1
 206 1184 l 1,24,-1
206 706 m 1,28,-1
 206 942 l 1,29,-1
 410 942 l 1,30,-1
 410 706 l 1,31,-1
 206 706 l 1,28,-1
206 230 m 1,32,-1
 206 466 l 1,33,-1
 410 466 l 1,34,-1
 410 230 l 1,35,-1
 206 230 l 1,32,-1
206 -246 m 1,36,-1
 206 -10 l 1,37,-1
 410 -10 l 1,38,-1
 410 -246 l 1,39,-1
 206 -246 l 1,36,-1
412 1422 m 1,40,-1
 412 1657 l 1,41,-1
 616 1657 l 1,42,-1
 616 1422 l 1,43,-1
 412 1422 l 1,40,-1
412 944 m 1,44,-1
 412 1180 l 1,45,-1
 616 1180 l 1,46,-1
 616 944 l 1,47,-1
 412 944 l 1,44,-1
412 468 m 1,48,-1
 412 704 l 1,49,-1
 616 704 l 1,50,-1
 616 468 l 1,51,-1
 412 468 l 1,48,-1
412 -8 m 1,52,-1
 412 227 l 1,53,-1
 616 227 l 1,54,-1
 616 -8 l 1,55,-1
 412 -8 l 1,52,-1
412 -485 m 1,56,-1
 412 -249 l 1,57,-1
 616 -249 l 1,58,-1
 616 -485 l 1,59,-1
 412 -485 l 1,56,-1
618 1659 m 1,60,-1
 618 1895 l 1,61,-1
 822 1895 l 1,62,-1
 822 1659 l 1,63,-1
 618 1659 l 1,60,-1
618 1184 m 1,64,-1
 618 1419 l 1,65,-1
 822 1419 l 1,66,-1
 822 1184 l 1,67,-1
 618 1184 l 1,64,-1
618 706 m 1,68,-1
 618 942 l 1,69,-1
 822 942 l 1,70,-1
 822 706 l 1,71,-1
 618 706 l 1,68,-1
618 230 m 1,72,-1
 618 466 l 1,73,-1
 822 466 l 1,74,-1
 822 230 l 1,75,-1
 618 230 l 1,72,-1
618 -246 m 1,76,-1
 618 -10 l 1,77,-1
 822 -10 l 1,78,-1
 822 -246 l 1,79,-1
 618 -246 l 1,76,-1
824 1422 m 1,80,-1
 824 1657 l 1,81,-1
 1028 1657 l 1,82,-1
 1028 1422 l 1,83,-1
 824 1422 l 1,80,-1
824 944 m 1,84,-1
 824 1180 l 1,85,-1
 1028 1180 l 1,86,-1
 1028 944 l 1,87,-1
 824 944 l 1,84,-1
824 468 m 1,88,-1
 824 704 l 1,89,-1
 1028 704 l 1,90,-1
 1028 468 l 1,91,-1
 824 468 l 1,88,-1
824 -8 m 1,92,-1
 824 227 l 1,93,-1
 1028 227 l 1,94,-1
 1028 -8 l 1,95,-1
 824 -8 l 1,92,-1
824 -485 m 1,96,-1
 824 -249 l 1,97,-1
 1028 -249 l 1,98,-1
 1028 -485 l 1,99,-1
 824 -485 l 1,96,-1
1030 1659 m 1,100,-1
 1030 1895 l 1,101,-1
 1234 1895 l 1,102,-1
 1234 1659 l 1,103,-1
 1030 1659 l 1,100,-1
1030 1184 m 1,104,-1
 1030 1419 l 1,105,-1
 1234 1419 l 1,106,-1
 1234 1184 l 1,107,-1
 1030 1184 l 1,104,-1
1030 706 m 1,108,-1
 1030 942 l 1,109,-1
 1234 942 l 1,110,-1
 1234 706 l 1,111,-1
 1030 706 l 1,108,-1
1030 230 m 1,112,-1
 1030 466 l 1,113,-1
 1234 466 l 1,114,-1
 1234 230 l 1,115,-1
 1030 230 l 1,112,-1
1030 -246 m 1,116,-1
 1030 -10 l 1,117,-1
 1234 -10 l 1,118,-1
 1234 -246 l 1,119,-1
 1030 -246 l 1,116,-1
EndSplineSet
Validated: 1
EndChar

StartChar: uni0096
Encoding: 150 150 186
Width: 1233
Flags: W
LayerCount: 2
Fore
SplineSet
0 1908 m 1,0,-1
 1233 1908 l 1,1,-1
 1233 -487 l 1,2,-1
 0 -487 l 1,3,-1
 0 1908 l 1,0,-1
EndSplineSet
Validated: 1
Comment: "Medievia +ACIA-MC_WALL+ACIA glyph.+AAoA-Replaced by a reference to a copy of this relocated to U+-E104."
EndChar

StartChar: uni2620
Encoding: 9760 9760 279
Width: 1233
GlyphClass: 2
Flags: W
LayerCount: 2
Fore
SplineSet
629 1214 m 0,0,1
 862 1214 862 1214 973 1058 c 1,2,3
 1017 970 1017 970 1017 902 c 2,4,-1
 1017 845 l 2,5,6
 1017 753 1017 753 940 670 c 1,7,-1
 945 594 l 1,8,-1
 945 589 l 2,9,10
 945 546 945 546 926 508 c 1,11,-1
 930 508 l 1,12,13
 1052 559 1052 559 1052 608 c 1,14,15
 1086 654 1086 654 1113 654 c 2,16,-1
 1119 654 l 2,17,18
 1167 654 1167 654 1167 554 c 1,19,20
 1221 511 1221 511 1221 483 c 2,21,-1
 1221 464 l 1,22,23
 1201 427 1201 427 1153 427 c 1,24,-1
 1085 433 l 1,25,26
 896 345 896 345 849 312 c 1,27,-1
 849 297 l 1,28,-1
 1027 216 l 1,29,-1
 1080 226 l 1,30,31
 1153 212 1153 212 1153 178.5 c 128,-1,32
 1153 145 1153 145 1095 95 c 1,33,34
 1095 -1 1095 -1 1045 -1 c 2,35,-1
 1041 -1 l 2,36,37
 1002 -1 1002 -1 949 95 c 1,38,-1
 805 170 l 1,39,40
 747 90 747 90 614.5 90 c 128,-1,41
 482 90 482 90 428 170 c 1,42,43
 268 90 268 90 268 70 c 1,44,45
 230 -1 230 -1 196 -1 c 2,46,-1
 185 -1 l 2,47,48
 143 -1 143 -1 143 90 c 1,49,50
 85 144 85 144 85 180 c 128,-1,51
 85 216 85 216 153 226 c 1,52,-1
 211 216 l 1,53,-1
 384 297 l 1,54,-1
 384 312 l 1,55,-1
 153 433 l 1,56,-1
 70 427 l 1,57,58
 18 427 18 427 12 472 c 1,59,-1
 12 483 l 2,60,61
 12 505 12 505 66 559 c 1,62,63
 69 650 69 650 99 650 c 2,64,-1
 124 650 l 2,65,66
 160 650 160 650 206 559 c 1,67,-1
 307 508 l 1,68,-1
 307 513 l 1,69,-1
 288 584 l 1,70,-1
 297 659 l 1,71,72
 216 750 216 750 216 925 c 1,73,74
 242 1112 242 1112 443 1191 c 1,75,76
 521 1214 521 1214 629 1214 c 0,0,1
249 896 m 0,77,78
 249 800 249 800 302 705 c 1,79,-1
 307 705 l 1,80,-1
 307 770 l 1,81,82
 284 861 284 861 284 906 c 1,83,84
 292 947 292 947 302 947 c 2,85,-1
 312 947 l 1,86,-1
 326 932 l 1,87,-1
 316 896 l 1,88,-1
 341 780 l 1,89,-1
 341 725 l 1,90,-1
 326 589 l 1,91,-1
 326 579 l 2,92,93
 326 503 326 503 443 478 c 1,94,95
 495 433 495 433 495 397 c 2,96,-1
 495 377 l 1,97,-1
 572 367 l 1,98,-1
 640 367 l 1,99,-1
 737 388 l 1,100,101
 737 464 737 464 886 518 c 1,102,103
 911 547 911 547 911 608 c 1,104,-1
 891 760 l 1,105,-1
 917 887 l 1,106,-1
 917 902 l 1,107,-1
 907 936 l 1,108,-1
 930 953 l 1,109,110
 949 944 949 944 949 916 c 2,111,-1
 949 876 l 1,112,-1
 926 735 l 1,113,-1
 930 715 l 1,114,115
 984 782 984 782 984 856 c 2,116,-1
 984 891 l 2,117,118
 984 1062 984 1062 814 1144 c 1,119,120
 716 1178 716 1178 631 1178 c 2,121,-1
 602 1178 l 2,122,123
 344 1178 344 1178 264 982 c 1,124,125
 249 934 249 934 249 896 c 0,77,78
530 765 m 1,126,127
 565 754 565 754 565 714 c 0,128,129
 565 705 565 705 563 694 c 1,130,131
 520 568 520 568 451 568 c 0,132,133
 449 568 449 568 447 568 c 0,134,135
 388 568 388 568 361 694 c 1,136,137
 361 765 361 765 530 765 c 1,126,127
771 568 m 0,138,139
 721 568 721 568 670 694 c 1,140,141
 670 697 670 697 670 700 c 128,-1,142
 670 703 670 703 670 705 c 0,143,144
 670 763 670 763 713 765 c 1,145,146
 868 757 868 757 872 691 c 1,147,148
 844 568 844 568 771 568 c 0,138,139
849 362 m 1,149,-1
 853 362 l 1,150,151
 1067 468 1067 468 1085 468 c 2,152,-1
 1163 464 l 1,153,154
 1187 470 1187 470 1187 478 c 1,155,156
 1134 538 1134 538 1131 579 c 128,-1,157
 1128 620 1128 620 1113 620 c 1,158,159
 1092 612 1092 612 1052 529 c 1,160,161
 863 438 863 438 863 422 c 1,162,-1
 849 362 l 1,149,-1
384 367 m 2,163,164
 384 443 384 443 307 464 c 1,165,166
 153 531 153 531 153 584 c 1,167,168
 134 613 134 613 108 613 c 1,169,170
 95 523 95 523 85 523 c 1,171,172
 45 493 45 493 45 472 c 1,173,-1
 80 464 l 1,174,-1
 153 468 l 1,175,176
 201 453 201 453 384 356 c 1,177,-1
 384 367 l 2,163,164
543 483 m 0,178,179
 543 568 543 568 601 602 c 1,180,-1
 611 597 l 1,181,-1
 611 468 l 1,182,-1
 572 427 l 1,183,184
 543 437 543 437 543 483 c 0,178,179
690 472 m 0,185,186
 690 434 690 434 659 427 c 1,187,-1
 622 468 l 1,188,-1
 622 599 l 1,189,-1
 637 605 l 1,190,191
 690 562 690 562 690 472 c 0,185,186
640 221 m 2,192,-1
 597 221 l 1,193,194
 449 239 449 239 443 312 c 0,195,196
 437 388 437 388 403 453 c 1,197,198
 420 379 420 379 420 325 c 0,199,200
 420 306 420 306 418 292 c 1,201,202
 453 130 453 130 616 130 c 1,203,204
 781 142 781 142 814 297 c 1,205,206
 813 306 813 306 813 317 c 0,207,208
 814 372 814 372 834 453 c 1,209,210
 807 422 807 422 786 281 c 1,211,212
 728 221 728 221 640 221 c 2,192,-1
471 292 m 1,213,-1
 471 367 l 1,214,215
 464 418 464 418 432 433 c 1,216,217
 447 403 447 403 466 292 c 1,218,-1
 471 292 l 1,213,-1
762 292 m 1,219,220
 773 292 773 292 776 356 c 1,221,-1
 795 427 l 1,222,223
 785 427 785 427 767 373 c 1,224,-1
 762 367 l 1,225,-1
 762 292 l 1,219,220
491 362 m 1,226,-1
 491 326 l 1,227,-1
 505 322 l 1,228,-1
 505 358 l 1,229,-1
 491 362 l 1,226,-1
727 362 m 1,230,-1
 727 322 l 1,231,-1
 747 330 l 1,232,-1
 747 368 l 1,233,-1
 727 362 l 1,230,-1
520 356 m 1,234,-1
 520 316 l 1,235,-1
 539 312 l 1,236,-1
 539 351 l 1,237,-1
 520 356 l 1,234,-1
694 351 m 1,238,-1
 694 312 l 1,239,-1
 715 318 l 1,240,-1
 713 356 l 1,241,-1
 694 351 l 1,238,-1
659 351 m 1,242,-1
 659 302 l 1,243,-1
 677 304 l 1,244,-1
 674 351 l 1,245,-1
 659 351 l 1,242,-1
587 347 m 1,246,-1
 587 302 l 1,247,-1
 611 302 l 1,248,-1
 611 347 l 1,249,-1
 587 347 l 1,246,-1
626 347 m 1,250,-1
 626 302 l 1,251,-1
 645 302 l 1,252,-1
 645 347 l 1,253,-1
 626 347 l 1,250,-1
520 297 m 1,254,-1
 520 256 l 1,255,-1
 539 252 l 1,256,-1
 539 292 l 1,257,-1
 520 297 l 1,254,-1
626 241 m 1,258,-1
 645 241 l 1,259,-1
 645 286 l 1,260,-1
 626 281 l 1,261,-1
 626 241 l 1,258,-1
587 281 m 1,262,-1
 587 241 l 1,263,-1
 611 241 l 1,264,-1
 611 281 l 1,265,-1
 587 281 l 1,262,-1
191 35 m 0,266,267
 206 35 206 35 259 119 c 1,268,269
 377 182 377 182 403 206 c 1,270,271
 389 236 389 236 389 260 c 1,272,273
 247 181 247 181 216 181 c 1,274,-1
 129 185 l 1,275,-1
 124 181 l 1,276,-1
 124 165 l 1,277,278
 176 119 176 119 176 80 c 1,279,280
 181 35 181 35 191 35 c 0,266,267
1003 80 m 0,281,282
 1003 68 1003 68 1041 35 c 1,283,284
 1057 35 1057 35 1066 119 c 1,285,-1
 1113 170 l 1,286,287
 1109 185 1109 185 1085 185 c 1,288,-1
 1013 181 l 1,289,-1
 843 256 l 1,290,-1
 830 200 l 1,291,292
 1003 116 1003 116 1003 80 c 0,281,282
572 347 m 1,293,-1
 552 347 l 1,294,-1
 549 307 l 1,295,-1
 572 302 l 1,296,-1
 572 347 l 1,293,-1
553 287 m 1,297,-1
 553 247 l 1,298,-1
 572 242 l 1,299,-1
 572 282 l 1,300,-1
 553 287 l 1,297,-1
486 308 m 1,301,-1
 486 269 l 1,302,-1
 505 263 l 1,303,-1
 505 304 l 1,304,-1
 486 308 l 1,301,-1
661 284 m 1,305,-1
 661 243 l 1,306,-1
 681 248 l 1,307,-1
 681 289 l 1,308,-1
 661 284 l 1,305,-1
693 292 m 1,309,-1
 693 252 l 1,310,-1
 712 256 l 1,311,-1
 712 297 l 1,312,-1
 693 292 l 1,309,-1
727 305 m 1,313,-1
 727 264 l 1,314,-1
 747 270 l 1,315,-1
 747 310 l 1,316,-1
 727 305 l 1,313,-1
EndSplineSet
Validated: 1
Comment: "Imported 2024/02/14 from public domain DejaVu Sans Mono font."
EndChar

StartChar: uni2625
Encoding: 9765 9765 280
Width: 1233
GlyphClass: 2
Flags: W
LayerCount: 2
Fore
SplineSet
615 1027 m 0,0,1
 714 1028 714 1028 722 1224 c 0,2,3
 723 1239 723 1239 723 1253 c 0,4,5
 723 1453 723 1453 617 1453 c 0,6,7
 615 1453 615 1453 612 1453 c 0,8,9
 502 1448 502 1448 502 1272 c 0,10,11
 502 1253 502 1253 503 1233 c 0,12,13
 516 1027 516 1027 614 1027 c 0,14,15
 615 1027 l 0,0,1
798 1238 m 2,16,17
 798 1054 798 1054 683 966 c 1,18,-1
 826 966 l 2,19,20
 984 966 984 966 1136 1065 c 1,21,-1
 1136 800 l 1,22,23
 989 854 989 854 832 854 c 0,24,25
 758 854 758 854 683 854 c 1,26,-1
 683 354 l 2,27,28
 683 173 683 173 770 -1 c 1,29,-1
 467 -1 l 1,30,31
 553 173 553 173 553 354 c 2,32,-1
 553 854 l 1,33,34
 476 854 476 854 400 854 c 0,35,36
 244 854 244 854 97 800 c 1,37,-1
 97 1065 l 1,38,39
 249 966 249 966 407 966 c 2,40,-1
 553 966 l 1,41,42
 449 1067 449 1067 439 1251 c 1,43,44
 441 1494 441 1494 618 1496 c 0,45,46
 795 1494 795 1494 798 1251 c 1,47,-1
 798 1238 l 2,16,17
EndSplineSet
Validated: 1
Comment: "Imported 2024/02/14 from public domain DejaVu Sans Mono font."
EndChar

StartChar: SF100000
Encoding: 9472 9472 281
Width: 1233
GlyphClass: 2
Flags: W
LayerCount: 2
Fore
SplineSet
-20 618 m 1,0,-1
 -20 790 l 1,1,-1
 1253 790 l 1,2,-1
 1253 618 l 1,3,-1
 -20 618 l 1,0,-1
EndSplineSet
Validated: 1
Comment: "Imported 2024/02/14 from public domain DejaVu Sans Mono font."
EndChar

StartChar: SF110000
Encoding: 9474 9474 282
Width: 1233
GlyphClass: 2
Flags: W
LayerCount: 2
Fore
SplineSet
536 -512 m 1,0,-1
 536 1921 l 1,1,-1
 696 1921 l 1,2,-1
 696 -512 l 1,3,-1
 536 -512 l 1,0,-1
EndSplineSet
Validated: 1
Comment: "Imported 2024/02/14 from public domain DejaVu Sans Mono font."
EndChar

StartChar: SF010000
Encoding: 9484 9484 283
Width: 1233
GlyphClass: 2
Flags: W
LayerCount: 2
Fore
SplineSet
536 -512 m 1,0,-1
 536 790 l 1,1,-1
 1253 790 l 1,2,-1
 1253 618 l 1,3,-1
 696 618 l 1,4,-1
 696 -512 l 1,5,-1
 536 -512 l 1,0,-1
EndSplineSet
Validated: 1
Comment: "Imported 2024/02/14 from public domain DejaVu Sans Mono font."
EndChar

StartChar: SF030000
Encoding: 9488 9488 284
Width: 1233
GlyphClass: 2
Flags: W
LayerCount: 2
Fore
SplineSet
536 -512 m 1,0,-1
 536 618 l 1,1,-1
 -20 618 l 1,2,-1
 -20 790 l 1,3,-1
 696 790 l 1,4,-1
 696 -512 l 1,5,-1
 536 -512 l 1,0,-1
EndSplineSet
Validated: 1
Comment: "Imported 2024/02/14 from public domain DejaVu Sans Mono font."
EndChar

StartChar: SF020000
Encoding: 9492 9492 285
Width: 1233
GlyphClass: 2
Flags: W
LayerCount: 2
Fore
SplineSet
536 618 m 1,0,-1
 536 1921 l 1,1,-1
 696 1921 l 1,2,-1
 696 790 l 1,3,-1
 1253 790 l 1,4,-1
 1253 618 l 1,5,-1
 536 618 l 1,0,-1
EndSplineSet
Validated: 1
Comment: "Imported 2024/02/14 from public domain DejaVu Sans Mono font."
EndChar

StartChar: SF040000
Encoding: 9496 9496 286
Width: 1233
GlyphClass: 2
Flags: W
LayerCount: 2
Fore
SplineSet
-20 618 m 1,0,-1
 -20 790 l 1,1,-1
 536 790 l 1,2,-1
 536 1921 l 1,3,-1
 696 1921 l 1,4,-1
 696 618 l 1,5,-1
 -20 618 l 1,0,-1
EndSplineSet
Validated: 1
Comment: "Imported 2024/02/14 from public domain DejaVu Sans Mono font."
EndChar

StartChar: SF080000
Encoding: 9500 9500 287
Width: 1233
GlyphClass: 2
Flags: W
LayerCount: 2
Fore
SplineSet
536 -512 m 1,0,-1
 536 1921 l 1,1,-1
 696 1921 l 1,2,-1
 696 790 l 1,3,-1
 1253 790 l 1,4,-1
 1253 618 l 1,5,-1
 696 618 l 1,6,-1
 696 -512 l 1,7,-1
 536 -512 l 1,0,-1
EndSplineSet
Validated: 1
Comment: "Imported 2024/02/14 from public domain DejaVu Sans Mono font."
EndChar

StartChar: SF090000
Encoding: 9508 9508 288
Width: 1233
GlyphClass: 2
Flags: W
LayerCount: 2
Fore
SplineSet
536 -512 m 1,0,-1
 536 618 l 1,1,-1
 -20 618 l 1,2,-1
 -20 790 l 1,3,-1
 536 790 l 1,4,-1
 536 1921 l 1,5,-1
 696 1921 l 1,6,-1
 696 -512 l 1,7,-1
 536 -512 l 1,0,-1
EndSplineSet
Validated: 1
Comment: "Imported 2024/02/14 from public domain DejaVu Sans Mono font."
EndChar

StartChar: SF060000
Encoding: 9516 9516 289
Width: 1233
GlyphClass: 2
Flags: W
LayerCount: 2
Fore
SplineSet
536 -512 m 1,0,-1
 536 618 l 1,1,-1
 -20 618 l 1,2,-1
 -20 790 l 1,3,-1
 1253 790 l 1,4,-1
 1253 618 l 1,5,-1
 696 618 l 1,6,-1
 696 -512 l 1,7,-1
 536 -512 l 1,0,-1
EndSplineSet
Validated: 1
Comment: "Imported 2024/02/14 from public domain DejaVu Sans Mono font."
EndChar

StartChar: SF070000
Encoding: 9524 9524 290
Width: 1233
GlyphClass: 2
Flags: W
LayerCount: 2
Fore
SplineSet
-20 618 m 1,0,-1
 -20 790 l 1,1,-1
 536 790 l 1,2,-1
 536 1921 l 1,3,-1
 696 1921 l 1,4,-1
 696 790 l 1,5,-1
 1253 790 l 1,6,-1
 1253 618 l 1,7,-1
 -20 618 l 1,0,-1
EndSplineSet
Validated: 1
Comment: "Imported 2024/02/14 from public domain DejaVu Sans Mono font."
EndChar

StartChar: SF050000
Encoding: 9532 9532 291
Width: 1233
GlyphClass: 2
Flags: W
LayerCount: 2
Fore
SplineSet
696 618 m 1,0,-1
 696 -512 l 1,1,-1
 536 -512 l 1,2,-1
 536 618 l 1,3,-1
 -20 618 l 1,4,-1
 -20 790 l 1,5,-1
 536 790 l 1,6,-1
 536 1921 l 1,7,-1
 696 1921 l 1,8,-1
 696 790 l 1,9,-1
 1253 790 l 1,10,-1
 1253 618 l 1,11,-1
 696 618 l 1,0,-1
EndSplineSet
Validated: 1
Comment: "Imported 2024/02/14 from public domain DejaVu Sans Mono font."
EndChar

StartChar: SF430000
Encoding: 9552 9552 292
Width: 1233
GlyphClass: 2
Flags: W
LayerCount: 2
Fore
SplineSet
-20 790 m 1,0,-1
 -20 962 l 1,1,-1
 1253 962 l 1,2,-1
 1253 790 l 1,3,-1
 -20 790 l 1,0,-1
-20 446 m 1,4,-1
 -20 618 l 1,5,-1
 1253 618 l 1,6,-1
 1253 446 l 1,7,-1
 -20 446 l 1,4,-1
EndSplineSet
Validated: 1
Comment: "Imported 2024/02/14 from public domain DejaVu Sans Mono font."
EndChar

StartChar: SF240000
Encoding: 9553 9553 293
Width: 1233
GlyphClass: 2
Flags: W
LayerCount: 2
Fore
SplineSet
376 -512 m 1,0,-1
 376 1921 l 1,1,-1
 536 1921 l 1,2,-1
 536 -512 l 1,3,-1
 376 -512 l 1,0,-1
696 -512 m 1,4,-1
 696 1921 l 1,5,-1
 856 1921 l 1,6,-1
 856 -512 l 1,7,-1
 696 -512 l 1,4,-1
EndSplineSet
Validated: 1
Comment: "Imported 2024/02/14 from public domain DejaVu Sans Mono font."
EndChar

StartChar: SF510000
Encoding: 9554 9554 294
Width: 1233
GlyphClass: 2
Flags: W
LayerCount: 2
Fore
SplineSet
536 -512 m 1,0,-1
 536 962 l 1,1,-1
 1253 962 l 1,2,-1
 1253 790 l 1,3,-1
 696 790 l 1,4,-1
 696 618 l 1,5,-1
 1253 618 l 1,6,-1
 1253 446 l 1,7,-1
 696 446 l 1,8,-1
 696 -512 l 1,9,-1
 536 -512 l 1,0,-1
EndSplineSet
Validated: 1
Comment: "Imported 2024/02/14 from public domain DejaVu Sans Mono font."
EndChar

StartChar: SF520000
Encoding: 9555 9555 295
Width: 1233
GlyphClass: 2
Flags: W
LayerCount: 2
Fore
SplineSet
376 -512 m 1,0,-1
 376 790 l 1,1,-1
 1253 790 l 1,2,-1
 1253 618 l 1,3,-1
 856 618 l 1,4,-1
 856 -512 l 1,5,-1
 696 -512 l 1,6,-1
 696 618 l 1,7,-1
 536 618 l 1,8,-1
 536 -512 l 1,9,-1
 376 -512 l 1,0,-1
EndSplineSet
Validated: 1
Comment: "Imported 2024/02/14 from public domain DejaVu Sans Mono font."
EndChar

StartChar: SF390000
Encoding: 9556 9556 296
Width: 1233
GlyphClass: 2
Flags: W
LayerCount: 2
Fore
SplineSet
376 -512 m 1,0,-1
 376 962 l 1,1,-1
 1253 962 l 1,2,-1
 1253 790 l 1,3,-1
 536 790 l 1,4,-1
 536 -512 l 1,5,-1
 376 -512 l 1,0,-1
696 -512 m 1,6,-1
 696 618 l 1,7,-1
 1253 618 l 1,8,-1
 1253 446 l 1,9,-1
 856 446 l 1,10,-1
 856 -512 l 1,11,-1
 696 -512 l 1,6,-1
EndSplineSet
Validated: 1
Comment: "Imported 2024/02/14 from public domain DejaVu Sans Mono font."
EndChar

StartChar: SF220000
Encoding: 9557 9557 297
Width: 1233
GlyphClass: 2
Flags: W
LayerCount: 2
Fore
SplineSet
536 -512 m 1,0,-1
 536 446 l 1,1,-1
 -20 446 l 1,2,-1
 -20 618 l 1,3,-1
 536 618 l 1,4,-1
 536 790 l 1,5,-1
 -20 790 l 1,6,-1
 -20 962 l 1,7,-1
 696 962 l 1,8,-1
 696 -512 l 1,9,-1
 536 -512 l 1,0,-1
EndSplineSet
Validated: 1
Comment: "Imported 2024/02/14 from public domain DejaVu Sans Mono font."
EndChar

StartChar: SF210000
Encoding: 9558 9558 298
Width: 1233
GlyphClass: 2
Flags: W
LayerCount: 2
Fore
SplineSet
-20 618 m 1,0,-1
 -20 790 l 1,1,-1
 856 790 l 1,2,-1
 856 -512 l 1,3,-1
 696 -512 l 1,4,-1
 696 618 l 1,5,-1
 536 618 l 1,6,-1
 536 -512 l 1,7,-1
 376 -512 l 1,8,-1
 376 618 l 1,9,-1
 -20 618 l 1,0,-1
EndSplineSet
Validated: 1
Comment: "Imported 2024/02/14 from public domain DejaVu Sans Mono font."
EndChar

StartChar: SF250000
Encoding: 9559 9559 299
Width: 1233
GlyphClass: 2
Flags: W
LayerCount: 2
Fore
SplineSet
696 -512 m 1,0,-1
 696 790 l 1,1,-1
 -20 790 l 1,2,-1
 -20 962 l 1,3,-1
 856 962 l 1,4,-1
 856 -512 l 1,5,-1
 696 -512 l 1,0,-1
376 -512 m 1,6,-1
 376 446 l 1,7,-1
 -20 446 l 1,8,-1
 -20 618 l 1,9,-1
 536 618 l 1,10,-1
 536 -512 l 1,11,-1
 376 -512 l 1,6,-1
EndSplineSet
Validated: 1
Comment: "Imported 2024/02/14 from public domain DejaVu Sans Mono font."
EndChar

StartChar: SF500000
Encoding: 9560 9560 300
Width: 1233
GlyphClass: 2
Flags: W
LayerCount: 2
Fore
SplineSet
536 446 m 1,0,-1
 536 1921 l 1,1,-1
 696 1921 l 1,2,-1
 696 962 l 1,3,-1
 1253 962 l 1,4,-1
 1253 790 l 1,5,-1
 696 790 l 1,6,-1
 696 618 l 1,7,-1
 1253 618 l 1,8,-1
 1253 446 l 1,9,-1
 536 446 l 1,0,-1
EndSplineSet
Validated: 1
Comment: "Imported 2024/02/14 from public domain DejaVu Sans Mono font."
EndChar

StartChar: SF490000
Encoding: 9561 9561 301
Width: 1233
GlyphClass: 2
Flags: W
LayerCount: 2
Fore
SplineSet
376 618 m 1,0,-1
 376 1921 l 1,1,-1
 536 1921 l 1,2,-1
 536 790 l 1,3,-1
 696 790 l 1,4,-1
 696 1921 l 1,5,-1
 856 1921 l 1,6,-1
 856 790 l 1,7,-1
 1253 790 l 1,8,-1
 1253 618 l 1,9,-1
 376 618 l 1,0,-1
EndSplineSet
Validated: 1
Comment: "Imported 2024/02/14 from public domain DejaVu Sans Mono font."
EndChar

StartChar: SF380000
Encoding: 9562 9562 302
Width: 1233
GlyphClass: 2
Flags: W
LayerCount: 2
Fore
SplineSet
696 790 m 1,0,-1
 696 1921 l 1,1,-1
 856 1921 l 1,2,-1
 856 962 l 1,3,-1
 1253 962 l 1,4,-1
 1253 790 l 1,5,-1
 696 790 l 1,0,-1
376 446 m 1,6,-1
 376 1921 l 1,7,-1
 536 1921 l 1,8,-1
 536 618 l 1,9,-1
 1253 618 l 1,10,-1
 1253 446 l 1,11,-1
 376 446 l 1,6,-1
EndSplineSet
Validated: 1
Comment: "Imported 2024/02/14 from public domain DejaVu Sans Mono font."
EndChar

StartChar: SF280000
Encoding: 9563 9563 303
Width: 1233
GlyphClass: 2
Flags: W
LayerCount: 2
Fore
SplineSet
-20 446 m 1,0,-1
 -20 618 l 1,1,-1
 536 618 l 1,2,-1
 536 790 l 1,3,-1
 -20 790 l 1,4,-1
 -20 962 l 1,5,-1
 536 962 l 1,6,-1
 536 1921 l 1,7,-1
 696 1921 l 1,8,-1
 696 446 l 1,9,-1
 -20 446 l 1,0,-1
EndSplineSet
Validated: 1
Comment: "Imported 2024/02/14 from public domain DejaVu Sans Mono font."
EndChar

StartChar: SF270000
Encoding: 9564 9564 304
Width: 1233
GlyphClass: 2
Flags: W
LayerCount: 2
Fore
SplineSet
-20 618 m 1,0,-1
 -20 790 l 1,1,-1
 376 790 l 1,2,-1
 376 1921 l 1,3,-1
 536 1921 l 1,4,-1
 536 790 l 1,5,-1
 696 790 l 1,6,-1
 696 1921 l 1,7,-1
 856 1921 l 1,8,-1
 856 618 l 1,9,-1
 -20 618 l 1,0,-1
EndSplineSet
Validated: 1
Comment: "Imported 2024/02/14 from public domain DejaVu Sans Mono font."
EndChar

StartChar: SF260000
Encoding: 9565 9565 305
Width: 1233
GlyphClass: 2
Flags: W
LayerCount: 2
Fore
SplineSet
-20 790 m 1,0,-1
 -20 962 l 1,1,-1
 376 962 l 1,2,-1
 376 1921 l 1,3,-1
 536 1921 l 1,4,-1
 536 790 l 1,5,-1
 -20 790 l 1,0,-1
-20 446 m 1,6,-1
 -20 618 l 1,7,-1
 696 618 l 1,8,-1
 696 1921 l 1,9,-1
 856 1921 l 1,10,-1
 856 446 l 1,11,-1
 -20 446 l 1,6,-1
EndSplineSet
Validated: 1
Comment: "Imported 2024/02/14 from public domain DejaVu Sans Mono font."
EndChar

StartChar: SF360000
Encoding: 9566 9566 306
Width: 1233
GlyphClass: 2
Flags: W
LayerCount: 2
Fore
SplineSet
536 -512 m 1,0,-1
 536 1921 l 1,1,-1
 696 1921 l 1,2,-1
 696 962 l 1,3,-1
 1253 962 l 1,4,-1
 1253 790 l 1,5,-1
 696 790 l 1,6,-1
 696 618 l 1,7,-1
 1253 618 l 1,8,-1
 1253 446 l 1,9,-1
 696 446 l 1,10,-1
 696 -512 l 1,11,-1
 536 -512 l 1,0,-1
EndSplineSet
Validated: 1
Comment: "Imported 2024/02/14 from public domain DejaVu Sans Mono font."
EndChar

StartChar: SF370000
Encoding: 9567 9567 307
Width: 1233
GlyphClass: 2
Flags: W
LayerCount: 2
Fore
SplineSet
376 -512 m 1,0,-1
 376 1921 l 1,1,-1
 536 1921 l 1,2,-1
 536 -512 l 1,3,-1
 376 -512 l 1,0,-1
696 -512 m 1,4,-1
 696 1921 l 1,5,-1
 856 1921 l 1,6,-1
 856 790 l 1,7,-1
 1253 790 l 1,8,-1
 1253 618 l 1,9,-1
 856 618 l 1,10,-1
 856 -512 l 1,11,-1
 696 -512 l 1,4,-1
EndSplineSet
Validated: 1
Comment: "Imported 2024/02/14 from public domain DejaVu Sans Mono font."
EndChar

StartChar: SF420000
Encoding: 9568 9568 308
Width: 1233
GlyphClass: 2
Flags: W
LayerCount: 2
Fore
SplineSet
696 790 m 1,0,-1
 696 1921 l 1,1,-1
 856 1921 l 1,2,-1
 856 962 l 1,3,-1
 1253 962 l 1,4,-1
 1253 790 l 1,5,-1
 696 790 l 1,0,-1
376 -512 m 1,6,-1
 376 1921 l 1,7,-1
 536 1921 l 1,8,-1
 536 -512 l 1,9,-1
 376 -512 l 1,6,-1
696 -512 m 1,10,-1
 696 618 l 1,11,-1
 1253 618 l 1,12,-1
 1253 446 l 1,13,-1
 856 446 l 1,14,-1
 856 -512 l 1,15,-1
 696 -512 l 1,10,-1
EndSplineSet
Validated: 1
Comment: "Imported 2024/02/14 from public domain DejaVu Sans Mono font."
EndChar

StartChar: SF190000
Encoding: 9569 9569 309
Width: 1233
GlyphClass: 2
Flags: W
LayerCount: 2
Fore
SplineSet
536 -512 m 1,0,-1
 536 446 l 1,1,-1
 -20 446 l 1,2,-1
 -20 618 l 1,3,-1
 536 618 l 1,4,-1
 536 790 l 1,5,-1
 -20 790 l 1,6,-1
 -20 962 l 1,7,-1
 536 962 l 1,8,-1
 536 1921 l 1,9,-1
 696 1921 l 1,10,-1
 696 -512 l 1,11,-1
 536 -512 l 1,0,-1
EndSplineSet
Validated: 1
Comment: "Imported 2024/02/14 from public domain DejaVu Sans Mono font."
EndChar

StartChar: SF200000
Encoding: 9570 9570 310
Width: 1233
GlyphClass: 2
Flags: W
LayerCount: 2
Fore
SplineSet
376 -512 m 1,0,-1
 376 618 l 1,1,-1
 -20 618 l 1,2,-1
 -20 790 l 1,3,-1
 376 790 l 1,4,-1
 376 1921 l 1,5,-1
 536 1921 l 1,6,-1
 536 -512 l 1,7,-1
 376 -512 l 1,0,-1
696 -512 m 1,8,-1
 696 1921 l 1,9,-1
 856 1921 l 1,10,-1
 856 -512 l 1,11,-1
 696 -512 l 1,8,-1
EndSplineSet
Validated: 1
Comment: "Imported 2024/02/14 from public domain DejaVu Sans Mono font."
EndChar

StartChar: SF230000
Encoding: 9571 9571 311
Width: 1233
GlyphClass: 2
Flags: W
LayerCount: 2
Fore
SplineSet
-20 790 m 1,0,-1
 -20 962 l 1,1,-1
 376 962 l 1,2,-1
 376 1921 l 1,3,-1
 536 1921 l 1,4,-1
 536 790 l 1,5,-1
 -20 790 l 1,0,-1
376 -512 m 1,6,-1
 376 446 l 1,7,-1
 -20 446 l 1,8,-1
 -20 618 l 1,9,-1
 536 618 l 1,10,-1
 536 -512 l 1,11,-1
 376 -512 l 1,6,-1
696 -512 m 1,12,-1
 696 1921 l 1,13,-1
 856 1921 l 1,14,-1
 856 -512 l 1,15,-1
 696 -512 l 1,12,-1
EndSplineSet
Validated: 1
Comment: "Imported 2024/02/14 from public domain DejaVu Sans Mono font."
EndChar

StartChar: SF470000
Encoding: 9572 9572 312
Width: 1233
GlyphClass: 2
Flags: W
LayerCount: 2
Fore
SplineSet
536 -512 m 1,0,-1
 536 446 l 1,1,-1
 -20 446 l 1,2,-1
 -20 618 l 1,3,-1
 1253 618 l 1,4,-1
 1253 446 l 1,5,-1
 696 446 l 1,6,-1
 696 -512 l 1,7,-1
 536 -512 l 1,0,-1
-20 790 m 1,8,-1
 -20 962 l 1,9,-1
 1253 962 l 1,10,-1
 1253 790 l 1,11,-1
 -20 790 l 1,8,-1
EndSplineSet
Validated: 1
Comment: "Imported 2024/02/14 from public domain DejaVu Sans Mono font."
EndChar

StartChar: SF480000
Encoding: 9573 9573 313
Width: 1233
GlyphClass: 2
Flags: W
LayerCount: 2
Fore
SplineSet
-20 618 m 1,0,-1
 -20 790 l 1,1,-1
 1253 790 l 1,2,-1
 1253 618 l 1,3,-1
 856 618 l 1,4,-1
 856 -512 l 1,5,-1
 696 -512 l 1,6,-1
 696 618 l 1,7,-1
 536 618 l 1,8,-1
 536 -512 l 1,9,-1
 376 -512 l 1,10,-1
 376 618 l 1,11,-1
 -20 618 l 1,0,-1
EndSplineSet
Validated: 1
Comment: "Imported 2024/02/14 from public domain DejaVu Sans Mono font."
EndChar

StartChar: SF410000
Encoding: 9574 9574 314
Width: 1233
GlyphClass: 2
Flags: W
LayerCount: 2
Fore
SplineSet
-20 790 m 1,0,-1
 -20 962 l 1,1,-1
 1253 962 l 1,2,-1
 1253 790 l 1,3,-1
 -20 790 l 1,0,-1
376 -512 m 1,4,-1
 376 446 l 1,5,-1
 -20 446 l 1,6,-1
 -20 618 l 1,7,-1
 536 618 l 1,8,-1
 536 -512 l 1,9,-1
 376 -512 l 1,4,-1
696 -512 m 1,10,-1
 696 618 l 1,11,-1
 1253 618 l 1,12,-1
 1253 446 l 1,13,-1
 856 446 l 1,14,-1
 856 -512 l 1,15,-1
 696 -512 l 1,10,-1
EndSplineSet
Validated: 1
Comment: "Imported 2024/02/14 from public domain DejaVu Sans Mono font."
EndChar

StartChar: SF450000
Encoding: 9575 9575 315
Width: 1233
GlyphClass: 2
Flags: W
LayerCount: 2
Fore
SplineSet
-20 446 m 1,0,-1
 -20 618 l 1,1,-1
 1253 618 l 1,2,-1
 1253 446 l 1,3,-1
 -20 446 l 1,0,-1
-20 790 m 1,4,-1
 -20 962 l 1,5,-1
 536 962 l 1,6,-1
 536 1921 l 1,7,-1
 696 1921 l 1,8,-1
 696 962 l 1,9,-1
 1253 962 l 1,10,-1
 1253 790 l 1,11,-1
 -20 790 l 1,4,-1
EndSplineSet
Validated: 1
Comment: "Imported 2024/02/14 from public domain DejaVu Sans Mono font."
EndChar

StartChar: SF460000
Encoding: 9576 9576 316
Width: 1233
GlyphClass: 2
Flags: W
LayerCount: 2
Fore
SplineSet
-20 618 m 1,0,-1
 -20 790 l 1,1,-1
 376 790 l 1,2,-1
 376 1921 l 1,3,-1
 536 1921 l 1,4,-1
 536 790 l 1,5,-1
 696 790 l 1,6,-1
 696 1921 l 1,7,-1
 856 1921 l 1,8,-1
 856 790 l 1,9,-1
 1253 790 l 1,10,-1
 1253 618 l 1,11,-1
 -20 618 l 1,0,-1
EndSplineSet
Validated: 1
Comment: "Imported 2024/02/14 from public domain DejaVu Sans Mono font."
EndChar

StartChar: SF400000
Encoding: 9577 9577 317
Width: 1233
GlyphClass: 2
Flags: W
LayerCount: 2
Fore
SplineSet
-20 446 m 1,0,-1
 -20 618 l 1,1,-1
 1253 618 l 1,2,-1
 1253 446 l 1,3,-1
 -20 446 l 1,0,-1
-20 790 m 1,4,-1
 -20 962 l 1,5,-1
 376 962 l 1,6,-1
 376 1921 l 1,7,-1
 536 1921 l 1,8,-1
 536 790 l 1,9,-1
 -20 790 l 1,4,-1
696 790 m 1,10,-1
 696 1921 l 1,11,-1
 856 1921 l 1,12,-1
 856 962 l 1,13,-1
 1253 962 l 1,14,-1
 1253 790 l 1,15,-1
 696 790 l 1,10,-1
EndSplineSet
Validated: 1
Comment: "Imported 2024/02/14 from public domain DejaVu Sans Mono font."
EndChar

StartChar: SF540000
Encoding: 9578 9578 318
Width: 1233
GlyphClass: 2
Flags: W
LayerCount: 2
Fore
SplineSet
1253 790 m 1,0,-1
 -20 790 l 1,1,-1
 -20 962 l 1,2,-1
 536 962 l 1,3,-1
 536 1921 l 1,4,-1
 696 1921 l 1,5,-1
 696 962 l 1,6,-1
 1253 962 l 1,7,-1
 1253 790 l 1,0,-1
1253 618 m 1,8,-1
 1253 446 l 1,9,-1
 696 446 l 1,10,-1
 696 -512 l 1,11,-1
 536 -512 l 1,12,-1
 536 446 l 1,13,-1
 -20 446 l 1,14,-1
 -20 618 l 1,15,-1
 1253 618 l 1,8,-1
EndSplineSet
Validated: 1
Comment: "Imported 2024/02/14 from public domain DejaVu Sans Mono font.+AAoA-Revised to remove single line in space between double lines."
EndChar

StartChar: SF530000
Encoding: 9579 9579 319
Width: 1233
GlyphClass: 2
Flags: W
LayerCount: 2
Fore
SplineSet
696 -512 m 1,0,-1
 696 1921 l 1,1,-1
 856 1921 l 1,2,-1
 856 790 l 1,3,-1
 1253 790 l 1,4,-1
 1253 618 l 1,5,-1
 856 618 l 1,6,-1
 856 -512 l 1,7,-1
 696 -512 l 1,0,-1
536 1921 m 1,8,-1
 536 -512 l 1,9,-1
 376 -512 l 1,10,-1
 376 618 l 1,11,-1
 -20 618 l 1,12,-1
 -20 790 l 1,13,-1
 376 790 l 1,14,-1
 376 1921 l 1,15,-1
 536 1921 l 1,8,-1
EndSplineSet
Validated: 1
Comment: "Imported 2024/02/14 from public domain DejaVu Sans Mono font.+AAoA-Revised to remove single line in space between double lines."
EndChar

StartChar: SF440000
Encoding: 9580 9580 320
Width: 1233
GlyphClass: 2
Flags: W
LayerCount: 2
Fore
SplineSet
696 -512 m 1,0,-1
 696 618 l 1,1,-1
 1253 618 l 1,2,-1
 1253 446 l 1,3,-1
 856 446 l 1,4,-1
 856 -512 l 1,5,-1
 696 -512 l 1,0,-1
376 -512 m 1,6,-1
 376 446 l 1,7,-1
 -20 446 l 1,8,-1
 -20 618 l 1,9,-1
 536 618 l 1,10,-1
 536 -512 l 1,11,-1
 376 -512 l 1,6,-1
-20 790 m 1,12,-1
 -20 962 l 1,13,-1
 376 962 l 1,14,-1
 376 1921 l 1,15,-1
 536 1921 l 1,16,-1
 536 790 l 1,17,-1
 -20 790 l 1,12,-1
696 790 m 1,18,-1
 696 1921 l 1,19,-1
 856 1921 l 1,20,-1
 856 962 l 1,21,-1
 1253 962 l 1,22,-1
 1253 790 l 1,23,-1
 696 790 l 1,18,-1
EndSplineSet
Validated: 1
Comment: "Imported 2024/02/14 from public domain DejaVu Sans Mono font."
EndChar

StartChar: block
Encoding: 9608 9608 321
Width: 1233
GlyphClass: 2
Flags: W
LayerCount: 2
Fore
SplineSet
-20 -512 m 1,0,-1
 -20 1921 l 1,1,-1
 1253 1921 l 1,2,-1
 1253 -512 l 1,3,-1
 -20 -512 l 1,0,-1
EndSplineSet
Validated: 1
Comment: "Imported 2024/02/14 from public domain DejaVu Sans Mono font."
EndChar

StartChar: lfblock
Encoding: 9612 9612 322
Width: 1233
GlyphClass: 2
Flags: W
LayerCount: 2
Fore
SplineSet
-20 -512 m 1,0,-1
 -20 1921 l 1,1,-1
 616 1921 l 1,2,-1
 616 -512 l 1,3,-1
 -20 -512 l 1,0,-1
EndSplineSet
Validated: 1
Comment: "Imported 2024/02/14 from public domain DejaVu Sans Mono font."
EndChar

StartChar: ltshade
Encoding: 9617 9617 324
Width: 1233
GlyphClass: 2
Flags: W
LayerCount: 2
Fore
SplineSet
925 1370 m 1,0,-1
 925 1591 l 1,1,-1
 1080 1591 l 1,2,-1
 1080 1370 l 1,3,-1
 925 1370 l 1,0,-1
309 1370 m 1,4,-1
 309 1591 l 1,5,-1
 463 1591 l 1,6,-1
 463 1370 l 1,7,-1
 309 1370 l 1,4,-1
617 1680 m 1,8,-1
 617 1901 l 1,9,-1
 771 1901 l 1,10,-1
 771 1680 l 1,11,-1
 617 1680 l 1,8,-1
0 1680 m 1,12,-1
 0 1901 l 1,13,-1
 154 1901 l 1,14,-1
 154 1680 l 1,15,-1
 0 1680 l 1,12,-1
925 -492 m 1,16,-1
 925 -271 l 1,17,-1
 1080 -271 l 1,18,-1
 1080 -492 l 1,19,-1
 925 -492 l 1,16,-1
309 -492 m 1,20,-1
 309 -271 l 1,21,-1
 463 -271 l 1,22,-1
 463 -492 l 1,23,-1
 309 -492 l 1,20,-1
617 -182 m 1,24,-1
 617 39 l 1,25,-1
 771 39 l 1,26,-1
 771 -182 l 1,27,-1
 617 -182 l 1,24,-1
0 -182 m 1,28,-1
 0 39 l 1,29,-1
 154 39 l 1,30,-1
 154 -182 l 1,31,-1
 0 -182 l 1,28,-1
925 129 m 1,32,-1
 925 350 l 1,33,-1
 1080 350 l 1,34,-1
 1080 129 l 1,35,-1
 925 129 l 1,32,-1
309 129 m 1,36,-1
 309 350 l 1,37,-1
 463 350 l 1,38,-1
 463 129 l 1,39,-1
 309 129 l 1,36,-1
617 438 m 1,40,-1
 617 660 l 1,41,-1
 771 660 l 1,42,-1
 771 438 l 1,43,-1
 617 438 l 1,40,-1
0 438 m 1,44,-1
 0 660 l 1,45,-1
 154 660 l 1,46,-1
 154 438 l 1,47,-1
 0 438 l 1,44,-1
925 749 m 1,48,-1
 925 971 l 1,49,-1
 1080 971 l 1,50,-1
 1080 749 l 1,51,-1
 925 749 l 1,48,-1
309 749 m 1,52,-1
 309 971 l 1,53,-1
 463 971 l 1,54,-1
 463 749 l 1,55,-1
 309 749 l 1,52,-1
617 1059 m 1,56,-1
 617 1280 l 1,57,-1
 771 1280 l 1,58,-1
 771 1059 l 1,59,-1
 617 1059 l 1,56,-1
0 1059 m 1,60,-1
 0 1280 l 1,61,-1
 154 1280 l 1,62,-1
 154 1059 l 1,63,-1
 0 1059 l 1,60,-1
EndSplineSet
Validated: 1
Comment: "Imported 2024/02/14 from public domain DejaVu Sans Mono font."
EndChar

StartChar: shade
Encoding: 9618 9618 325
Width: 1233
GlyphClass: 2
Flags: W
LayerCount: 2
Fore
SplineSet
1029 944 m 1,0,-1
 1029 1182 l 1,1,-1
 1232 1182 l 1,2,-1
 1232 944 l 1,3,-1
 1029 944 l 1,0,-1
823 1184 m 1,4,-1
 823 1421 l 1,5,-1
 1027 1421 l 1,6,-1
 1027 1184 l 1,7,-1
 823 1184 l 1,4,-1
823 705 m 1,8,-1
 823 942 l 1,9,-1
 1027 942 l 1,10,-1
 1027 705 l 1,11,-1
 823 705 l 1,8,-1
1029 466 m 1,12,-1
 1029 703 l 1,13,-1
 1232 703 l 1,14,-1
 1232 466 l 1,15,-1
 1029 466 l 1,12,-1
823 227 m 1,16,-1
 823 464 l 1,17,-1
 1027 464 l 1,18,-1
 1027 227 l 1,19,-1
 823 227 l 1,16,-1
1029 -13 m 1,20,-1
 1029 225 l 1,21,-1
 1232 225 l 1,22,-1
 1232 -13 l 1,23,-1
 1029 -13 l 1,20,-1
823 -252 m 1,24,-1
 823 -15 l 1,25,-1
 1027 -15 l 1,26,-1
 1027 -252 l 1,27,-1
 823 -252 l 1,24,-1
1029 -491 m 1,28,-1
 1029 -254 l 1,29,-1
 1232 -254 l 1,30,-1
 1232 -491 l 1,31,-1
 1029 -491 l 1,28,-1
618 944 m 1,32,-1
 618 1182 l 1,33,-1
 821 1182 l 1,34,-1
 821 944 l 1,35,-1
 618 944 l 1,32,-1
413 1184 m 1,36,-1
 413 1421 l 1,37,-1
 616 1421 l 1,38,-1
 616 1184 l 1,39,-1
 413 1184 l 1,36,-1
413 705 m 1,40,-1
 413 942 l 1,41,-1
 616 942 l 1,42,-1
 616 705 l 1,43,-1
 413 705 l 1,40,-1
618 466 m 1,44,-1
 618 703 l 1,45,-1
 821 703 l 1,46,-1
 821 466 l 1,47,-1
 618 466 l 1,44,-1
413 227 m 1,48,-1
 413 464 l 1,49,-1
 616 464 l 1,50,-1
 616 227 l 1,51,-1
 413 227 l 1,48,-1
618 -13 m 1,52,-1
 618 225 l 1,53,-1
 821 225 l 1,54,-1
 821 -13 l 1,55,-1
 618 -13 l 1,52,-1
413 -252 m 1,56,-1
 413 -15 l 1,57,-1
 616 -15 l 1,58,-1
 616 -252 l 1,59,-1
 413 -252 l 1,56,-1
618 -491 m 1,60,-1
 618 -254 l 1,61,-1
 821 -254 l 1,62,-1
 821 -491 l 1,63,-1
 618 -491 l 1,60,-1
205 944 m 1,64,-1
 205 1182 l 1,65,-1
 411 1182 l 1,66,-1
 411 944 l 1,67,-1
 205 944 l 1,64,-1
1 1184 m 1,68,-1
 1 1421 l 1,69,-1
 203 1421 l 1,70,-1
 203 1184 l 1,71,-1
 1 1184 l 1,68,-1
1 705 m 1,72,-1
 1 942 l 1,73,-1
 203 942 l 1,74,-1
 203 705 l 1,75,-1
 1 705 l 1,72,-1
205 466 m 1,76,-1
 205 703 l 1,77,-1
 411 703 l 1,78,-1
 411 466 l 1,79,-1
 205 466 l 1,76,-1
1 227 m 1,80,-1
 1 464 l 1,81,-1
 203 464 l 1,82,-1
 203 227 l 1,83,-1
 1 227 l 1,80,-1
205 -13 m 1,84,-1
 205 225 l 1,85,-1
 411 225 l 1,86,-1
 411 -13 l 1,87,-1
 205 -13 l 1,84,-1
1 -252 m 1,88,-1
 1 -15 l 1,89,-1
 203 -15 l 1,90,-1
 203 -252 l 1,91,-1
 1 -252 l 1,88,-1
205 -491 m 1,92,-1
 205 -254 l 1,93,-1
 411 -254 l 1,94,-1
 411 -491 l 1,95,-1
 205 -491 l 1,92,-1
1029 1423 m 1,96,-1
 1029 1660 l 1,97,-1
 1232 1660 l 1,98,-1
 1232 1423 l 1,99,-1
 1029 1423 l 1,96,-1
823 1662 m 1,100,-1
 823 1899 l 1,101,-1
 1027 1899 l 1,102,-1
 1027 1662 l 1,103,-1
 823 1662 l 1,100,-1
618 1423 m 1,104,-1
 618 1660 l 1,105,-1
 821 1660 l 1,106,-1
 821 1423 l 1,107,-1
 618 1423 l 1,104,-1
413 1662 m 1,108,-1
 413 1899 l 1,109,-1
 616 1899 l 1,110,-1
 616 1662 l 1,111,-1
 413 1662 l 1,108,-1
205 1423 m 1,112,-1
 205 1660 l 1,113,-1
 411 1660 l 1,114,-1
 411 1423 l 1,115,-1
 205 1423 l 1,112,-1
1 1662 m 1,116,-1
 1 1899 l 1,117,-1
 203 1899 l 1,118,-1
 203 1662 l 1,119,-1
 1 1662 l 1,116,-1
EndSplineSet
Validated: 1
Comment: "Imported 2024/02/14 from public domain DejaVu Sans Mono font."
EndChar

StartChar: dkshade
Encoding: 9619 9619 326
Width: 1233
GlyphClass: 2
Flags: W
LayerCount: 2
Fore
SplineSet
616 1059 m 1,0,-1
 770 1059 l 1,1,-1
 770 1280 l 1,2,-1
 616 1280 l 1,3,-1
 616 1059 l 1,0,-1
308 749 m 1,4,-1
 462 749 l 1,5,-1
 462 971 l 1,6,-1
 308 971 l 1,7,-1
 308 749 l 1,4,-1
924 749 m 1,8,-1
 1079 749 l 1,9,-1
 1079 971 l 1,10,-1
 924 971 l 1,11,-1
 924 749 l 1,8,-1
616 438 m 1,12,-1
 770 438 l 1,13,-1
 770 660 l 1,14,-1
 616 660 l 1,15,-1
 616 438 l 1,12,-1
308 129 m 1,16,-1
 462 129 l 1,17,-1
 462 350 l 1,18,-1
 308 350 l 1,19,-1
 308 129 l 1,16,-1
924 129 m 1,20,-1
 1079 129 l 1,21,-1
 1079 350 l 1,22,-1
 924 350 l 1,23,-1
 924 129 l 1,20,-1
616 -182 m 1,24,-1
 770 -182 l 1,25,-1
 770 39 l 1,26,-1
 616 39 l 1,27,-1
 616 -182 l 1,24,-1
308 1370 m 1,28,-1
 462 1370 l 1,29,-1
 462 1591 l 1,30,-1
 308 1591 l 1,31,-1
 308 1370 l 1,28,-1
924 1370 m 1,32,-1
 1079 1370 l 1,33,-1
 1079 1591 l 1,34,-1
 924 1591 l 1,35,-1
 924 1370 l 1,32,-1
770 1901 m 1,36,-1
 1233 1901 l 1,37,-1
 1233 -492 l 1,38,-1
 1079 -492 l 1,39,-1
 1079 -271 l 1,40,-1
 924 -271 l 1,41,-1
 924 -492 l 1,42,-1
 462 -492 l 1,43,-1
 462 -271 l 1,44,-1
 308 -271 l 1,45,-1
 308 -492 l 1,46,-1
 0 -492 l 1,47,-1
 0 -182 l 1,48,-1
 153 -182 l 1,49,-1
 153 39 l 1,50,-1
 0 39 l 1,51,-1
 0 438 l 1,52,-1
 153 438 l 1,53,-1
 153 660 l 1,54,-1
 0 660 l 1,55,-1
 0 1059 l 1,56,-1
 153 1059 l 1,57,-1
 153 1280 l 1,58,-1
 0 1280 l 1,59,-1
 0 1680 l 1,60,-1
 153 1680 l 1,61,-1
 153 1901 l 1,62,-1
 616 1901 l 1,63,-1
 616 1680 l 1,64,-1
 770 1680 l 1,65,-1
 770 1901 l 1,36,-1
EndSplineSet
Validated: 1
Comment: "Imported 2024/02/14 from public domain DejaVu Sans Mono font."
EndChar

StartChar: dnblock
Encoding: 9604 9604 328
Width: 1233
GlyphClass: 2
Flags: W
LayerCount: 2
Fore
SplineSet
-20 -512 m 1,0,-1
 -20 704 l 1,1,-1
 1253 704 l 1,2,-1
 1253 -512 l 1,3,-1
 -20 -512 l 1,0,-1
EndSplineSet
Validated: 1
Comment: "Imported 2024/02/14 from public domain DejaVu Sans Mono font."
EndChar

StartChar: spade
Encoding: 9824 9824 329
Width: 1233
GlyphClass: 2
Flags: W
LayerCount: 2
Fore
SplineSet
619 1359 m 1,0,1
 696 1222 696 1222 873 995 c 1,2,3
 1068 767 1068 767 1073 720 c 1,4,5
 1105 650 1105 650 1105 584 c 2,6,-1
 1105 551 l 2,7,8
 1105 414 1105 414 972 335 c 1,9,10
 928 317 928 317 876 317 c 0,11,12
 749 317 749 317 671 499 c 1,13,-1
 637 499 l 1,14,-1
 637 489 l 2,15,16
 637 256 637 256 705 133 c 1,17,-1
 528 133 l 1,18,-1
 528 138 l 1,19,20
 598 262 598 262 598 496 c 1,21,-1
 596 499 l 1,22,-1
 564 499 l 1,23,-1
 526 426 l 1,24,25
 456 317 456 317 351 317 c 0,26,27
 198 317 198 317 135 489 c 1,28,-1
 128 549 l 1,29,-1
 128 587 l 2,30,31
 128 737 128 737 282 904 c 1,32,33
 540 1221 540 1221 614 1357 c 1,34,-1
 616 1359 l 1,35,-1
 619 1359 l 1,0,1
EndSplineSet
Validated: 1
Comment: "Imported 2024/02/14 from public domain DejaVu Sans Mono font."
EndChar

StartChar: club
Encoding: 9827 9827 330
Width: 1233
GlyphClass: 2
Flags: W
LayerCount: 2
Fore
SplineSet
618 1359 m 0,0,1
 794 1359 794 1359 877 1173 c 1,2,3
 887 1130 887 1130 890 1084 c 0,4,5
 890 988 890 988 791 856 c 1,6,-1
 742 807 l 1,7,-1
 744 807 l 1,8,9
 805 830 805 830 874 830 c 2,10,-1
 890 830 l 2,11,12
 1085 830 1085 830 1164 664 c 1,13,14
 1183 610 1183 610 1183 560 c 0,15,16
 1183 392 1183 392 1011 306 c 1,17,18
 979 296 979 296 920 291 c 1,19,20
 721 291 721 291 638 517 c 1,21,-1
 636 517 l 1,22,-1
 636 509 l 2,23,24
 636 227 636 227 703 138 c 1,25,-1
 703 133 l 1,26,-1
 532 133 l 1,27,-1
 527 138 l 1,28,29
 597 243 597 243 597 517 c 2,30,-1
 597 519 l 1,31,-1
 595 519 l 1,32,33
 513 291 513 291 311 291 c 0,34,35
 154 291 154 291 70 457 c 1,36,37
 50 513 50 513 50 560 c 0,38,39
 50 752 50 752 252 820 c 1,40,41
 306 830 306 830 348 830 c 2,42,-1
 356 830 l 2,43,44
 426 830 426 830 490 807 c 1,45,-1
 493 807 l 1,46,-1
 493 809 l 1,47,48
 424 868 424 868 400 924 c 1,49,50
 351 1015 351 1015 351 1081 c 2,51,-1
 351 1093 l 2,52,53
 351 1258 351 1258 527 1344 c 1,54,55
 586 1359 586 1359 618 1359 c 0,0,1
EndSplineSet
Validated: 1
Comment: "Imported 2024/02/14 from public domain DejaVu Sans Mono font."
EndChar

StartChar: heart
Encoding: 9829 9829 331
Width: 1233
GlyphClass: 2
Flags: W
LayerCount: 2
Fore
SplineSet
315 1359 m 0,0,1
 482 1359 482 1359 577 1166 c 0,2,3
 612 1090 612 1090 614 1049 c 1,4,-1
 616 1049 l 1,5,6
 645 1182 645 1182 720 1270 c 1,7,8
 809 1359 809 1359 920 1359 c 0,9,10
 1092 1359 1092 1359 1196 1175 c 1,11,12
 1222 1107 1222 1107 1222 1047 c 0,13,14
 1222 841 1222 841 1051 655 c 1,15,-1
 616 133 l 1,16,-1
 611 133 l 1,17,-1
 149 699 l 2,18,19
 11 868 11 868 11 1047 c 0,20,21
 11 1220 11 1220 175 1322 c 1,22,23
 244 1359 244 1359 315 1359 c 0,0,1
EndSplineSet
Validated: 1
Comment: "Imported 2024/02/14 from public domain DejaVu Sans Mono font."
EndChar

StartChar: diamond
Encoding: 9830 9830 332
Width: 1233
GlyphClass: 2
Flags: W
LayerCount: 2
Fore
SplineSet
617 1359 m 1,0,-1
 1031 822 l 2,1,2
 1088 753 1088 753 1088 742 c 1,3,-1
 617 133 l 1,4,5
 607 139 607 139 145 742 c 1,6,7
 145 753 145 753 237 867 c 2,8,-1
 617 1359 l 1,0,-1
EndSplineSet
Validated: 1
Comment: "Imported 2024/02/14 from public domain DejaVu Sans Mono font."
EndChar

StartChar: uni2690
Encoding: 9872 9872 333
Width: 1233
GlyphClass: 2
Flags: W
LayerCount: 2
Fore
SplineSet
293 539 m 5,0,1
 337 553 337 553 384 553 c 4,2,3
 490 552 490 552 620 488 c 4,4,5
 758 420 758 420 912 420 c 4,6,7
 970 421 970 421 1027 430 c 5,8,-1
 1027 926 l 5,9,10
 984 918 984 918 941 918 c 4,11,12
 806 918 806 918 662 995 c 5,13,14
 549 1097 549 1097 394 1097 c 4,15,16
 353 1097 353 1097 309 1090 c 5,17,-1
 293 1092 l 5,18,-1
 293 539 l 5,0,1
1082 384 m 5,19,20
 994 362 994 362 952 362 c 6,21,-1
 905 362 l 6,22,23
 771 362 771 362 644 424 c 132,-1,24
 517 486 517 486 432.5 486 c 132,-1,25
 348 486 348 486 291 462 c 5,26,-1
 291 -1 l 5,27,-1
 213 -1 l 5,28,-1
 213 1167 l 5,29,-1
 152 1167 l 5,30,-1
 151 1210 l 5,31,-1
 370 1210 l 5,32,-1
 370 1167 l 5,33,-1
 309 1167 l 5,34,-1
 309 1146 l 5,35,36
 352 1153 352 1153 394 1153 c 4,37,38
 551 1153 551 1153 690 1055 c 5,39,40
 828 980 828 980 959 980 c 4,41,42
 1021 980 1021 980 1082 997 c 5,43,-1
 1082 384 l 5,19,20
EndSplineSet
Validated: 1
Comment: "U+-2690 {WHITE FLAG} glyph imported 2024/02/14 from public domain DejaVu Sans Mono font."
EndChar

StartChar: uni2691
Encoding: 9873 9873 334
Width: 1233
GlyphClass: 2
Flags: W
LayerCount: 2
Fore
SplineSet
182 1264 m 1,0,-1
 116 1264 l 1,1,-1
 115 1310 l 1,2,-1
 351 1310 l 1,3,-1
 351 1264 l 1,4,-1
 285 1264 l 1,5,-1
 285 1241 l 1,6,7
 329 1248 329 1248 376 1248 c 0,8,9
 378 1248 378 1248 379 1248 c 0,10,11
 545 1248 545 1248 695 1143 c 1,12,13
 843 1062 843 1062 984 1062 c 0,14,15
 1052 1062 1052 1062 1118 1081 c 1,16,-1
 1118 420 l 1,17,18
 1027 397 1027 397 935 396 c 0,19,20
 933 396 933 396 931 396 c 0,21,22
 787 396 787 396 646 464 c 0,23,24
 509 530 509 530 397 530 c 0,25,26
 327 530 327 530 266 504 c 1,27,-1
 266 5 l 1,28,-1
 182 5 l 1,29,-1
 182 1264 l 1,0,-1
EndSplineSet
Validated: 1
Comment: "Imported 2024/02/14 from public domain DejaVu Sans Mono font."
EndChar

StartChar: uni2694
Encoding: 9876 9876 335
Width: 1233
GlyphClass: 2
Flags: W
LayerCount: 2
Fore
SplineSet
1038 24 m 1,0,1
 1002 34 1002 34 987 82 c 1,2,-1
 980 76 l 1,3,4
 983 23 983 23 1023 23 c 0,5,6
 1024 23 1024 23 1025 23 c 0,7,8
 1031 23 1031 23 1038 24 c 1,0,1
136 62 m 1,9,-1
 142 56 l 1,10,11
 157 104 157 104 194 114 c 1,12,13
 187 115 187 115 180 115 c 0,14,15
 138 115 138 115 136 62 c 1,9,-1
219 12 m 1,16,17
 135 12 135 12 130 61 c 1,18,19
 130 118 130 118 178 120 c 1,20,-1
 295 256 l 1,21,22
 225 311 225 311 206 399 c 1,23,-1
 274 399 l 1,24,25
 295 354 295 354 351 310 c 1,26,-1
 560 538 l 1,27,-1
 154 1021 l 1,28,-1
 130 1132 l 1,29,-1
 616 600 l 1,30,-1
 1103 1132 l 1,31,-1
 1078 1021 l 1,32,-1
 674 538 l 1,33,-1
 882 310 l 1,34,35
 938 354 938 354 958 399 c 1,36,-1
 1027 399 l 1,37,38
 1008 311 1008 311 938 256 c 1,39,-1
 1055 120 l 1,40,41
 1102 118 1102 118 1103 70 c 1,42,43
 1096 14 1096 14 1022 12 c 1,44,45
 968 15 968 15 965 74 c 1,46,-1
 848 200 l 1,47,48
 770 158 770 158 702 152 c 1,49,-1
 673 202 l 1,50,51
 749 214 749 214 799 251 c 1,52,-1
 616 469 l 1,53,-1
 434 251 l 1,54,55
 484 214 484 214 560 202 c 1,56,-1
 531 152 l 1,57,58
 462 158 462 158 384 200 c 1,59,-1
 267 74 l 1,60,61
 266 20 266 20 219 12 c 1,16,17
651 512 m 1,62,-1
 651 511 l 1,63,-1
 627 538 l 1,64,-1
 1072 1066 l 1,65,-1
 1076 1077 l 1,66,-1
 616 551 l 1,67,-1
 157 1077 l 1,68,-1
 160 1066 l 1,69,-1
 607 542 l 1,70,-1
 368 273 l 1,71,72
 302 316 302 316 265 386 c 1,73,-1
 248 387 l 1,74,75
 279 330 279 330 339.5 280 c 128,-1,76
 400 230 400 230 533 181 c 1,77,-1
 539 193 l 1,78,79
 447 221 447 221 382 262 c 1,80,-1
 616 530 l 1,81,-1
 643 500 l 1,82,-1
 642 500 l 1,83,-1
 846 260 l 1,84,85
 782 220 782 220 693 193 c 1,86,-1
 700 181 l 1,87,88
 832 230 832 230 892.5 280 c 128,-1,89
 953 330 953 330 984 387 c 1,90,-1
 968 386 l 1,91,92
 932 319 932 319 862 270 c 1,93,-1
 651 512 l 1,62,-1
EndSplineSet
Validated: 1
Comment: "Imported 2024/02/14 from public domain DejaVu Sans Mono font."
EndChar

StartChar: uni2698
Encoding: 9880 9880 336
Width: 1233
GlyphClass: 2
Flags: W
LayerCount: 2
Fore
SplineSet
463 1021.5 m 128,-1,1
 463 978 463 978 485 939 c 128,-1,2
 507 900 507 900 547 878 c 128,-1,3
 587 856 587 856 629 856 c 0,4,5
 672 856 672 856 712 878 c 128,-1,6
 752 900 752 900 774 939 c 128,-1,7
 796 978 796 978 796 1021.5 c 128,-1,8
 796 1065 796 1065 773 1105 c 128,-1,9
 750 1145 750 1145 711 1166 c 128,-1,10
 672 1187 672 1187 629 1187 c 0,11,12
 588 1187 588 1187 548 1166 c 128,-1,13
 508 1145 508 1145 485.5 1105 c 128,-1,0
 463 1065 463 1065 463 1021.5 c 128,-1,1
672 600 m 1,14,15
 679 600 679 600 686 600 c 0,16,17
 811 600 811 600 909.5 683.5 c 128,-1,18
 1008 767 1008 767 1159 800 c 1,19,20
 1159 598 1159 598 953 530.5 c 128,-1,21
 747 463 747 463 713 331 c 1,22,23
 666 212 666 212 665 -2 c 1,24,-1
 628 -2 l 1,25,26
 590 147 590 147 590 283 c 0,27,28
 590 290 590 290 590 297 c 0,29,30
 586 412 586 412 368.5 475 c 128,-1,31
 151 538 151 538 74 804 c 1,32,33
 249 803 249 803 351 701 c 128,-1,34
 453 599 453 599 565 599 c 0,35,36
 577 599 577 599 590 600 c 1,37,-1
 596 600 l 1,38,-1
 596 735 l 1,39,40
 539 741 539 741 478.5 775.5 c 128,-1,41
 418 810 418 810 380 878 c 128,-1,42
 342 946 342 946 342 1021.5 c 128,-1,43
 342 1097 342 1097 380.5 1166 c 128,-1,44
 419 1235 419 1235 487.5 1272 c 128,-1,45
 556 1309 556 1309 628.5 1309 c 128,-1,46
 701 1309 701 1309 770.5 1272 c 128,-1,47
 840 1235 840 1235 879 1166 c 128,-1,48
 918 1097 918 1097 918 1021.5 c 128,-1,49
 918 946 918 946 879.5 878 c 128,-1,50
 841 810 841 810 782 777 c 128,-1,51
 723 744 723 744 672 736 c 1,52,-1
 672 600 l 1,14,15
EndSplineSet
Validated: 1
Comment: "Imported 2024/02/14 from public domain DejaVu Sans Mono font."
EndChar

StartChar: smileface
Encoding: 9786 9786 337
Width: 1233
GlyphClass: 2
Flags: W
LayerCount: 2
Fore
SplineSet
617 164 m 128,-1,1
 375 164 375 164 204 334.5 c 128,-1,2
 33 505 33 505 33 747 c 128,-1,3
 33 989 33 989 204 1160.5 c 128,-1,4
 375 1332 375 1332 617 1332 c 128,-1,5
 859 1332 859 1332 1029.5 1160.5 c 128,-1,6
 1200 989 1200 989 1200 747 c 128,-1,7
 1200 505 1200 505 1030 334 c 0,8,0
 859 164 859 164 617 164 c 128,-1,1
616.5 1213 m 128,-1,10
 424 1213 424 1213 287.5 1077 c 128,-1,11
 151 941 151 941 151 748 c 128,-1,12
 151 555 151 555 287.5 417.5 c 128,-1,13
 424 280 424 280 616.5 280 c 128,-1,14
 809 280 809 280 946 417.5 c 128,-1,15
 1083 555 1083 555 1083 748 c 128,-1,16
 1083 941 1083 941 946 1077 c 128,-1,9
 809 1213 809 1213 616.5 1213 c 128,-1,10
594 548 m 0,17,18
 612 548 612 548 630 548 c 0,19,20
 785 548 785 548 843 743 c 1,21,-1
 897 743 l 1,22,23
 882 471 882 471 613 457 c 1,24,25
 354 476 354 476 339 742 c 1,26,-1
 390 742 l 1,27,28
 468 548 468 548 594 548 c 0,17,18
805 835 m 1,29,30
 719 839 719 839 716 927 c 1,31,32
 720 1018 720 1018 811 1023 c 1,33,34
 894 1016 894 1016 898 930 c 1,35,36
 894 839 894 839 805 835 c 1,29,30
428 835 m 1,37,38
 343 839 343 839 339 927 c 1,39,40
 344 1018 344 1018 435 1023 c 1,41,42
 517 1016 517 1016 522 930 c 1,43,44
 517 839 517 839 428 835 c 1,37,38
EndSplineSet
Validated: 1
Comment: "Imported 2024/02/14 from public domain DejaVu Sans Mono font."
EndChar

StartChar: invsmileface
Encoding: 9787 9787 338
Width: 1233
GlyphClass: 2
Flags: W
LayerCount: 2
Fore
SplineSet
617 164 m 128,-1,1
 375 164 375 164 204 334.5 c 128,-1,2
 33 505 33 505 33 747 c 128,-1,3
 33 989 33 989 204 1160.5 c 128,-1,4
 375 1332 375 1332 617 1332 c 128,-1,5
 859 1332 859 1332 1029.5 1160.5 c 128,-1,6
 1200 989 1200 989 1200 747 c 128,-1,7
 1200 505 1200 505 1030 334 c 0,8,0
 859 164 859 164 617 164 c 128,-1,1
616 508 m 1,9,-1
 590 507 l 1,10,11
 434 507 434 507 341 742 c 1,12,-1
 279 742 l 1,13,14
 297 419 297 419 612 397 c 1,15,16
 936 414 936 414 954 743 c 1,17,-1
 890 745 l 1,18,19
 818 508 818 508 633 508 c 2,20,-1
 616 508 l 1,9,-1
956 968 m 1,21,22
 950 1075 950 1075 851 1083 c 1,23,24
 741 1077 741 1077 735 965 c 1,25,26
 740 860 740 860 843 853 c 1,27,28
 950 860 950 860 956 968 c 1,21,22
501 970 m 1,29,30
 496 1075 496 1075 396 1083 c 1,31,32
 286 1077 286 1077 281 965 c 1,33,34
 285 860 285 860 389 853 c 1,35,36
 496 860 496 860 501 970 c 1,29,30
EndSplineSet
Validated: 1
Comment: "Imported 2024/02/14 from public domain DejaVu Sans Mono font."
EndChar

StartChar: circle
Encoding: 9675 9675 339
Width: 1233
GlyphClass: 2
Flags: W
LayerCount: 2
Fore
SplineSet
128 532 m 128,-1,1
 128 250 128 250 372 110 c 0,2,3
 494 39 494 39 616 39 c 256,4,5
 738 39 738 39 860 110 c 0,6,7
 1105 251 1105 251 1105 532 c 128,-1,8
 1105 813 1105 813 860 954 c 0,9,10
 738 1025 738 1025 616 1025 c 256,11,12
 494 1025 494 1025 372 954 c 0,13,0
 128 814 128 814 128 532 c 128,-1,1
6 532 m 128,-1,15
 6 884 6 884 311 1060 c 0,16,17
 463 1148 463 1148 616 1148 c 0,18,19
 768 1148 768 1148 921 1060 c 0,20,21
 1227 884 1227 884 1227 532 c 128,-1,22
 1227 180 1227 180 921 4 c 0,23,24
 768 -84 768 -84 616 -84 c 0,25,26
 463 -84 463 -84 311 4 c 0,27,14
 6 180 6 180 6 532 c 128,-1,15
EndSplineSet
Validated: 1
Comment: "Imported 2024/02/14 from public domain DejaVu Sans Mono font."
EndChar

StartChar: invbullet
Encoding: 9688 9688 340
Width: 1233
GlyphClass: 2
Flags: W
LayerCount: 2
Fore
SplineSet
319 762 m 0,0,1
 319 636 319 636 404.5 550.5 c 128,-1,2
 490 465 490 465 614 465 c 0,3,4
 739 465 739 465 826 551.5 c 128,-1,5
 913 638 913 638 913 762 c 0,6,7
 913 885 913 885 826.5 971 c 128,-1,8
 740 1057 740 1057 616 1057 c 0,9,10
 491 1057 491 1057 405 971.5 c 128,-1,11
 319 886 319 886 319 762 c 0,0,1
-20 -20 m 1,12,-1
 -20 1576 l 1,13,-1
 1253 1576 l 1,14,-1
 1253 -20 l 1,15,-1
 -20 -20 l 1,12,-1
EndSplineSet
Validated: 1
Comment: "Imported 2024/02/14 from public domain DejaVu Sans Mono font."
EndChar

StartChar: invcircle
Encoding: 9689 9689 341
Width: 1233
GlyphClass: 2
Flags: W
LayerCount: 2
Fore
SplineSet
128 532 m 128,-1,1
 128 814 128 814 372 954 c 0,2,3
 494 1025 494 1025 616 1025 c 256,4,5
 738 1025 738 1025 860 954 c 0,6,7
 1105 813 1105 813 1105 532 c 128,-1,8
 1105 251 1105 251 860 110 c 0,9,10
 738 39 738 39 616 39 c 256,11,12
 494 39 494 39 372 110 c 0,13,0
 128 250 128 250 128 532 c 128,-1,1
6 532 m 128,-1,15
 6 180 6 180 311 4 c 0,16,17
 463 -84 463 -84 616 -84 c 0,18,19
 768 -84 768 -84 921 4 c 0,20,21
 1227 180 1227 180 1227 532 c 128,-1,22
 1227 884 1227 884 921 1060 c 0,23,24
 768 1148 768 1148 616 1148 c 0,25,26
 463 1148 463 1148 311 1060 c 0,27,14
 6 884 6 884 6 532 c 128,-1,15
-20 -512 m 1,28,-1
 -20 1576 l 1,29,-1
 1253 1576 l 1,30,-1
 1253 -512 l 1,31,-1
 -20 -512 l 1,28,-1
EndSplineSet
Validated: 1
Comment: "Imported 2024/02/14 from public domain DejaVu Sans Mono font."
EndChar

StartChar: female
Encoding: 9792 9792 342
Width: 1233
GlyphClass: 2
Flags: W
LayerCount: 2
Fore
SplineSet
941 875 m 0,0,1
 941 1010 941 1010 845 1103 c 0,2,3
 750 1197 750 1197 618 1197 c 0,4,5
 483 1197 483 1197 388 1103 c 0,6,7
 293 1010 293 1010 293 875 c 0,8,9
 293 741 293 741 388 652 c 128,-1,10
 483 563 483 563 618 563 c 0,11,12
 750 563 750 563 845 652 c 0,13,14
 941 741 941 741 941 875 c 0,0,1
284 548 m 0,15,16
 145 677 145 677 145 872 c 0,17,18
 145 1069 145 1069 283 1205 c 0,19,20
 421 1342 421 1342 618 1342 c 0,21,22
 812 1342 812 1342 950 1205 c 0,23,24
 1088 1069 1088 1069 1088 872 c 0,25,26
 1088 677 1088 677 951 548 c 0,27,28
 838 444 838 444 691 429 c 1,29,-1
 691 212 l 1,30,-1
 914 213 l 1,31,-1
 914 110 l 1,32,-1
 686 108 l 1,33,-1
 688 -101 l 1,34,-1
 553 -101 l 1,35,-1
 551 110 l 1,36,-1
 342 110 l 1,37,-1
 342 212 l 1,38,-1
 551 212 l 1,39,-1
 550 429 l 1,40,41
 397 443 397 443 284 548 c 0,15,16
EndSplineSet
Validated: 1
Comment: "Imported 2024/02/14 from public domain DejaVu Sans Mono font."
EndChar

StartChar: male
Encoding: 9794 9794 343
Width: 1233
GlyphClass: 2
Flags: W
LayerCount: 2
Fore
SplineSet
158 595 m 0,0,1
 158 465 158 465 248 377 c 0,2,3
 339 288 339 288 466 288 c 0,4,5
 466 287 466 287 467 287 c 0,6,7
 593 287 593 287 684 377 c 0,8,9
 769 461 769 461 769 580 c 0,10,11
 769 585 769 585 769 591 c 0,12,13
 769 710 769 710 674 804 c 0,14,15
 580 897 580 897 462 897 c 0,16,17
 456 897 456 897 451 897 c 128,-1,18
 446 897 446 897 441 897 c 0,19,20
 335 897 335 897 248 813 c 0,21,22
 158 726 158 726 158 595 c 0,0,1
468 154 m 2,23,-1
 467 154 l 2,24,25
 282 154 282 154 152 282 c 0,26,27
 23 411 23 411 23 594 c 1,28,-1
 21 597 l 1,29,30
 21 778 21 778 152 909 c 0,31,32
 276 1033 276 1033 443 1033 c 0,33,34
 452 1033 452 1033 460 1032 c 0,35,36
 643 1021 643 1021 725 945 c 1,37,-1
 1007 1217 l 1,38,-1
 717 1219 l 1,39,-1
 826 1328 l 1,40,-1
 1212 1328 l 1,41,-1
 1212 944 l 1,42,-1
 1100 832 l 1,43,-1
 1100 1123 l 1,44,-1
 819 850 l 1,45,46
 904 758 904 758 904 588 c 0,47,48
 904 580 904 580 904 572 c 0,49,50
 900 401 900 401 781 282 c 0,51,52
 653 154 653 154 468 154 c 2,23,-1
EndSplineSet
Validated: 1
Comment: "Imported 2024/02/14 from public domain DejaVu Sans Mono font."
EndChar

StartChar: musicalnote
Encoding: 9834 9834 344
Width: 1233
GlyphClass: 2
Flags: W
LayerCount: 2
Fore
SplineSet
566 1450 m 1,0,-1
 648 1450 l 1,1,-1
 656 1444 l 1,2,-1
 656 1407 l 1,3,4
 681 1356 681 1356 844 1297 c 1,5,6
 1071 1231 1071 1231 1071 1100 c 0,7,8
 1071 963 1071 963 956 872 c 1,9,-1
 952 872 l 1,10,-1
 924 902 l 1,11,12
 981 949 981 949 981 1028 c 0,13,14
 981 1094 981 1094 766 1161 c 1,15,16
 679 1200 679 1200 656 1225 c 1,17,-1
 656 219 l 2,18,19
 656 75 656 75 444 33 c 1,20,-1
 391 33 l 2,21,22
 162 33 162 33 162 191 c 0,23,24
 162 315 162 315 362 336 c 1,25,-1
 384 336 l 2,26,27
 475 336 475 336 558 276 c 1,28,-1
 558 1444 l 1,29,-1
 566 1450 l 1,0,-1
EndSplineSet
Validated: 1
Comment: "Imported 2024/02/14 from public domain DejaVu Sans Mono font."
EndChar

StartChar: musicalnotedbl
Encoding: 9835 9835 345
Width: 1233
GlyphClass: 2
Flags: W
LayerCount: 2
Fore
SplineSet
473 1445 m 1,0,-1
 1125 1254 l 1,1,-1
 1127 1250 l 1,2,-1
 1127 25 l 2,3,4
 1127 -121 1127 -121 946 -161 c 1,5,-1
 895 -161 l 2,6,7
 694 -161 694 -161 694 -6 c 2,8,-1
 694 -2 l 2,9,10
 694 117 694 117 861 137 c 1,11,-1
 898 140 l 1,12,13
 979 140 979 140 1056 85 c 1,14,-1
 1056 1062 l 1,15,-1
 539 1221 l 1,16,-1
 539 220 l 2,17,18
 539 91 539 91 397 38 c 1,19,-1
 334 31 l 1,20,-1
 309 31 l 2,21,22
 106 31 106 31 106 177 c 2,23,-1
 106 184 l 2,24,25
 106 299 106 299 266 331 c 1,26,-1
 307 334 l 1,27,28
 391 334 391 334 466 271 c 1,29,-1
 466 1436 l 1,30,-1
 473 1445 l 1,0,-1
EndSplineSet
Validated: 1
Comment: "Imported 2024/02/14 from public domain DejaVu Sans Mono font."
EndChar

StartChar: sun
Encoding: 9788 9788 346
Width: 1233
GlyphClass: 2
Flags: W
LayerCount: 2
Fore
SplineSet
589 1332 m 1,0,-1
 650 1332 l 1,1,-1
 655 1327 l 1,2,-1
 655 1053 l 1,3,-1
 650 1048 l 1,4,-1
 589 1048 l 1,5,-1
 585 1053 l 1,6,-1
 585 1327 l 1,7,-1
 589 1332 l 1,0,-1
1029 1205 m 1,8,-1
 1073 1157 l 1,9,-1
 1073 1155 l 1,10,-1
 879 956 l 1,11,-1
 832 1005 l 1,12,-1
 1029 1205 l 1,8,-1
229 1190 m 1,13,-1
 426 992 l 1,14,-1
 378 942 l 1,15,-1
 375 942 l 1,16,17
 219 1098 219 1098 184 1141 c 1,18,-1
 184 1144 l 1,19,-1
 229 1190 l 1,13,-1
622 1002 m 0,20,21
 790 1002 790 1002 862 826 c 1,22,-1
 872 751 l 1,23,24
 872 604 872 604 719 526 c 1,25,26
 663 507 663 507 625 507 c 0,27,28
 484 507 484 507 405 638 c 0,29,30
 376 688 376 688 376 760 c 0,31,32
 376 900 376 900 524 981 c 1,33,34
 578 1002 578 1002 622 1002 c 0,20,21
37 788 m 1,35,-1
 302 788 l 1,36,-1
 307 783 l 1,37,-1
 307 721 l 1,38,-1
 302 716 l 1,39,-1
 37 716 l 1,40,-1
 33 721 l 1,41,-1
 33 783 l 1,42,-1
 37 788 l 1,35,-1
925 788 m 1,43,-1
 1195 788 l 1,44,-1
 1200 783 l 1,45,-1
 1200 721 l 1,46,-1
 1195 716 l 1,47,-1
 925 716 l 1,48,-1
 920 721 l 1,49,-1
 920 783 l 1,50,-1
 925 788 l 1,43,-1
865 564 m 1,51,-1
 867 564 l 1,52,53
 972 462 972 462 1061 368 c 1,54,-1
 1061 366 l 1,55,-1
 1013 316 l 1,56,-1
 819 514 l 1,57,-1
 819 517 l 1,58,-1
 865 564 l 1,51,-1
361 551 m 1,59,-1
 363 551 l 1,60,-1
 409 504 l 1,61,-1
 409 501 l 1,62,-1
 216 303 l 1,63,-1
 169 352 l 1,64,-1
 169 355 l 1,65,-1
 361 551 l 1,59,-1
589 448 m 1,66,-1
 650 448 l 1,67,-1
 655 443 l 1,68,-1
 655 169 l 1,69,-1
 650 164 l 1,70,-1
 589 164 l 1,71,-1
 585 169 l 1,72,-1
 585 443 l 1,73,-1
 589 448 l 1,66,-1
556 910 m 1,74,75
 455 854 455 854 455 758 c 0,76,77
 455 709 455 709 474 675 c 0,78,79
 528 586 528 586 625 586 c 0,80,81
 650 586 650 586 688 599 c 1,82,83
 793 651 793 651 793 753 c 1,84,-1
 786 803 l 1,85,86
 737 924 737 924 623 924 c 0,87,88
 592 924 592 924 556 910 c 1,74,75
EndSplineSet
Validated: 1
Comment: "Imported 2024/02/14 from public domain DejaVu Sans Mono font."
EndChar

StartChar: triaglf
Encoding: 9668 9668 347
Width: 1233
GlyphClass: 2
Flags: W
LayerCount: 2
Fore
SplineSet
6 532 m 1,0,-1
 1227 929 l 1,1,-1
 1227 135 l 1,2,-1
 6 532 l 1,0,-1
EndSplineSet
Validated: 1
Comment: "Imported 2024/02/14 from public domain DejaVu Sans Mono font."
EndChar

StartChar: arrowupdn
Encoding: 8597 8597 348
Width: 1233
GlyphClass: 2
Flags: W
LayerCount: 2
Fore
SplineSet
698 221 m 1,0,-1
 858 381 l 1,1,-1
 948 291 l 1,2,-1
 658 0 l 1,3,-1
 576 0 l 1,4,-1
 284 291 l 1,5,-1
 374 381 l 1,6,-1
 534 221 l 1,7,-1
 534 880 l 1,8,-1
 374 720 l 1,9,-1
 284 810 l 1,10,-1
 576 1101 l 1,11,-1
 658 1101 l 1,12,-1
 948 810 l 1,13,-1
 858 720 l 1,14,-1
 698 880 l 1,15,-1
 698 221 l 1,0,-1
EndSplineSet
Validated: 1
Comment: "Imported 2024/02/14 from public domain DejaVu Sans Mono font."
EndChar

StartChar: uniE102
Encoding: 57602 57602 350
Width: 1233
Flags: W
LayerCount: 2
Fore
SplineSet
229 443 m 1,0,-1
 729 943 l 1,1,-1
 1229 443 l 1,2,-1
 1054 443 l 1,3,-1
 729 768 l 1,4,-1
 404 443 l 1,5,-1
 229 443 l 1,0,-1
5 -250 m 1,6,-1
 505 249 l 1,7,-1
 1005 -250 l 1,8,-1
 830 -250 l 1,9,-1
 505 74 l 1,10,-1
 180 -250 l 1,11,-1
 5 -250 l 1,6,-1
EndSplineSet
Validated: 1
Comment: "Medievia +ACIA-MC_MOUNTAINS+ACIA glyph, relocated from U+-2020."
EndChar

StartChar: uni256D
Encoding: 9581 9581 351
Width: 1233
GlyphClass: 2
Flags: W
LayerCount: 2
Fore
SplineSet
536 -512 m 1,0,-1
 536 368 l 2,1,2
 536 533 536 533 621 661.5 c 128,-1,3
 706 790 706 790 876 790 c 2,4,-1
 1253 790 l 1,5,-1
 1253 618 l 1,6,-1
 876 618 l 2,7,8
 787 618 787 618 741.5 555 c 128,-1,9
 696 492 696 492 696 368 c 2,10,-1
 696 -512 l 1,11,-1
 536 -512 l 1,0,-1
EndSplineSet
Validated: 1
EndChar

StartChar: uni256E
Encoding: 9582 9582 352
Width: 1233
GlyphClass: 2
Flags: W
LayerCount: 2
Fore
SplineSet
536 -512 m 1,0,-1
 536 368 l 2,1,2
 536 494 536 494 490.5 556 c 128,-1,3
 445 618 445 618 356 618 c 2,4,-1
 -20 618 l 1,5,-1
 -20 790 l 1,6,-1
 356 790 l 2,7,8
 524 790 524 790 610 663 c 128,-1,9
 696 536 696 536 696 368 c 2,10,-1
 696 -512 l 1,11,-1
 536 -512 l 1,0,-1
EndSplineSet
Validated: 1
EndChar

StartChar: uni256F
Encoding: 9583 9583 353
Width: 1233
GlyphClass: 2
Flags: W
LayerCount: 2
Fore
SplineSet
-20 618 m 1,0,-1
 -20 790 l 1,1,-1
 356 790 l 2,2,3
 445 790 445 790 490.5 853 c 128,-1,4
 536 916 536 916 536 1040 c 2,5,-1
 536 1921 l 1,6,-1
 696 1921 l 1,7,-1
 696 1040 l 2,8,9
 696 872 696 872 610 745 c 128,-1,10
 524 618 524 618 356 618 c 2,11,-1
 -20 618 l 1,0,-1
EndSplineSet
Validated: 1
EndChar

StartChar: uni2570
Encoding: 9584 9584 354
Width: 1233
GlyphClass: 2
Flags: W
LayerCount: 2
Fore
SplineSet
1253 618 m 1,0,-1
 876 618 l 2,1,2
 708 618 708 618 622 745 c 128,-1,3
 536 872 536 872 536 1040 c 2,4,-1
 536 1921 l 1,5,-1
 696 1921 l 1,6,-1
 696 1040 l 2,7,8
 696 916 696 916 741.5 853 c 128,-1,9
 787 790 787 790 876 790 c 2,10,-1
 1253 790 l 1,11,-1
 1253 618 l 1,0,-1
EndSplineSet
Validated: 1
EndChar

StartChar: uniE10E
Encoding: 57614 57614 356
Width: 1233
Flags: W
LayerCount: 2
Fore
SplineSet
0 1106 m 1,0,1
 0 1169 l 1,2,3
 302 1475 302 1475 614.5 1475 c 128,-1,4
 927 1475 927 1475 1222 1180 c 2,5,-1
 1233 1169 l 1,6,-1
 1233 1105 l 1,7,8
 929 1389 929 1389 620 1390 c 0,9,10
 257 1390 257 1390 7 1112 c 0,11,12
 4 1109 4 1109 0 1106 c 1,0,1
400 -320 m 1,13,-1
 400 1116 l 1,14,-1
 791 1116 l 1,15,-1
 791 -320 l 1,16,-1
 400 -320 l 1,13,-1
EndSplineSet
Validated: 1
Comment: "Medievia +ACIA-MC_SMALL_WATERFALL+ACIA glyph relocated from U+-201D."
EndChar

StartChar: uniE111
Encoding: 57617 57617 357
Width: 1233
Flags: W
LayerCount: 2
Fore
SplineSet
0 6 m 25,0,-1
 0 135 l 25,1,2
 266 436 266 436 615.5 436 c 129,-1,3
 965 436 965 436 1233 129 c 1,4,-1
 1233 0 l 1,5,6
 963 287 963 287 613.5 287 c 129,-1,7
 264 287 264 287 0 6 c 25,0,-1
EndSplineSet
Validated: 1
Comment: "Medievia +ACIA-MC_EMBANKMENT+ACIA glyph relocated from U+-2014."
EndChar

StartChar: house
Encoding: 8962 8962 358
Width: 1233
Flags: W
LayerCount: 2
Fore
SplineSet
654 853 m 1,0,-1
 654 653 l 1,1,-1
 854 655 l 1,2,-1
 854 853 l 1,3,-1
 654 853 l 1,0,-1
282 0 m 1,4,-1
 282 889 l 1,5,-1
 60 889 l 1,6,-1
 616 1334 l 1,7,-1
 1172 889 l 1,8,-1
 950 889 l 1,9,-1
 950 0 l 1,10,-1
 618 0 l 1,11,-1
 618 500 l 1,12,-1
 418 500 l 1,13,-1
 418 0 l 1,14,-1
 282 0 l 1,4,-1
EndSplineSet
Validated: 1
Comment: "Medievia +ACIA-MC_HOUSE+ACIA glyph, relocated from U+-00AB to correct location for this grapheme."
EndChar

StartChar: uniE112
Encoding: 57618 57618 359
Width: 1233
Flags: W
LayerCount: 2
Fore
SplineSet
796 0 m 25,0,-1
 739 167 l 25,1,-1
 911 310 l 1,2,-1
 775 463 l 25,3,-1
 830 631 l 1,4,-1
 802 655 l 25,5,-1
 915 655 l 1,6,-1
 915 853 l 1,7,-1
 742 853 l 1,8,-1
 843 931 l 1,9,-1
 659 1095 l 1,10,-1
 837 1206 l 1,11,-1
 1233 889 l 1,12,-1
 1011 889 l 25,13,-1
 1011 0 l 1,14,-1
 796 0 l 25,0,-1
503 1 m 25,15,-1
 566 85 l 25,16,-1
 651 0 l 25,17,-1
 503 1 l 25,15,-1
679 0 m 25,18,-1
 679 114 l 25,19,-1
 795 0 l 25,20,-1
 679 0 l 25,18,-1
344 -7 m 1,21,-1
 220 873 l 1,22,-1
 -0 842 l 1,23,-1
 252 1110 l 1,24,-1
 395 1009 l 1,25,-1
 335 798 l 1,26,-1
 583 615 l 1,27,-1
 528 524 l 1,28,-1
 409 507 l 1,29,-1
 478 12 l 1,30,-1
 344 -7 l 1,21,-1
EndSplineSet
Validated: 1
Comment: "Medievia +ACIA-MC_RUINS+ACIA glyph.+AAoA-Made by taking the MC_HOUSE glyph, drawing a zig-zag lighting bolt down through the middle and removing the intersecting pieces and then making the left hand side rotate anti-clockwise as though it was falling over; adjusted lateral positioning so that the whole glyph stayed within bounds."
EndChar

StartChar: uniE113
Encoding: 57619 57619 360
Width: 1233
Flags: W
LayerCount: 2
Fore
SplineSet
911 279 m 128,-1,1
 911 310 911 310 933 332 c 128,-1,2
 955 354 955 354 986 354 c 128,-1,3
 1017 354 1017 354 1039 332 c 128,-1,4
 1061 310 1061 310 1061 279 c 128,-1,5
 1061 248 1061 248 1039 226 c 128,-1,6
 1017 204 1017 204 986 204 c 128,-1,7
 955 204 955 204 933 226 c 128,-1,0
 911 248 911 248 911 279 c 128,-1,1
665 279 m 128,-1,9
 665 310 665 310 687 332 c 128,-1,10
 709 354 709 354 740 354 c 128,-1,11
 771 354 771 354 793 332 c 128,-1,12
 815 310 815 310 815 279 c 128,-1,13
 815 248 815 248 793 226 c 128,-1,14
 771 204 771 204 740 204 c 128,-1,15
 709 204 709 204 687 226 c 128,-1,8
 665 248 665 248 665 279 c 128,-1,9
418 279 m 128,-1,17
 418 310 418 310 440 332 c 128,-1,18
 462 354 462 354 493 354 c 128,-1,19
 524 354 524 354 546 332 c 128,-1,20
 568 310 568 310 568 279 c 128,-1,21
 568 248 568 248 546 226 c 128,-1,22
 524 204 524 204 493 204 c 128,-1,23
 462 204 462 204 440 226 c 128,-1,16
 418 248 418 248 418 279 c 128,-1,17
172 279 m 128,-1,25
 172 310 172 310 194 332 c 128,-1,26
 216 354 216 354 247 354 c 128,-1,27
 278 354 278 354 300 332 c 128,-1,28
 322 310 322 310 322 279 c 128,-1,29
 322 248 322 248 300 226 c 128,-1,30
 278 204 278 204 247 204 c 128,-1,31
 216 204 216 204 194 226 c 128,-1,24
 172 248 172 248 172 279 c 128,-1,25
1233 452 m 1,32,-1
 0 452 l 1,33,-1
 0 552 l 1,34,-1
 1233 552 l 1,35,-1
 1233 452 l 1,32,-1
EndSplineSet
Validated: 1
Comment: "Medievia +ACIA-MC_PLATEAUX+ACIA glyph relocated from U+-2122."
EndChar

StartChar: breve
Encoding: 728 728 361
Width: 1233
Flags: W
LayerCount: 2
Fore
SplineSet
303 1608 m 1,0,-1
 422 1608 l 1,1,2
 433 1532 433 1532 481 1495 c 128,-1,3
 529 1458 529 1458 616 1458 c 0,4,5
 701 1458 701 1458 749 1495 c 128,-1,6
 797 1532 797 1532 811 1608 c 1,7,-1
 930 1608 l 1,8,9
 919 1465 919 1465 840 1393 c 128,-1,10
 761 1321 761 1321 616 1321 c 0,11,12
 472 1321 472 1321 393 1393 c 128,-1,13
 314 1465 314 1465 303 1608 c 1,0,-1
EndSplineSet
Validated: 1
EndChar

StartChar: u1F451
Encoding: 128081 128081 362
Width: 1233
LayerCount: 2
Fore
SplineSet
822 507 m 2,0,-1
 412 507 l 2,1,2
 384 507 384 507 302 518 c 0,3,4
 217 528 217 528 170 545 c 0,5,6
 62 584 62 584 62 660 c 0,7,8
 62 661 62 661 62 662 c 0,9,10
 61.9838709677 663.209677419 61.9838709677 663.209677419 61.9838709677 664.405827263 c 0,11,12
 61.9838709677 737.370967742 61.9838709677 737.370967742 122 760 c 1,13,-1
 51 1140 l 1,14,-1
 73 1140 l 2,15,16
 126 1140 126 1140 175 1114 c 1,17,18
 164 1061 164 1061 164 1052 c 0,19,20
 166 982 166 982 210 974 c 1,21,22
 229 1002 229 1002 255 1051 c 1,23,-1
 279 963 l 1,24,25
 309 985 309 985 336.5 985 c 128,-1,26
 364 985 364 985 397 963 c 1,27,28
 402 986 402 986 415 1031 c 1,29,30
 417 1029 417 1029 450.5 1001.5 c 128,-1,31
 484 974 484 974 503.5 974 c 128,-1,32
 523 974 523 974 537.5 990 c 128,-1,33
 552 1006 552 1006 552.5 1024.5 c 128,-1,34
 553 1043 553 1043 534 1072 c 1,35,-1
 506 1115 l 1,36,37
 516 1118 516 1118 555 1129 c 128,-1,38
 594 1140 594 1140 616.5 1140 c 128,-1,39
 639 1140 639 1140 669 1131.5 c 128,-1,40
 699 1123 699 1123 727 1115 c 1,41,-1
 699 1072 l 1,42,43
 680 1040 680 1040 680.5 1024 c 128,-1,44
 681 1008 681 1008 696.5 991 c 128,-1,45
 712 974 712 974 730 974 c 128,-1,46
 748 974 748 974 773 994 c 128,-1,47
 798 1014 798 1014 818 1031 c 1,48,-1
 837 963 l 1,49,50
 877 985 877 985 902.5 985 c 128,-1,51
 928 985 928 985 952 963 c 1,52,53
 960 991 960 991 978 1050 c 1,54,55
 1002 1010 1002 1010 1024 974 c 1,56,57
 1068 982 1068 982 1069 1052 c 1,58,59
 1069 1042 1069 1042 1058 1114 c 1,60,61
 1111 1140 1111 1140 1183 1140 c 1,62,-1
 1111 760 l 1,63,64
 1172 723 1172 723 1172 663 c 0,65,66
 1172 573 1172 573 1035 535 c 0,67,68
 931 507 931 507 822 507 c 2,0,-1
1118 1108 m 2,69,70
 1112 1108 1112 1108 1107 1104 c 1,71,72
 1107 1048 1107 1048 1100.5 1018 c 128,-1,73
 1094 988 1094 988 1068 965.5 c 128,-1,74
 1042 943 1042 943 1025 943 c 128,-1,75
 1008 943 1008 943 988 967 c 1,76,77
 970 901 970 901 970 869 c 0,78,79
 970 868 970 868 970 866 c 1,80,81
 1004 888 1004 888 1016 888 c 0,82,83
 1062 888 1062 888 1062 816 c 0,84,85
 1062 769 1062 769 1042 741 c 1,86,-1
 932 741 l 1,87,88
 900 787 900 787 900 859 c 2,89,-1
 900 862 l 1,90,91
 939 879 939 879 938 910 c 0,92,93
 938 928 938 928 926.5 941.5 c 128,-1,94
 915 955 915 955 896 955 c 128,-1,95
 877 955 877 955 863.5 941.5 c 128,-1,96
 850 928 850 928 850 902.5 c 128,-1,97
 850 877 850 877 878 864 c 1,98,99
 871 838 871 838 864.5 811.5 c 128,-1,100
 858 785 858 785 837.5 763 c 128,-1,101
 817 741 817 741 814 741 c 2,102,-1
 651 741 l 1,103,104
 639 773 639 773 639 789 c 0,105,106
 639 790 639 790 639 792 c 0,107,108
 638.966101695 793.220338983 638.966101695 793.220338983 638.966101695 794.433783396 c 0,109,110
 638.966101695 829.016949153 638.966101695 829.016949153 666.5 858 c 0,111,112
 695 888 695 888 734 888 c 0,113,114
 751 888 751 888 798 866 c 1,115,116
 802 884 802 884 802 909.5 c 128,-1,117
 802 935 802 935 798 969 c 1,118,119
 773 943 773 943 734 943 c 128,-1,120
 695 943 695 943 667 973 c 128,-1,121
 639 1003 639 1003 639 1034 c 128,-1,122
 639 1065 639 1065 658 1104 c 1,123,124
 642 1108 642 1108 615 1108 c 128,-1,125
 588 1108 588 1108 574 1104 c 1,126,127
 594 1066 594 1066 594 1034 c 0,128,129
 595 1033 595 1033 595 1033 c 0,130,131
 595 1001 595 1001 566 972 c 128,-1,132
 537 943 537 943 500 943 c 128,-1,133
 463 943 463 943 435 969 c 1,134,135
 432 936 432 936 432 910 c 0,136,137
 432 885 432 885 435 866 c 1,138,139
 478 888 478 888 508 888 c 128,-1,140
 538 888 538 888 566 858 c 128,-1,141
 594 828 594 828 594 792 c 0,142,143
 594 768 594 768 582 741 c 1,144,-1
 420 741 l 2,145,146
 410 741 410 741 390 769 c 128,-1,147
 370 797 370 797 365.5 819 c 128,-1,148
 361 841 361 841 356 864 c 1,149,150
 385 872 385 872 384 909 c 0,151,152
 383 955 383 955 339 955 c 0,153,154
 338 955 338 955 337 955 c 0,155,156
 319 955 319 955 307 942 c 128,-1,157
 295 929 295 929 295 905.5 c 128,-1,158
 295 882 295 882 333 862 c 1,159,-1
 333 860 l 2,160,161
 333 786 333 786 301 741 c 1,162,-1
 192 741 l 1,163,164
 172 775 172 775 172 815 c 0,165,166
 172 817 172 817 172 818 c 0,167,168
 171.978723404 819.489361702 171.978723404 819.489361702 171.978723404 820.947034857 c 0,169,170
 171.978723404 888 171.978723404 888 217 888 c 0,171,172
 229 888 229 888 264 866 c 1,173,-1
 264 878 l 2,174,175
 264 895 264 895 244 969 c 1,176,177
 228 943 228 943 213 943 c 0,178,179
 195 943 195 943 176 955 c 0,180,181
 153 969 153 969 138 1006 c 0,182,183
 124 1041 124 1041 124 1067 c 0,184,185
 124 1070 124 1070 124 1073 c 0,186,187
 126 1101 126 1101 126 1106 c 1,188,189
 115 1107 115 1107 109.5 1107 c 128,-1,190
 104 1107 104 1107 98 1106 c 1,191,192
 143 865 143 865 166 744 c 1,193,-1
 165 741 l 1,194,195
 104 729 104 729 104 675 c 0,196,197
 104 675 104 675 104 674 c 0,198,199
 103.995169082 673.594202899 103.995169082 673.594202899 103.995169082 673.189899414 c 0,200,201
 103.995169082 589.903381643 103.995169082 589.903381643 309 570 c 0,202,203
 391 562 391 562 399 562 c 2,204,-1
 835 562 l 1,205,206
 829 562 829 562 867 565 c 0,207,208
 1130 585 1130 585 1130 675 c 0,209,210
 1130 728 1130 728 1066 742 c 1,211,-1
 1135 1108 l 1,212,-1
 1118 1108 l 2,69,70
913 909.5 m 128,-1,214
 913 889 913 889 895 889 c 0,215,216
 874 889 874 889 874 910 c 0,217,218
 874 930 874 930 893.5 930 c 128,-1,213
 913 930 913 930 913 909.5 c 128,-1,214
616.5 871 m 128,-1,220
 599 871 599 871 585.5 884 c 128,-1,221
 572 897 572 897 572 915 c 128,-1,222
 572 933 572 933 585 947 c 128,-1,223
 598 961 598 961 616.5 961 c 128,-1,224
 635 961 635 961 648 947 c 128,-1,225
 661 933 661 933 661 915 c 128,-1,226
 661 897 661 897 647.5 884 c 128,-1,219
 634 871 634 871 616.5 871 c 128,-1,220
321 909.5 m 128,-1,228
 321 930 321 930 340 930 c 128,-1,229
 359 930 359 930 359.5 909.5 c 128,-1,230
 360 889 360 889 340.5 889 c 128,-1,227
 321 889 321 889 321 909.5 c 128,-1,228
EndSplineSet
Validated: 1
Comment: "Imported 2024/02/14 from public domain Symbola_hint font, simplifed a bit and shrunk."
EndChar

StartChar: uniE130
Encoding: 57648 57648 365
Width: 1233
Flags: W
LayerCount: 2
Fore
SplineSet
100 920 m 1,0,-1
 100 -204 l 1,1,-1
 289 -204 l 1,2,-1
 289 920 l 1,3,-1
 100 920 l 1,0,-1
500 1872 m 1,4,-1
 500 753 l 1,5,-1
 689 753 l 1,6,-1
 689 1872 l 1,7,-1
 500 1872 l 1,4,-1
500 595 m 1,8,-1
 500 -338 l 1,9,-1
 689 -338 l 1,10,-1
 689 595 l 1,11,-1
 500 595 l 1,8,-1
900 944 m 1,12,-1
 900 -179 l 1,13,-1
 1089 -179 l 1,14,-1
 1089 944 l 1,15,-1
 900 944 l 1,12,-1
1089 -492 m 1,16,-1
 1089 -341 l 1,17,-1
 900 -341 l 1,18,-1
 900 -492 l 1,19,-1
 289 -492 l 1,20,-1
 289 -378 l 1,21,-1
 100 -378 l 1,22,-1
 100 -492 l 1,23,-1
 0 -492 l 1,24,-1
 0 1896 l 1,25,-1
 1233 1896 l 1,26,-1
 1233 -492 l 1,27,-1
 1089 -492 l 1,16,-1
1089 1891 m 1,28,-1
 900 1891 l 1,29,-1
 900 1061 l 1,30,-1
 1089 1061 l 1,31,-1
 1089 1891 l 1,28,-1
289 1888 m 1,32,-1
 100 1888 l 1,33,-1
 100 1061 l 1,34,-1
 289 1061 l 1,35,-1
 289 1888 l 1,32,-1
EndSplineSet
Validated: 1
Comment: "Medievia +ACIA-MC_PLANKS+ACIA glyph."
EndChar

StartChar: uniE12F
Encoding: 57647 57647 366
Width: 1233
Flags: W
LayerCount: 2
Fore
SplineSet
200 -300 m 1,0,-1
 200 0 l 1,1,-1
 0 0 l 1,2,-1
 0 200 l 1,3,-1
 476 200 l 1,4,-1
 436 259 l 1,5,6
 431 281 431 281 431 303 c 0,7,8
 431 430 431 430 600 600 c 1,9,-1
 900 568 l 1,10,11
 1083 408 1083 408 1083 291 c 0,12,13
 1083 274 1083 274 1079 257 c 1,14,-1
 1032 200 l 1,15,-1
 1233 199 l 1,16,-1
 1233 -1 l 1,17,-1
 1000 0 l 1,18,-1
 1000 -300 l 1,19,-1
 200 -300 l 1,0,-1
687.5 923 m 128,-1,21
 729 945 729 945 772.5 945 c 128,-1,22
 816 945 816 945 857 923 c 128,-1,23
 898 901 898 901 921.5 859.5 c 128,-1,24
 945 818 945 818 945 773 c 128,-1,25
 945 728 945 728 922.5 687 c 128,-1,26
 900 646 900 646 858.5 623 c 128,-1,27
 817 600 817 600 772.5 600 c 128,-1,28
 728 600 728 600 687 623 c 128,-1,29
 646 646 646 646 623 687 c 128,-1,30
 600 728 600 728 600 773 c 128,-1,31
 600 818 600 818 623 859.5 c 128,-1,20
 646 901 646 901 687.5 923 c 128,-1,21
EndSplineSet
Validated: 1
Comment: "Medievia +ACIA-MC_SHOP+ACIA glyph."
EndChar

StartChar: uniE12D
Encoding: 57645 57645 367
Width: 1233
Flags: W
LayerCount: 2
Fore
SplineSet
892 -123 m 1,0,-1
 888 1 l 1,1,-1
 1124 15 l 1,2,-1
 1144 -394 l 1,3,-1
 1014 -400 l 1,4,-1
 1002 -118 l 1,5,-1
 892 -123 l 1,0,-1
786 350 m 1,6,-1
 782 588 l 1,7,-1
 1192 588 l 1,8,-1
 1192 459 l 1,9,-1
 910 459 l 1,10,-1
 910 350 l 1,11,-1
 786 350 l 1,6,-1
46 1285 m 1,12,-1
 42 1523 l 1,13,-1
 452 1523 l 1,14,-1
 452 1394 l 1,15,-1
 170 1394 l 1,16,-1
 170 1285 l 1,17,-1
 46 1285 l 1,12,-1
162 468 m 1,18,-1
 572 468 l 1,19,-1
 572 339 l 1,20,-1
 290 339 l 1,21,-1
 290 230 l 1,22,-1
 166 230 l 1,23,-1
 162 468 l 1,18,-1
560 1222 m 1,24,-1
 558 1346 l 1,25,-1
 796 1348 l 1,26,-1
 800 942 l 1,27,-1
 670 941 l 1,28,-1
 668 1223 l 1,29,-1
 560 1222 l 1,24,-1
1188 713 m 1,30,-1
 950 700 l 1,31,-1
 934 1110 l 1,32,-1
 1064 1115 l 1,33,-1
 1074 833 l 1,34,-1
 1184 837 l 1,35,-1
 1188 713 l 1,30,-1
232 683 m 1,36,-1
 216 1093 l 1,37,-1
 346 1098 l 1,38,-1
 356 816 l 1,39,-1
 466 820 l 1,40,-1
 470 690 l 1,41,-1
 232 683 l 1,36,-1
72 -92 m 1,42,-1
 70 40 l 1,43,-1
 308 40 l 1,44,-1
 314 -370 l 1,45,-1
 186 -373 l 1,46,-1
 180 -90 l 1,47,-1
 72 -92 l 1,42,-1
EndSplineSet
Validated: 1
Comment: "Medievia +ACIA-MC_MARBLE+ACIA glyph, relocated from U+-00E5."
EndChar

StartChar: uniE12B
Encoding: 57643 57643 369
Width: 1233
Flags: W
LayerCount: 2
Fore
SplineSet
1080 -53 m 1,0,-1
 1080 168 l 1,1,-1
 1182 168 l 1,2,-1
 1182 -53 l 1,3,-1
 1080 -53 l 1,0,-1
1080 276 m 1,4,-1
 1080 499 l 1,5,-1
 1182 499 l 1,6,-1
 1182 276 l 1,7,-1
 1080 276 l 1,4,-1
1078 592 m 1,8,-1
 1078 831 l 1,9,-1
 1182 831 l 1,10,-1
 1182 592 l 1,11,-1
 1078 592 l 1,8,-1
874 -68 m 1,12,-1
 874 40 l 1,13,-1
 976 40 l 1,14,-1
 976 -68 l 1,15,-1
 874 -68 l 1,12,-1
874 146 m 1,16,-1
 874 344 l 1,17,-1
 976 344 l 1,18,-1
 976 146 l 1,19,-1
 874 146 l 1,16,-1
874 496 m 1,20,-1
 874 684 l 1,21,-1
 976 684 l 1,22,-1
 976 496 l 1,23,-1
 874 496 l 1,20,-1
668 -53 m 1,24,-1
 668 168 l 1,25,-1
 770 168 l 1,26,-1
 770 -53 l 1,27,-1
 668 -53 l 1,24,-1
668 276 m 1,28,-1
 668 499 l 1,29,-1
 770 499 l 1,30,-1
 770 276 l 1,31,-1
 668 276 l 1,28,-1
670 592 m 1,32,-1
 670 595 l 1,33,-1
 668 831 l 1,34,-1
 770 831 l 1,35,-1
 770 592 l 1,36,-1
 670 592 l 1,32,-1
462 -32 m 1,37,-1
 462 76 l 1,38,-1
 562 76 l 1,39,-1
 562 -32 l 1,40,-1
 462 -32 l 1,37,-1
462 183 m 1,41,-1
 462 380 l 1,42,-1
 562 380 l 1,43,-1
 562 183 l 1,44,-1
 462 183 l 1,41,-1
462 532 m 1,45,-1
 462 720 l 1,46,-1
 562 720 l 1,47,-1
 562 532 l 1,48,-1
 462 532 l 1,45,-1
258 -56 m 1,49,-1
 258 165 l 1,50,-1
 360 165 l 1,51,-1
 360 -56 l 1,52,-1
 258 -56 l 1,49,-1
258 273 m 1,53,-1
 258 496 l 1,54,-1
 360 496 l 1,55,-1
 360 273 l 1,56,-1
 258 273 l 1,53,-1
258 589 m 1,57,-1
 258 828 l 1,58,-1
 360 828 l 1,59,-1
 360 589 l 1,60,-1
 258 589 l 1,57,-1
52 -68 m 1,61,-1
 52 32 l 1,62,-1
 154 32 l 1,63,-1
 154 -68 l 1,64,-1
 52 -68 l 1,61,-1
52 132 m 1,65,-1
 52 332 l 1,66,-1
 154 332 l 1,67,-1
 154 132 l 1,68,-1
 52 132 l 1,65,-1
52 432 m 1,69,-1
 52 632 l 1,70,-1
 154 632 l 1,71,-1
 154 432 l 1,72,-1
 52 432 l 1,69,-1
1182 909 m 1,73,-1
 1080 909 l 1,74,-1
 1080 1130 l 1,75,-1
 1182 1130 l 1,76,-1
 1182 909 l 1,73,-1
1182 1237 m 1,77,-1
 1080 1237 l 1,78,-1
 1080 1461 l 1,79,-1
 1182 1461 l 1,80,-1
 1182 1237 l 1,77,-1
1182 1554 m 1,81,-1
 1080 1554 l 1,82,-1
 1080 1793 l 1,83,-1
 1182 1793 l 1,84,-1
 1182 1554 l 1,81,-1
976 1001 m 1,85,-1
 976 791 l 1,86,-1
 874 791 l 1,87,-1
 874 1001 l 1,88,-1
 976 1001 l 1,85,-1
976 1108 m 1,89,-1
 874 1108 l 1,90,-1
 874 1306 l 1,91,-1
 976 1306 l 1,92,-1
 976 1108 l 1,89,-1
976 1458 m 1,93,-1
 874 1458 l 1,94,-1
 874 1646 l 1,95,-1
 976 1646 l 1,96,-1
 976 1458 l 1,93,-1
976 1753 m 1,97,-1
 874 1753 l 1,98,-1
 874 1860 l 1,99,-1
 976 1860 l 1,100,-1
 976 1753 l 1,97,-1
770 909 m 1,101,-1
 668 909 l 1,102,-1
 668 1130 l 1,103,-1
 770 1130 l 1,104,-1
 770 909 l 1,101,-1
770 1237 m 1,105,-1
 668 1237 l 1,106,-1
 668 1461 l 1,107,-1
 770 1461 l 1,108,-1
 770 1237 l 1,105,-1
770 1554 m 1,109,-1
 666 1554 l 1,110,-1
 666 1793 l 1,111,-1
 770 1793 l 1,112,-1
 770 1554 l 1,109,-1
562 1037 m 1,113,-1
 562 827 l 1,114,-1
 462 827 l 1,115,-1
 462 1037 l 1,116,-1
 562 1037 l 1,113,-1
562 1144 m 1,117,-1
 462 1144 l 1,118,-1
 462 1342 l 1,119,-1
 562 1342 l 1,120,-1
 562 1144 l 1,117,-1
562 1494 m 1,121,-1
 462 1494 l 1,122,-1
 462 1682 l 1,123,-1
 562 1682 l 1,124,-1
 562 1494 l 1,121,-1
562 1789 m 1,125,-1
 462 1789 l 1,126,-1
 462 1896 l 1,127,-1
 562 1896 l 1,128,-1
 562 1789 l 1,125,-1
360 905 m 1,129,-1
 258 905 l 1,130,-1
 258 1127 l 1,131,-1
 360 1127 l 1,132,-1
 360 905 l 1,129,-1
360 1234 m 1,133,-1
 258 1234 l 1,134,-1
 258 1458 l 1,135,-1
 360 1458 l 1,136,-1
 360 1234 l 1,133,-1
360 1551 m 1,137,-1
 258 1551 l 1,138,-1
 258 1790 l 1,139,-1
 360 1790 l 1,140,-1
 360 1551 l 1,137,-1
154 932 m 1,141,-1
 154 732 l 1,142,-1
 52 732 l 1,143,-1
 52 932 l 1,144,-1
 154 932 l 1,141,-1
154 1032 m 1,145,-1
 52 1032 l 1,146,-1
 52 1232 l 1,147,-1
 154 1232 l 1,148,-1
 154 1032 l 1,145,-1
154 1332 m 1,149,-1
 52 1332 l 1,150,-1
 52 1532 l 1,151,-1
 154 1532 l 1,152,-1
 154 1332 l 1,149,-1
154 1632 m 1,153,-1
 52 1632 l 1,154,-1
 52 1832 l 1,155,-1
 154 1832 l 1,156,-1
 154 1632 l 1,153,-1
EndSplineSet
Validated: 1
Comment: "Medievia +ACIA-MC_COBBLES+ACIA glyph.+AAoA-Relocated from U+-00E2."
EndChar

StartChar: uniE132
Encoding: 57650 57650 370
Width: 1233
Flags: W
LayerCount: 2
Fore
SplineSet
0 1900 m 5,0,-1
 1233 1900 l 5,1,-1
 1233 -492 l 5,2,-1
 0 -492 l 5,3,-1
 0 1900 l 5,0,-1
1100 1767 m 5,4,-1
 133 1767 l 5,5,-1
 133 -359 l 5,6,-1
 1100 -359 l 5,7,-1
 1100 1767 l 5,4,-1
EndSplineSet
Validated: 1
Comment: "Medievia +ACIA-MC_HOLLOW_BOX+ACIA glyph."
EndChar

StartChar: u1F4D5
Encoding: 128213 128213 371
Width: 1233
LayerCount: 2
Fore
SplineSet
1162 922 m 1,0,-1
 836 72 l 1,1,-1
 404 99 l 2,2,3
 342 101 342 101 220 114 c 1,4,5
 169 123 169 123 120.5 174.5 c 128,-1,6
 72 226 72 226 72 277 c 2,7,-1
 72 288 l 1,8,-1
 513 1050 l 1,9,-1
 538 1040 l 1,10,-1
 1103 1092 l 1,11,-1
 1078 1030 l 1,12,13
 1086 962 1086 962 1122 922 c 1,14,-1
 1162 922 l 1,0,-1
1069 821 m 1,15,16
 1043 843 1043 843 1029 888 c 1,17,-1
 790 291 l 1,18,-1
 777 292 l 1,19,20
 783 236 783 236 831 210 c 1,21,-1
 1069 821 l 1,15,16
946 965 m 1,22,-1
 549 931 l 1,23,-1
 233 374 l 1,24,-1
 700 349 l 1,25,-1
 946 965 l 1,22,-1
690 138 m 1,26,27
 658 172 658 172 653 222 c 1,28,-1
 193 246 l 1,29,30
 203 210 203 210 235 187 c 128,-1,31
 267 164 267 164 304 162 c 2,32,-1
 690 138 l 1,26,27
EndSplineSet
Validated: 1
Comment: "U+-1F4D9 {ORANGE BOOK} glyph imported 2024/02/14 from Symbola_hint font and removed patterning (that was to suggest color) from cover, then inner elements scaled down to 80% about their centres to make the outlines thicker."
EndChar

StartChar: u1F6B9
Encoding: 128697 128697 372
Width: 1233
LayerCount: 2
Fore
SplineSet
766 1350 m 0,0,1
 766 1295 766 1295 724 1253.5 c 128,-1,2
 682 1212 682 1212 628 1212 c 0,3,4
 571 1212 571 1212 527.5 1252.5 c 128,-1,5
 484 1293 484 1293 484 1350 c 128,-1,6
 484 1407 484 1407 528 1448 c 128,-1,7
 572 1489 572 1489 628 1489 c 0,8,9
 687 1489 687 1489 726.5 1449 c 128,-1,10
 766 1409 766 1409 766 1350 c 0,0,1
1000 462 m 2,11,12
 1000 446 1000 446 971 430 c 128,-1,13
 942 414 942 414 924 414 c 0,14,15
 902 414 902 414 876 435 c 128,-1,16
 850 456 850 456 850 478 c 2,17,-1
 850 900 l 1,18,-1
 814 900 l 1,19,-1
 814 -273 l 2,20,21
 814 -294 814 -294 784 -313.5 c 128,-1,22
 754 -333 754 -333 732 -333 c 0,23,24
 640 -333 640 -333 640 -260 c 2,25,-1
 640 408 l 1,26,27
 632 417 632 417 620 417 c 0,28,29
 606 417 606 417 598 408 c 1,30,-1
 598 -273 l 2,31,32
 598 -283 598 -283 570 -308 c 0,33,34
 540 -332 540 -332 530 -332 c 0,35,36
 492 -332 492 -332 462 -315 c 0,37,38
 424 -295 424 -295 424 -260 c 2,39,-1
 424 900 l 1,40,-1
 388 900 l 1,41,-1
 388 462 l 2,42,43
 388 410 388 410 312 410 c 0,44,45
 234 410 234 410 234 466 c 2,46,-1
 234 981 l 2,47,48
 234 1049 234 1049 300 1108 c 0,49,50
 364 1165 364 1165 432 1165 c 2,51,-1
 832 1165 l 2,52,53
 881 1165 881 1165 940.5 1106 c 128,-1,54
 1000 1047 1000 1047 1000 998 c 2,55,-1
 1000 462 l 2,11,12
EndSplineSet
Validated: 1
EndChar

StartChar: uniE12A
Encoding: 57642 57642 373
Width: 1233
Flags: W
LayerCount: 2
Fore
SplineSet
0 916 m 5,0,-1
 0 1117 l 5,1,-1
 206 1117 l 5,2,-1
 206 916 l 5,3,-1
 0 916 l 5,0,-1
194 1309 m 5,4,-1
 194 1510 l 5,5,-1
 400 1510 l 5,6,-1
 400 1309 l 5,7,-1
 194 1309 l 5,4,-1
394 -67 m 5,8,-1
 394 134 l 5,9,-1
 600 134 l 5,10,-1
 600 -67 l 5,11,-1
 394 -67 l 5,8,-1
600 321 m 5,12,-1
 600 523 l 5,13,-1
 806 523 l 5,14,-1
 806 321 l 5,15,-1
 600 321 l 5,12,-1
794 714 m 5,16,-1
 794 916 l 5,17,-1
 1000 916 l 5,18,-1
 1000 714 l 5,19,-1
 794 714 l 5,16,-1
1000 1112 m 5,20,-1
 1000 1313 l 5,21,-1
 1206 1313 l 5,22,-1
 1206 1112 l 5,23,-1
 1000 1112 l 5,20,-1
994 125 m 5,24,-1
 994 326 l 5,25,-1
 1200 326 l 5,26,-1
 1200 125 l 5,27,-1
 994 125 l 5,24,-1
1129 519 m 5,28,-1
 1129 720 l 5,29,-1
 1233 720 l 5,30,-1
 1233 519 l 5,31,-1
 1129 519 l 5,28,-1
0 518 m 5,32,-1
 0 719 l 5,33,-1
 104 719 l 5,34,-1
 104 518 l 5,35,-1
 0 518 l 5,32,-1
0 1697 m 5,36,-1
 0 1898 l 5,37,-1
 206 1898 l 5,38,-1
 206 1697 l 5,39,-1
 0 1697 l 5,36,-1
0 130 m 5,40,-1
 0 331 l 5,41,-1
 206 331 l 5,42,-1
 206 130 l 5,43,-1
 0 130 l 5,40,-1
594 1112 m 5,44,-1
 594 1313 l 5,45,-1
 800 1313 l 5,46,-1
 800 1112 l 5,47,-1
 594 1112 l 5,44,-1
794 1505 m 5,48,-1
 794 1706 l 5,49,-1
 1000 1706 l 5,50,-1
 1000 1505 l 5,51,-1
 794 1505 l 5,48,-1
400 719 m 5,52,-1
 400 920 l 5,53,-1
 606 920 l 5,54,-1
 606 719 l 5,55,-1
 400 719 l 5,52,-1
400 1702 m 5,56,-1
 400 1903 l 5,57,-1
 606 1903 l 5,58,-1
 606 1702 l 5,59,-1
 400 1702 l 5,56,-1
EndSplineSet
Validated: 1
Comment: "Medievia +ACIA-MC_FLAGSTONES+ACIA glyph.+AAoA-Relocated from U+-00E1."
EndChar

StartChar: uniE129
Encoding: 57641 57641 374
Width: 1233
Flags: W
LayerCount: 2
Fore
SplineSet
898 1731 m 1,0,-1
 600 1731 l 1,1,-1
 600 1614 l 1,2,-1
 898 1614 l 1,3,-1
 898 1731 l 1,0,-1
498 1731 m 1,4,-1
 200 1731 l 1,5,-1
 200 1614 l 1,6,-1
 498 1614 l 1,7,-1
 498 1731 l 1,4,-1
1100 1498 m 1,8,-1
 802 1498 l 1,9,-1
 802 1381 l 1,10,-1
 1100 1381 l 1,11,-1
 1100 1498 l 1,8,-1
698 1498 m 1,12,-1
 400 1498 l 1,13,-1
 400 1381 l 1,14,-1
 698 1381 l 1,15,-1
 698 1498 l 1,12,-1
898 1265 m 1,16,-1
 600 1265 l 1,17,-1
 600 1148 l 1,18,-1
 898 1148 l 1,19,-1
 898 1265 l 1,16,-1
498 1265 m 1,20,-1
 200 1265 l 1,21,-1
 200 1148 l 1,22,-1
 498 1148 l 1,23,-1
 498 1265 l 1,20,-1
1100 1032 m 1,24,-1
 802 1032 l 1,25,-1
 802 915 l 1,26,-1
 1100 915 l 1,27,-1
 1100 1032 l 1,24,-1
698 1032 m 1,28,-1
 400 1032 l 1,29,-1
 400 915 l 1,30,-1
 698 915 l 1,31,-1
 698 1032 l 1,28,-1
898 799 m 1,32,-1
 600 799 l 1,33,-1
 600 682 l 1,34,-1
 898 682 l 1,35,-1
 898 799 l 1,32,-1
498 799 m 1,36,-1
 200 799 l 1,37,-1
 200 682 l 1,38,-1
 498 682 l 1,39,-1
 498 799 l 1,36,-1
1100 566 m 1,40,-1
 802 566 l 1,41,-1
 802 449 l 1,42,-1
 1100 449 l 1,43,-1
 1100 566 l 1,40,-1
698 566 m 1,44,-1
 400 566 l 1,45,-1
 400 449 l 1,46,-1
 698 449 l 1,47,-1
 698 566 l 1,44,-1
898 333 m 1,48,-1
 600 333 l 1,49,-1
 600 216 l 1,50,-1
 898 216 l 1,51,-1
 898 333 l 1,48,-1
498 333 m 1,52,-1
 200 333 l 1,53,-1
 200 216 l 1,54,-1
 498 216 l 1,55,-1
 498 333 l 1,52,-1
1100 100 m 1,56,-1
 802 100 l 1,57,-1
 802 -16 l 1,58,-1
 1100 -16 l 1,59,-1
 1100 100 l 1,56,-1
698 100 m 1,60,-1
 400 100 l 1,61,-1
 400 -16 l 1,62,-1
 698 -16 l 1,63,-1
 698 100 l 1,60,-1
898 -133 m 1,64,-1
 600 -133 l 1,65,-1
 600 -249 l 1,66,-1
 898 -249 l 1,67,-1
 898 -133 l 1,64,-1
498 -133 m 1,68,-1
 200 -133 l 1,69,-1
 200 -249 l 1,70,-1
 498 -249 l 1,71,-1
 498 -133 l 1,68,-1
1100 -366 m 1,72,-1
 802 -366 l 1,73,-1
 802 -482 l 1,74,-1
 1100 -482 l 1,75,-1
 1100 -366 l 1,72,-1
698 -366 m 1,76,-1
 400 -366 l 1,77,-1
 400 -482 l 1,78,-1
 698 -482 l 1,79,-1
 698 -366 l 1,76,-1
0 -366 m 1,80,-1
 0 -249 l 1,81,-1
 98 -249 l 1,82,-1
 98 -133 l 1,83,-1
 0 -133 l 1,84,-1
 0 -16 l 1,85,-1
 296 -16 l 1,86,-1
 296 100 l 1,87,-1
 0 100 l 1,88,-1
 0 216 l 1,89,-1
 98 216 l 1,90,-1
 98 333 l 1,91,-1
 0 333 l 1,92,-1
 0 449 l 1,93,-1
 296 449 l 1,94,-1
 296 566 l 1,95,-1
 0 566 l 1,96,-1
 0 682 l 1,97,-1
 98 682 l 1,98,-1
 98 799 l 1,99,-1
 0 799 l 1,100,-1
 0 915 l 1,101,-1
 296 915 l 1,102,-1
 296 1032 l 1,103,-1
 0 1032 l 1,104,-1
 0 1148 l 1,105,-1
 98 1148 l 1,106,-1
 98 1265 l 1,107,-1
 0 1265 l 1,108,-1
 0 1381 l 1,109,-1
 296 1381 l 1,110,-1
 296 1498 l 1,111,-1
 0 1498 l 1,112,-1
 0 1614 l 1,113,-1
 98 1614 l 1,114,-1
 98 1731 l 1,115,-1
 0 1731 l 1,116,-1
 0 1847 l 1,117,-1
 296 1847 l 1,118,-1
 296 1901 l 1,119,-1
 400 1901 l 1,120,-1
 400 1847 l 1,121,-1
 698 1847 l 1,122,-1
 698 1901 l 1,123,-1
 802 1901 l 1,124,-1
 802 1847 l 1,125,-1
 1100 1847 l 1,126,-1
 1100 1901 l 1,127,-1
 1233 1901 l 1,128,-1
 1233 1731 l 1,129,-1
 1002 1731 l 1,130,-1
 1002 1614 l 1,131,-1
 1233 1614 l 1,132,-1
 1233 1265 l 1,133,-1
 1002 1265 l 1,134,-1
 1002 1148 l 1,135,-1
 1233 1148 l 1,136,-1
 1233 799 l 1,137,-1
 1002 799 l 1,138,-1
 1002 682 l 1,139,-1
 1233 682 l 1,140,-1
 1233 333 l 1,141,-1
 1002 333 l 1,142,-1
 1002 216 l 1,143,-1
 1233 216 l 1,144,-1
 1233 -133 l 1,145,-1
 1002 -133 l 1,146,-1
 1002 -249 l 1,147,-1
 1233 -249 l 1,148,-1
 1233 -492 l 1,149,-1
 0 -492 l 1,150,-1
 0 -482 l 1,151,-1
 296 -482 l 1,152,-1
 296 -366 l 1,153,-1
 0 -366 l 1,80,-1
EndSplineSet
Validated: 1
Comment: "Medievia +ACIA-MC_BRICK+ACIA glyph.+AAoA-Relocated from U+-00E0."
EndChar

StartChar: uniE128
Encoding: 57640 57640 375
Width: 1233
Flags: W
LayerCount: 2
Fore
SplineSet
0 0 m 1,0,-1
 0 188 l 1,1,2
 76 518 76 518 215 518 c 0,3,4
 249 518 249 518 286 498 c 0,5,6
 478 400 478 400 492 262 c 0,7,8
 501 173 501 173 629 173 c 0,9,10
 700 173 700 173 808 200 c 1,11,12
 873 397 873 397 993 397 c 0,13,14
 995 396 995 396 997 396 c 0,15,16
 1120 392 1120 392 1233 200 c 1,17,-1
 1233 0 l 1,18,-1
 0 0 l 1,0,-1
EndSplineSet
Validated: 1
Comment: "Medievia +ACIA-MC_SANDSTONE+ACIA glyph.+AAoA-Relocated from U+-00AF."
EndChar

StartChar: uniE127
Encoding: 57639 57639 380
Width: 1233
Flags: W
LayerCount: 2
Fore
SplineSet
299 587 m 1,0,-1
 299 1259 l 1,1,2
 251 1338 251 1338 190 1338 c 0,3,4
 106 1338 106 1338 0 1184 c 1,5,-1
 0 1334 l 1,6,7
 93 1462 93 1462 228 1462 c 0,8,9
 250 1462 250 1462 273 1459 c 1,10,-1
 362 1373 l 1,11,-1
 448 1448 l 1,12,13
 478 1452 478 1452 506 1452 c 0,14,15
 653 1452 653 1452 747 1334 c 1,16,-1
 747 1184 l 1,17,18
 638 1335 638 1335 554 1335 c 0,19,20
 495 1335 495 1335 448 1259 c 1,21,-1
 448 587 l 1,22,-1
 299 587 l 1,0,-1
784 -370 m 1,23,-1
 784 301 l 1,24,25
 736 381 736 381 676 381 c 0,26,27
 593 381 593 381 486 227 c 1,28,-1
 486 376 l 1,29,30
 580 505 580 505 715 505 c 0,31,32
 736 505 736 505 758 502 c 1,33,-1
 848 416 l 1,34,-1
 934 490 l 1,35,36
 965 495 965 495 994 495 c 0,37,38
 1140 495 1140 495 1233 376 c 1,39,-1
 1233 227 l 1,40,41
 1124 377 1124 377 1040 377 c 0,42,43
 980 377 980 377 934 301 c 1,44,-1
 934 -370 l 1,45,-1
 784 -370 l 1,23,-1
EndSplineSet
Validated: 1
Comment: "Medievia +ACIA-MC_JUNGLE+ACIA glyph.+AAoA-Relocated from U+-00AF."
EndChar

StartChar: uniE126
Encoding: 57638 57638 381
Width: 1233
Flags: W
LayerCount: 2
Fore
SplineSet
234 0 m 1,0,-1
 86 0 l 1,1,-1
 86 573 l 2,2,3
 86 779 86 779 244.5 932.5 c 128,-1,4
 403 1086 403 1086 616 1086 c 0,5,6
 830 1086 830 1086 988.5 932.5 c 128,-1,7
 1147 779 1147 779 1147 573 c 2,8,-1
 1147 0 l 1,9,-1
 999 0 l 1,10,-1
 999 573 l 2,11,12
 999 717 999 717 883 827.5 c 128,-1,13
 767 938 767 938 616 938 c 256,14,15
 465 938 465 938 349.5 827.5 c 128,-1,16
 234 717 234 717 234 573 c 2,17,-1
 234 0 l 1,0,-1
EndSplineSet
Validated: 1
Comment: "Medievia +ACIA-MC_ARCHWAY+ACIA glyph relocated from U+-00AB."
EndChar

StartChar: uniE123
Encoding: 57635 57635 382
Width: 1233
Flags: W
LayerCount: 2
Fore
SplineSet
298 0 m 1,0,-1
 104 0 l 1,1,-1
 104 554 l 2,2,3
 104 753 104 753 257 901.5 c 128,-1,4
 410 1050 410 1050 616 1050 c 0,5,6
 823 1050 823 1050 976 901.5 c 128,-1,7
 1129 753 1129 753 1129 554 c 2,8,-1
 1129 0 l 1,9,-1
 936 0 l 1,10,-1
 936 354 l 1,11,-1
 861 354 l 1,12,-1
 861 340 l 1,13,-1
 811 240 l 1,14,-1
 761 340 l 1,15,-1
 761 354 l 1,16,-1
 676 354 l 1,17,-1
 676 340 l 1,18,-1
 626 240 l 1,19,-1
 576 340 l 1,20,-1
 576 354 l 1,21,-1
 474 354 l 1,22,-1
 474 340 l 1,23,-1
 424 240 l 1,24,-1
 374 340 l 1,25,-1
 374 354 l 1,26,-1
 298 354 l 1,27,-1
 298 0 l 1,0,-1
935 454 m 1,28,29
 935 572 935 572 861 666 c 1,30,-1
 861 454 l 1,31,-1
 935 454 l 1,28,29
761 454 m 1,32,-1
 761 753 l 1,33,34
 722 772 722 772 676 779 c 1,35,-1
 676 454 l 1,36,-1
 761 454 l 1,32,-1
576 454 m 1,37,-1
 576 779 l 1,38,39
 521 771 521 771 474 745 c 1,40,-1
 474 454 l 1,41,-1
 576 454 l 1,37,-1
374 454 m 1,42,-1
 374 656 l 1,43,44
 299 566 299 566 299 454 c 1,45,-1
 374 454 l 1,42,-1
EndSplineSet
Validated: 1
Comment: "Medievia +ACIA-MC_GATE+ACIA glyph relocated from U+-00AA."
EndChar

StartChar: uniE122
Encoding: 57634 57634 383
Width: 1233
Flags: W
LayerCount: 2
Fore
SplineSet
0 0 m 1,0,-1
 0 500 l 1,1,2
 206 500 206 500 206 200 c 1,3,4
 411 200 411 200 411 500 c 1,5,6
 616 500 616 500 616 200 c 1,7,8
 822 200 822 200 822 500 c 1,9,10
 1028 500 1028 500 1028 200 c 1,11,-1
 1233 200 l 1,12,-1
 1233 0 l 1,13,-1
 0 0 l 1,0,-1
EndSplineSet
Validated: 1
Comment: "Medievia +ACIA-MC_FARMLAND+ACIA glyph relocated from U+-00A9."
EndChar

StartChar: uniE121
Encoding: 57633 57633 384
Width: 1233
Flags: W
LayerCount: 2
Fore
SplineSet
405 973 m 128,-1,1
 405 1060 405 1060 467 1122 c 128,-1,2
 529 1184 529 1184 616 1184 c 128,-1,3
 703 1184 703 1184 765 1122 c 128,-1,4
 827 1060 827 1060 827 973 c 128,-1,5
 827 886 827 886 765 824 c 128,-1,6
 703 762 703 762 616 762 c 128,-1,7
 529 762 529 762 467 824 c 128,-1,0
 405 886 405 886 405 973 c 128,-1,1
616 192 m 1,8,-1
 602 192 l 2,9,10
 451 192 451 192 308 150 c 0,11,12
 141 101 141 101 0 0 c 1,13,-1
 0 190 l 1,14,15
 141 291 141 291 308 340 c 0,16,17
 451 382 451 382 600 382 c 2,18,-1
 616 382 l 1,19,-1
 633 382 l 2,20,21
 782 382 782 382 925 340 c 0,22,23
 1092 291 1092 291 1233 190 c 1,24,-1
 1233 0 l 1,25,26
 1088 95 1088 95 924 144 c 0,27,28
 771 190 771 190 616 192 c 1,8,-1
400 838 m 1,29,-1
 500 738 l 1,30,-1
 300 538 l 1,31,-1
 200 638 l 1,32,-1
 400 838 l 1,29,-1
845 838 m 1,33,-1
 1045 638 l 1,34,-1
 945 538 l 1,35,-1
 745 738 l 1,36,-1
 845 838 l 1,33,-1
300 1400 m 1,37,-1
 500 1200 l 1,38,-1
 400 1100 l 1,39,-1
 200 1300 l 1,40,-1
 300 1400 l 1,37,-1
945 1400 m 1,41,-1
 1045 1300 l 1,42,-1
 845 1100 l 1,43,-1
 745 1200 l 1,44,-1
 945 1400 l 1,41,-1
EndSplineSet
Validated: 1
Comment: "Medievia +ACIA-MC_SILVERSHRINE+ACIA glyph relocated from U+-00A8."
EndChar

StartChar: uniE120
Encoding: 57632 57632 385
Width: 1233
Flags: W
LayerCount: 2
Fore
SplineSet
506 8.5 m 128,-1,1
 478 35 478 35 478 74.5 c 128,-1,2
 478 114 478 114 505 141 c 128,-1,3
 532 168 532 168 570 168 c 0,4,5
 611 168 611 168 637.5 140.5 c 128,-1,6
 664 113 664 113 664 75 c 0,7,8
 664 38 664 38 640 11 c 0,9,10
 612 -18 612 -18 573 -18 c 128,-1,0
 534 -18 534 -18 506 8.5 c 128,-1,1
910 28 m 0,11,12
 850 0 850 0 816 0 c 128,-1,13
 782 0 782 0 750 24 c 0,14,15
 698 62 698 62 698 129 c 0,16,17
 698 212 698 212 772 252 c 1,18,19
 800 280 800 280 808 305.5 c 128,-1,20
 816 331 816 331 824 358 c 0,21,22
 846 443 846 443 894 451 c 0,23,24
 900 452 900 452 906 452 c 0,25,26
 954 452 954 452 978 391 c 0,27,28
 982 381 982 381 988 364 c 0,29,30
 1005 312 1005 312 1025.5 288 c 128,-1,31
 1046 264 1046 264 1070 255.5 c 128,-1,32
 1094 247 1094 247 1108 242 c 0,33,34
 1140 232 1140 232 1156 224 c 0,35,36
 1226 186 1226 186 1226 102 c 0,37,38
 1226 55 1226 55 1202 30 c 0,39,40
 1174 1 1174 1 1136 1 c 0,41,42
 1102 1 1102 1 1060 25 c 0,43,44
 1024 44 1024 44 996 50 c 0,45,46
 990 51 990 51 986 51 c 0,47,48
 960 51 960 51 910 28 c 0,11,12
81 -8 m 128,-1,50
 8 65 8 65 8 170 c 0,51,52
 8 296 8 296 79 367 c 128,-1,53
 150 438 150 438 240 438 c 0,54,55
 339 438 339 438 405.5 363.5 c 128,-1,56
 472 289 472 289 472 183 c 128,-1,57
 472 77 472 77 412 3 c 0,58,59
 344 -81 344 -81 249 -81 c 128,-1,49
 154 -81 154 -81 81 -8 c 128,-1,50
EndSplineSet
Validated: 1
Comment: "Medievia +ACIA-MC_ROCKS+ACIA glyph relocated from U+-00A6.+AAoA-Redesigned to be more rock like."
EndChar

StartChar: uniE10F
Encoding: 57615 57615 386
Width: 1233
Flags: W
LayerCount: 2
Fore
SplineSet
400 1912 m 1,0,-1
 554 1911 l 1,1,-1
 160 1489 l 1,2,-1
 560 1066 l 1,3,-1
 160 655 l 1,4,-1
 560 233 l 1,5,-1
 160 -124 l 1,6,-1
 560 -482 l 1,7,-1
 400 -482 l 1,8,-1
 0 -124 l 1,9,-1
 400 233 l 1,10,-1
 0 655 l 1,11,-1
 7 662 l 0,12,-1
 400 1066 l 1,13,-1
 0 1489 l 1,14,-1
 400 1912 l 1,0,-1
1058 1913 m 1,15,-1
 1233 1913 l 1,16,-1
 813 1490 l 1,17,-1
 1221 1067 l 1,18,-1
 890 734 l 0,19,-1
 813 657 l 1,20,-1
 1221 234 l 1,21,-1
 813 -122 l 1,22,-1
 1221 -479 l 1,23,-1
 1058 -479 l 1,24,-1
 649 -122 l 1,25,-1
 1058 234 l 1,26,-1
 649 657 l 1,27,-1
 1058 1067 l 1,28,-1
 649 1490 l 1,29,-1
 1058 1913 l 1,15,-1
EndSplineSet
Validated: 1
Comment: "Medievia +ACIA-MC_RIVER+ACIA glyph relocated from U+-2022. That location would be expected to be the {BULLET} glyph - that is used in this font however that has been moved to U+-E10A."
EndChar

StartChar: uniE11F
Encoding: 57631 57631 387
Width: 1233
Flags: W
LayerCount: 2
Fore
SplineSet
16 200 m 5,0,-1
 530 653 l 5,1,-1
 16 1200 l 5,2,-1
 216 1400 l 5,3,-1
 650 808 l 5,4,-1
 1016 1400 l 5,5,-1
 1216 1200 l 5,6,-1
 744 681 l 5,7,-1
 1216 200 l 5,8,-1
 1002 0 l 5,9,-1
 622 522 l 5,10,-1
 220 0 l 5,11,-1
 16 200 l 5,0,-1
EndSplineSet
Validated: 1
Comment: "Medievia +ACIA-MC_HOLIDAY+ACIA glyph relocated from U+-00A5."
EndChar

StartChar: uniE11E
Encoding: 57630 57630 388
Width: 1233
Flags: W
LayerCount: 2
Fore
SplineSet
733 1543 m 132,-1,1
 704 1543 704 1543 683 1522 c 132,-1,2
 662 1501 662 1501 662 1472 c 132,-1,3
 662 1443 662 1443 683 1422 c 132,-1,4
 704 1401 704 1401 733 1401 c 132,-1,5
 762 1401 762 1401 783 1422 c 132,-1,6
 804 1443 804 1443 804 1472 c 132,-1,7
 804 1501 804 1501 783 1522 c 132,-1,0
 762 1543 762 1543 733 1543 c 132,-1,1
149 333 m 4,8,9
 79 334 79 334 79 426 c 4,10,11
 79 454 79 454 105.5 494 c 132,-1,12
 132 534 132 534 144 552.5 c 132,-1,13
 156 571 156 571 160.5 577 c 132,-1,14
 165 583 165 583 175 598 c 132,-1,15
 185 613 185 613 192 621 c 132,-1,16
 199 629 199 629 202 633 c 4,17,18
 296 746 296 746 416 746 c 4,19,20
 569 746 569 746 632 612 c 4,21,22
 657 558 657 558 657 501.5 c 132,-1,23
 657 445 657 445 633 393.5 c 132,-1,24
 609 342 609 342 583 315 c 132,-1,25
 557 288 557 288 541 271 c 4,26,27
 445 175 445 175 445 104 c 4,28,29
 445 68 445 68 474 33 c 132,-1,30
 503 -2 503 -2 554 -2 c 4,31,32
 686 -2 686 -2 756 216 c 4,33,34
 817 406 817 406 817 639 c 132,-1,35
 817 872 817 872 712 1108 c 5,36,37
 562 1197 562 1197 562 1373 c 4,38,39
 562 1509 562 1509 662 1600 c 5,40,41
 692 1615 692 1615 736 1615 c 132,-1,42
 780 1615 780 1615 842 1566 c 4,43,44
 849 1561 849 1561 894 1523.5 c 132,-1,45
 939 1486 939 1486 987 1486 c 132,-1,46
 1035 1486 1035 1486 1062 1500 c 5,47,-1
 1155 1347 l 5,48,49
 1105 1379 1105 1379 1053 1379 c 4,50,51
 1051 1379 1051 1379 1049 1379 c 6,52,-1
 967 1358 l 5,53,54
 870 1310 870 1310 862 1200 c 5,55,-1
 986 1145 l 5,56,-1
 1137 1151 l 5,57,58
 1122 1078 1122 1078 1055 1046 c 4,59,60
 1022 1031 1022 1031 1006 1031 c 6,61,-1
 988 1031 l 6,62,63
 908 1031 908 1031 862 1100 c 5,64,-1
 948 680 l 6,65,66
 969 576 969 576 969 480 c 4,67,68
 969 267 969 267 863 97 c 4,69,70
 721 -130 721 -130 589 -130 c 4,71,72
 578 -130 578 -130 567 -128 c 4,73,74
 300 -89 300 -89 300 136 c 4,75,76
 300 198 300 198 332 257 c 132,-1,77
 364 316 364 316 395 348 c 132,-1,78
 426 380 426 380 431 386 c 4,79,80
 506 465 506 465 506 524 c 4,81,82
 506 560 506 560 477 590 c 132,-1,83
 448 620 448 620 420 620 c 132,-1,84
 392 620 392 620 370 612 c 4,85,86
 306 588 306 588 266.5 461.5 c 132,-1,87
 227 335 227 335 153 333 c 4,88,89
 151 333 151 333 149 333 c 4,8,9
EndSplineSet
Validated: 1
Comment: "Medievia +ACIA-MC_SERPENT+ACIA glyph relocated from U+-00A4.+AAoA-Redesigned to have some curves and a tail."
EndChar

StartChar: uniE11D
Encoding: 57629 57629 389
Width: 1233
Flags: W
LayerCount: 2
Fore
SplineSet
412 1506 m 0,0,1
 412 1494 412 1494 417 1481 c 0,2,3
 421 1471 421 1471 431 1461 c 0,4,5
 437 1455 437 1455 448 1449 c 0,6,7
 463 1443 463 1443 475 1443 c 0,8,9
 488 1443 488 1443 499 1447 c 0,10,11
 507 1450 507 1450 516 1458 c 0,12,13
 527 1470 527 1470 533 1481 c 0,14,15
 538 1490 538 1490 538 1506 c 0,16,17
 538 1518 538 1518 533 1531 c 0,18,19
 529 1541 529 1541 519 1551 c 0,20,21
 513 1557 513 1557 502 1563 c 0,22,23
 487 1569 487 1569 475 1569 c 0,24,25
 461 1569 461 1569 451 1565 c 0,26,27
 443 1562 443 1562 431 1551 c 0,28,29
 421 1542 421 1542 417 1531 c 0,30,31
 412 1515 412 1515 412 1506 c 0,0,1
  Spiro
    412 1506 o
    413.25 1493.75 o
    417 1481 o
    422.5 1471 o
    431 1461 o
    438.25 1455 o
    448 1449 o
    462.25 1444.5 o
    475 1443 o
    487.5 1444 o
    499 1447 o
    507.25 1451.25 o
    516 1458 o
    525.75 1469.75 o
    533 1481 o
    536.75 1491.75 o
    538 1506 o
    536.75 1518.25 o
    533 1531 o
    527.5 1541 o
    519 1551 o
    511.75 1557 o
    502 1563 o
    487.75 1567.5 o
    475 1569 o
    462 1568 o
    451 1565 o
    442 1560 o
    431 1551 o
    422.5 1541.5 o
    417 1531 o
    413.25 1516.75 o
    0 0 z
  EndSpiro
579 1512 m 0,32,33
 579 1504 579 1504 582 1492 c 128,-1,34
 585 1480 585 1480 597 1468 c 0,35,36
 606 1459 606 1459 617 1455 c 0,37,38
 625 1452 625 1452 637 1451 c 0,39,40
 653 1451 653 1451 665 1455 c 0,41,42
 675 1459 675 1459 685 1468 c 0,43,44
 691 1474 691 1474 696 1485 c 0,45,46
 702 1500 702 1500 703 1512 c 0,47,48
 704 1523 704 1523 699 1536 c 0,49,50
 696 1544 696 1544 688 1553 c 0,51,52
 676 1564 676 1564 665 1569 c 128,-1,53
 654 1574 654 1574 641 1574 c 0,54,55
 632 1574 632 1574 617 1569 c 0,56,57
 608 1566 608 1566 597 1556 c 0,58,59
 588 1547 588 1547 582 1532 c 0,60,61
 579 1522 579 1522 579 1512 c 0,32,33
  Spiro
    579 1512 o
    579.75 1503 o
    582 1492 o
    587.25 1480 o
    597 1468 o
    606.5 1460.25 o
    617 1455 o
    626 1452.5 o
    637 1451 o
    652 1452 o
    665 1455 o
    675 1460.25 o
    685 1468 o
    690.75 1475.25 o
    696 1485 o
    700.75 1499.25 o
    703 1512 o
    702.5 1523.5 o
    699 1536 o
    694.75 1544.25 o
    688 1553 o
    676.25 1562.5 o
    665 1569 o
    653.5 1572.75 o
    641 1574 o
    630.5 1572.75 o
    617 1569 o
    607.5 1564.25 o
    597 1556 o
    588.75 1545.5 o
    582 1532 o
    579.75 1522 o
    0 0 z
  EndSpiro
542 1730 m 0,62,63
 547 1730 547 1730 552 1730 c 0,64,65
 645 1730 645 1730 712 1679 c 0,66,67
 749 1650 749 1650 770 1610 c 0,68,69
 791 1569 791 1569 791 1522 c 0,70,71
 791 1464 791 1464 756 1400 c 0,72,73
 746 1381 746 1381 722 1345.5 c 128,-1,74
 698 1310 698 1310 688 1291 c 0,75,76
 662 1243 662 1243 662 1202 c 0,77,78
 662 1153 662 1153 695 1120 c 0,79,80
 727 1088 727 1088 772 1088 c 0,81,82
 773 1088 l 0,83,84
 822 1088 822 1088 855 1125 c 1,85,-1
 1020 985 l 1,86,-1
 1143 693 l 1,87,-1
 943 777 l 1,88,89
 903 818 903 818 845 818 c 0,90,91
 838 818 838 818 830 817 c 0,92,93
 796 813 796 813 766 794 c 0,94,95
 738 776 738 776 717 747 c 0,96,97
 679 695 679 695 671 620 c 0,98,99
 669 604 669 604 669 588 c 0,100,101
 669 529 669 529 690 478 c 0,102,103
 718 410 718 410 781 368 c 0,104,105
 817 344 817 344 884 320 c 0,106,107
 960 293 960 293 990 277 c 0,108,109
 1052 243 1052 243 1090 189 c 1,110,111
 1047 181 1047 181 1004 181 c 0,112,113
 939 181 939 181 877 198 c 0,114,115
 771 227 771 227 687 298 c 1,116,117
 629 340 629 340 600 407 c 0,118,119
 575 463 575 463 573 544 c 0,120,121
 573 554 573 554 572.5 593 c 128,-1,122
 572 632 572 632 570 652 c 0,123,124
 565 714 565 714 541 756 c 0,125,126
 518 795 518 795 480 816 c 0,127,128
 446 834 446 834 408 834 c 0,129,130
 402 834 402 834 396 834 c 0,131,132
 331 829 331 829 290 777 c 1,133,-1
 90 677 l 1,134,-1
 190 977 l 1,135,-1
 290 1077 l 1,136,137
 330 1042 330 1042 383 1042 c 0,138,139
 390 1042 390 1042 396 1043 c 0,140,141
 452 1049 452 1049 487 1091 c 0,142,143
 519 1129 519 1129 519 1182 c 0,144,145
 519 1186 519 1186 519 1189 c 0,146,147
 517 1233 517 1233 490 1277 c 0,148,149
 479 1296 479 1296 463.5 1314.5 c 128,-1,150
 448 1333 448 1333 427 1356 c 128,-1,151
 406 1379 406 1379 396 1390 c 0,152,153
 339 1457 339 1457 331 1519 c 0,154,155
 329 1531 329 1531 329 1542 c 0,156,157
 329 1573 329 1573 340 1602 c 0,158,159
 355 1641 355 1641 387 1671 c 0,160,161
 448 1727 448 1727 542 1730 c 0,62,63
  Spiro
    542 1730 o
    552 1730 o
    638.5 1717.25 o
    712 1679 o
    745 1647.25 o
    770 1610 o
    785.75 1567.5 o
    791 1522 o
    782.25 1462.5 o
    756 1400 o
    742.5 1376.88 o
    722 1345.5 o
    701.5 1314.12 o
    688 1291 o
    668.5 1244.75 o
    662 1202 o
    670.25 1157 o
    695 1120 o
    730.25 1096 o
    772 1088 o
    773 1088 o
    818 1097.25 o
    855 1125 v
    1020 985 v
    1143 693 v
    943 777 v
    898.5 807.75 o
    845 818 o
    837.75 817.75 o
    830 817 o
    797 809.25 o
    766 794 o
    739.75 773.25 o
    717 747 o
    686.5 689.25 o
    671 620 o
    669.5 604 o
    669 588 o
    674.25 531 o
    690 478 o
    726.75 416.5 o
    781 368 o
    824.75 344 o
    884 320 o
    948.5 295.75 o
    990 277 o
    1046 238 o
    1090 189 v
    1047 183 o
    1004 181 o
    939.75 185.25 o
    877 198 o
    776.5 237.5 o
    687 298 v
    636.25 346.25 o
    600 407 o
    580.75 469.25 o
    573 544 o
    572.875 561.25 o
    572.5 593 o
    571.625 627.25 o
    570 652 o
    560.25 709 o
    541 756 o
    514.25 790.5 o
    480 816 o
    445 829.5 o
    408 834 o
    396 834 o
    337 817.25 o
    290 777 v
    90 677 v
    190 977 v
    290 1077 v
    333.25 1050.75 o
    383 1042 o
    389.75 1042.25 o
    396 1043 o
    446.75 1058 o
    487 1091 o
    511 1132.75 o
    519 1182 o
    519 1189 o
    510.75 1233 o
    490 1277 o
    477.875 1295.88 o
    463.5 1314.5 o
    446.625 1334.12 o
    427 1356 o
    408.75 1376 o
    396 1390 o
    351.25 1455.75 o
    331 1519 o
    329.5 1530.75 o
    329 1542 o
    331.75 1572.5 o
    340 1602 o
    359.25 1638.75 o
    387 1671 o
    456.25 1713.75 o
    0 0 z
  EndSpiro
EndSplineSet
Validated: 1
Comment: "Medievia +ACIA-MC_DRAGON+ACIA glyph.+AAoA-Relocated from U+-00A3 and redesigned to have more curves."
EndChar

StartChar: uniE11C
Encoding: 57628 57628 390
Width: 1233
Flags: W
LayerCount: 2
Fore
SplineSet
416 1300 m 1,0,-1
 416 1000 l 1,1,-1
 816 1000 l 1,2,-1
 816 1300 l 1,3,-1
 416 1300 l 1,0,-1
554 -90 m 1,4,-1
 554 900 l 1,5,-1
 316 900 l 1,6,-1
 316 1400 l 1,7,-1
 560 1400 l 1,8,-1
 560 1486 l 1,9,-1
 680 1486 l 1,10,-1
 680 1400 l 1,11,-1
 916 1400 l 1,12,-1
 916 900 l 1,13,-1
 674 900 l 1,14,-1
 674 -90 l 1,15,-1
 554 -90 l 1,4,-1
EndSplineSet
Validated: 1
Comment: "Medievia +ACIA-MC_SIGN+ACIA glyph.+AAoA-Relocated from U+-00A2."
EndChar

StartChar: uniE11B
Encoding: 57627 57627 391
Width: 1233
Flags: W
LayerCount: 2
Fore
SplineSet
609 0 m 1,0,-1
 609 309 l 1,1,-1
 300 541 l 1,2,-1
 377 618 l 1,3,-1
 686 386 l 1,4,-1
 841 618 l 1,5,-1
 918 541 l 1,6,-1
 764 309 l 1,7,-1
 764 0 l 1,8,-1
 609 0 l 1,0,-1
400 0 m 1,9,-1
 316 0 l 1,10,-1
 316 251 l 1,11,-1
 91 580 l 1,12,-1
 149 668 l 1,13,-1
 400 334 l 1,14,-1
 400 0 l 1,9,-1
900 0 m 1,15,-1
 900 290 l 1,16,-1
 1045 363 l 1,17,-1
 1118 290 l 1,18,-1
 973 218 l 1,19,-1
 973 0 l 1,20,-1
 900 0 l 1,15,-1
EndSplineSet
Validated: 1
Comment: "Medievia +ACIA-MC_REEF+ACIA glyph relocated from U+-00A1."
EndChar

StartChar: uniE108
Encoding: 57608 57608 392
Width: 1233
Flags: W
LayerCount: 2
Fore
SplineSet
159 1200 m 1,0,-1
 159 1400 l 1,1,-1
 459 1400 l 1,2,-1
 459 1200 l 1,3,-1
 159 1200 l 1,0,-1
775 700 m 1,4,-1
 775 900 l 1,5,-1
 1075 900 l 1,6,-1
 1075 700 l 1,7,-1
 775 700 l 1,4,-1
159 200 m 1,8,-1
 159 400 l 1,9,-1
 459 400 l 1,10,-1
 459 200 l 1,11,-1
 159 200 l 1,8,-1
775 -300 m 1,12,-1
 775 -100 l 1,13,-1
 1075 -100 l 1,14,-1
 1075 -300 l 1,15,-1
 775 -300 l 1,12,-1
EndSplineSet
Validated: 1
Comment: "Medievia +ACIA-MC_MOORS+ACIA glyph, relocated from U+-0152."
EndChar

StartChar: uniE11A
Encoding: 57626 57626 393
Width: 1233
Flags: W
LayerCount: 2
Fore
SplineSet
866 -190 m 0,0,1
 868 -190 868 -190 870 -190 c 0,2,3
 1043 -190 1043 -190 1232 32 c 1,4,-1
 1232 -161 l 1,5,6
 1037 -394 1037 -394 857 -394 c 0,7,8
 725 -394 725 -394 599 -264 c 0,9,10
 422 -82 422 -82 241 -82 c 0,11,12
 238 -82 238 -82 235 -82 c 0,13,14
 120 -82 120 -82 -1 -161 c 1,15,-1
 -1 39 l 1,16,17
 122 119 122 119 244 119 c 0,18,19
 424 119 424 119 602 -60 c 0,20,21
 731 -190 731 -190 866 -190 c 0,0,1
960 600 m 1,22,-1
 860 700 l 1,23,-1
 1010 850 l 1,24,-1
 1110 750 l 1,25,-1
 960 600 l 1,22,-1
672 728 m 1,26,-1
 530 728 l 1,27,-1
 530 940 l 1,28,-1
 672 940 l 1,29,-1
 672 728 l 1,26,-1
616 600 m 152,-1,31
 863 600 863 600 1110 450 c 25,32,-1
 1110 300 l 25,33,34
 840 450 840 450 616 450 c 24,35,36
 363 450 363 450 122 300 c 25,37,-1
 122 450 l 25,38,30
 369 600 369 600 616 600 c 152,-1,31
122 750 m 1,39,-1
 222 850 l 1,40,-1
 372 700 l 1,41,-1
 272 600 l 1,42,-1
 122 750 l 1,39,-1
EndSplineSet
Validated: 1
Comment: "Medievia +ACIA-MC_MARSH+ACIA glyph relocated from U+-00A0."
EndChar

StartChar: uniE110
Encoding: 57616 57616 394
Width: 1233
Flags: W
LayerCount: 2
Fore
SplineSet
0 1908 m 1,0,-1
 1233 1908 l 1,1,-1
 1233 -487 l 1,2,-1
 0 -487 l 1,3,-1
 0 1908 l 1,0,-1
EndSplineSet
Validated: 1
Comment: "Medievia +ACIA-MC_WALL+ACIA glyph relocated from U+-0096."
EndChar

StartChar: uniE106
Encoding: 57606 57606 395
Width: 1233
Flags: W
LayerCount: 2
Fore
SplineSet
858 1146 m 0,0,1
 857 1146 857 1146 856 1146 c 128,-1,2
 855 1146 855 1146 854 1146 c 0,3,4
 724 1146 724 1146 600 1252 c 0,5,6
 425 1402 425 1402 242 1402 c 0,7,8
 122 1402 122 1402 0 1337 c 1,9,-1
 0 1501 l 1,10,11
 122 1567 122 1567 240 1567 c 0,12,13
 242 1567 242 1567 244 1567 c 0,14,15
 426 1567 426 1567 603 1419 c 0,16,17
 731 1312 731 1312 866 1312 c 0,18,19
 1044 1313 1044 1313 1233 1495 c 1,20,-1
 1233 1337 l 1,21,22
 1038 1146 1038 1146 858 1146 c 0,0,1
858 795 m 0,23,24
 857 795 857 795 856 795 c 128,-1,25
 855 795 855 795 854 795 c 0,26,27
 724 795 724 795 600 901 c 0,28,29
 425 1051 425 1051 242 1051 c 0,30,31
 122 1051 122 1051 0 986 c 1,32,-1
 0 1150 l 1,33,34
 123 1215 123 1215 244 1215 c 0,35,36
 429 1215 429 1215 603 1068 c 0,37,38
 730 961 730 961 866 961 c 0,39,40
 1043 962 1043 962 1233 1144 c 1,41,-1
 1233 986 l 1,42,43
 1038 795 1038 795 858 795 c 0,23,24
860 383 m 0,44,45
 859 383 859 383 858 383 c 0,46,47
 725 383 725 383 600 490 c 0,48,49
 424 640 424 640 241 640 c 0,50,51
 121 639 121 639 0 575 c 1,52,-1
 0 738 l 1,53,54
 122 804 122 804 241 804 c 0,55,56
 243 804 243 804 245 804 c 0,57,58
 424 804 424 804 603 656 c 0,59,60
 731 550 731 550 866 550 c 0,61,62
 1043 551 1043 551 1233 733 c 1,63,-1
 1233 575 l 1,64,65
 1037 383 1037 383 860 383 c 0,44,45
860 8 m 0,66,67
 859 8 859 8 858 8 c 0,68,69
 723 8 723 8 600 114 c 0,70,71
 424 265 424 265 241 265 c 0,72,73
 121 264 121 264 0 200 c 1,74,-1
 0 363 l 1,75,76
 122 429 122 429 241 429 c 0,77,78
 243 429 243 429 245 429 c 0,79,80
 427 429 427 429 603 282 c 0,81,82
 731 175 731 175 866 175 c 0,83,84
 1043 176 1043 176 1233 358 c 1,85,-1
 1233 200 l 1,86,87
 1037 8 1037 8 860 8 c 0,66,67
858 -390 m 0,88,89
 857 -390 857 -390 856 -390 c 128,-1,90
 855 -390 855 -390 854 -390 c 0,91,92
 724 -390 724 -390 600 -284 c 0,93,94
 425 -134 425 -134 242 -134 c 0,95,96
 122 -134 122 -134 0 -199 c 1,97,-1
 0 -35 l 1,98,99
 123 30 123 30 244 30 c 0,100,101
 426 30 426 30 603 -118 c 0,102,103
 730 -224 730 -224 866 -224 c 0,104,105
 1043 -223 1043 -223 1233 -41 c 1,106,-1
 1233 -199 l 1,107,108
 1038 -390 1038 -390 858 -390 c 0,88,89
EndSplineSet
Validated: 1
Comment: "Medievia +ACIA-MC_OCEAN+ACIA glyph, relocated from U+-008A."
EndChar

StartChar: uniE101
Encoding: 57601 57601 396
Width: 1233
Flags: W
LayerCount: 2
Fore
SplineSet
743 1324 m 0,0,1
 542 1324 542 1324 310 1064 c 1,2,-1
 310 1210 l 1,3,4
 530 1503 530 1503 746 1503 c 128,-1,5
 962 1503 962 1503 1188 1210 c 1,6,-1
 1188 1060 l 1,7,8
 977 1324 977 1324 743 1324 c 0,0,1
478 332 m 0,9,10
 277 332 277 332 45 72 c 1,11,-1
 45 218 l 1,12,13
 265 511 265 511 481 511 c 128,-1,14
 697 511 697 511 923 218 c 1,15,-1
 923 68 l 1,16,17
 712 332 712 332 478 332 c 0,9,10
EndSplineSet
Validated: 1
Comment: "Medievia +ACIA-MC_HILLS+ACIA glyph, relocated from U+-2026."
EndChar

StartChar: uniE107
Encoding: 57607 57607 397
Width: 1233
Flags: W
LayerCount: 2
Fore
SplineSet
390 -260 m 1,0,-1
 390 136 l 1,1,-1
 40 136 l 1,2,-1
 502 928 l 1,3,-1
 963 136 l 1,4,-1
 588 136 l 1,5,-1
 588 -260 l 1,6,-1
 390 -260 l 1,0,-1
775 768 m 1,7,-1
 775 1056 l 1,8,-1
 520 1056 l 1,9,-1
 857 1632 l 1,10,-1
 1193 1056 l 1,11,-1
 920 1056 l 1,12,-1
 920 768 l 1,13,-1
 775 768 l 1,7,-1
EndSplineSet
Validated: 1
Comment: "Medievia +ACIA-MC_PINE_TREES+ACIA glyph, relocated from U+-2029."
EndChar

StartChar: uniE10A
Encoding: 57610 57610 398
Width: 1233
Flags: W
LayerCount: 2
Fore
SplineSet
319 762 m 0,0,1
 319 886 319 886 405 971.5 c 128,-1,2
 491 1057 491 1057 616 1057 c 0,3,4
 740 1057 740 1057 826.5 971 c 128,-1,5
 913 885 913 885 913 762 c 0,6,7
 913 638 913 638 826 551.5 c 128,-1,8
 739 465 739 465 614 465 c 0,9,10
 490 465 490 465 404.5 550.5 c 128,-1,11
 319 636 319 636 319 762 c 0,0,1
EndSplineSet
Validated: 1
Comment: "Medievia +ACIA-MC_LAVA_POOL+ACIA glyph.+AAoA-Imported 2024/02/14 from public domain DejaVu Sans Mono font (from U+-2022 {BULLET})."
EndChar

StartChar: uniE100
Encoding: 57600 57600 399
Width: 1233
Flags: W
LayerCount: 2
Fore
SplineSet
252 -400 m 5,0,-1
 252 -22 l 5,1,2
 249 -22 249 -22 245 -22 c 4,3,4
 16 -22 16 -22 16 257 c 4,5,6
 16 540 16 540 340.5 540 c 132,-1,7
 665 540 665 540 665 257 c 4,8,9
 665 -22 665 -22 418 -22 c 4,10,11
 415 -22 415 -22 411 -22 c 5,12,-1
 411 -400 l 5,13,-1
 252 -400 l 5,0,-1
775 523 m 5,14,-1
 775 959 l 5,15,16
 771 959 771 959 767 959 c 4,17,18
 766 959 766 959 765 959 c 4,19,20
 522 959 522 959 522 1280 c 4,21,22
 522 1606 522 1606 869 1606 c 4,23,24
 1217 1606 1217 1606 1217 1280 c 4,25,26
 1217 959 1217 959 955 959 c 4,27,28
 954 959 954 959 953 959 c 4,29,30
 949 959 949 959 945 959 c 5,31,-1
 945 523 l 5,32,-1
 775 523 l 5,14,-1
EndSplineSet
Validated: 1
Comment: "Medievia +ACIA-MC_TREES+ACIA glyph, relocated from U+-201E."
EndChar

StartChar: uniE109
Encoding: 57609 57609 400
Width: 1233
Flags: W
LayerCount: 2
Fore
SplineSet
0 0 m 1,0,-1
 0 216 l 1,1,2
 158 894 l 0,3,4
 179 930 179 930 200 930 c 0,5,6
 258 930 258 930 317 636 c 1,7,8
 444 382 444 382 572 382 c 0,9,-1
 635 398 l 0,10,11
 794 477 794 477 833.5 755 c 128,-1,12
 873 1033 873 1033 952.5 1033 c 128,-1,13
 1032 1033 1032 1033 1093 717.5 c 128,-1,14
 1154 402 1154 402 1233 164 c 1,15,-1
 1233 0 l 1,16,-1
 0 0 l 1,0,-1
EndSplineSet
Validated: 1
Comment: "Medievia +ACIA-MC_VOLCANO+ACIA glyph, relocated from U+-008D."
EndChar

StartChar: uniE10B
Encoding: 57611 57611 401
Width: 1233
Flags: W
LayerCount: 2
Fore
SplineSet
614 240 m 128,-1,1
 614 328 614 328 678 392 c 128,-1,2
 742 456 742 456 830 456 c 128,-1,3
 918 456 918 456 982 392 c 128,-1,4
 1046 328 1046 328 1046 240 c 128,-1,5
 1046 152 1046 152 982 88 c 128,-1,6
 918 24 918 24 830 24 c 128,-1,7
 742 24 742 24 678 88 c 128,-1,0
 614 152 614 152 614 240 c 128,-1,1
42 1088 m 128,-1,9
 42 1148 42 1148 85 1191 c 128,-1,10
 128 1234 128 1234 188 1234 c 128,-1,11
 248 1234 248 1234 291 1191 c 128,-1,12
 334 1148 334 1148 334 1088 c 128,-1,13
 334 1028 334 1028 291 985 c 128,-1,14
 248 942 248 942 188 942 c 128,-1,15
 128 942 128 942 85 985 c 128,-1,8
 42 1028 42 1028 42 1088 c 128,-1,9
209 0 m 1,16,-1
 209 500 l 1,17,-1
 10 861 l 1,18,-1
 154 861 l 1,19,-1
 299 600 l 1,20,-1
 441 861 l 1,21,-1
 584 861 l 1,22,-1
 372 500 l 1,23,-1
 372 0 l 1,24,-1
 209 0 l 1,16,-1
707 541 m 1,25,-1
 707 921 l 1,26,27
 419 921 419 921 419 1205.5 c 128,-1,28
 419 1490 419 1490 806 1490 c 128,-1,29
 1193 1490 1193 1490 1193 1205.5 c 128,-1,30
 1193 921 1193 921 891 921 c 1,31,-1
 891 541 l 1,32,-1
 707 541 l 1,25,-1
EndSplineSet
Validated: 1
Comment: "Medievia +ACIA-MC_IMPENETRABLE_UNDERGROWTH+ACIA glyph, relocated from U+-0090.+AAoA-NOTE: Was rather similar to MC TREE glyph, but one of the trees has been swapped for the sub-glyphs from the MC_SHRUBS glyph."
EndChar

StartChar: uniE103
Encoding: 57603 57603 402
Width: 1233
Flags: W
LayerCount: 2
Fore
SplineSet
66 1500 m 1,0,-1
 366 1500 l 1,1,-1
 366 0 l 1,2,-1
 66 0 l 1,3,-1
 66 100 l 1,4,-1
 266 100 l 1,5,-1
 266 1400 l 1,6,-1
 66 1400 l 1,7,-1
 66 1500 l 1,0,-1
1167 1500 m 1,8,-1
 1167 1400 l 1,9,-1
 967 1400 l 1,10,-1
 967 100 l 1,11,-1
 1167 100 l 1,12,-1
 1167 0 l 1,13,-1
 867 0 l 1,14,-1
 867 1500 l 1,15,-1
 1167 1500 l 1,8,-1
EndSplineSet
Validated: 1
Comment: "Medievia +ACIA-MC_VERTICAL_BRIDGE+ACIA glyph, relocated from U+-2021."
EndChar

StartChar: uniE104
Encoding: 57604 57604 404
Width: 1233
Flags: W
LayerCount: 2
Fore
SplineSet
1216 1350 m 5,0,-1
 1216 1050 l 5,1,-1
 17 1050 l 5,2,-1
 17 1350 l 5,3,-1
 117 1350 l 5,4,-1
 117 1150 l 5,5,-1
 1116 1150 l 5,6,-1
 1116 1350 l 5,7,-1
 1216 1350 l 5,0,-1
1216 202 m 5,8,-1
 1116 202 l 5,9,-1
 1116 502 l 5,10,-1
 117 502 l 5,11,-1
 117 202 l 5,12,-1
 17 202 l 5,13,-1
 17 602 l 5,14,-1
 1216 602 l 5,15,-1
 1216 202 l 5,8,-1
EndSplineSet
Validated: 1
Comment: "Medievia +ACIA-MC_HORIZONTAL_BRIDGE+ACIA glyph, relocated from U+-02C6."
EndChar

StartChar: uniE117
Encoding: 57623 57623 405
Width: 1233
Flags: W
LayerCount: 2
Fore
SplineSet
100 1222 m 0,0,1
 100 1478 100 1478 358 1568 c 1,2,-1
 358 1800 l 1,3,-1
 503 1800 l 1,4,-1
 503 1603 l 1,5,6
 597 1617 597 1617 712 1617 c 1,7,-1
 713 1800 l 1,8,-1
 858 1800 l 1,9,-1
 858 1613 l 1,10,11
 926 1608 926 1608 1000 1600 c 1,12,-1
 1000 1400 l 1,13,14
 925 1410 925 1410 857 1416 c 1,15,-1
 857 806 l 1,16,17
 1091 709 1091 709 1091 402 c 0,18,19
 1091 363 1091 363 1087 322 c 0,20,21
 1065 99 1065 99 855 15 c 1,22,-1
 855 -200 l 1,23,-1
 700 -203 l 1,24,-1
 701 -26 l 1,25,26
 617 -39 617 -39 515 -39 c 0,27,28
 508 -39 508 -39 500 -39 c 1,29,-1
 500 -204 l 1,30,-1
 355 -207 l 1,31,-1
 355 -32 l 1,32,33
 237 -23 237 -23 100 0 c 1,34,-1
 100 136 l 1,35,36
 239 111 239 111 355 102 c 1,37,-1
 356 743 l 1,38,39
 100 855 100 855 100 1222 c 0,0,1
711 1424 m 1,40,41
 690 1425 690 1425 670 1425 c 0,42,43
 559 1422 559 1422 502 1413 c 1,44,-1
 502 883 l 1,45,46
 622 844 622 844 707 844 c 1,47,-1
 711 1424 l 1,40,41
246 1196 m 0,48,49
 246 1044 246 1044 357 957 c 1,50,-1
 357 1370 l 1,51,52
 246 1312 246 1312 246 1196 c 0,48,49
500 96 m 1,53,54
 617 97 617 97 702 119 c 1,55,-1
 706 663 l 1,56,57
 633 687 633 687 575.5 693.5 c 128,-1,58
 518 700 518 700 501 703 c 1,59,-1
 500 96 l 1,53,54
856 198 m 1,60,61
 906 249 906 249 918 326 c 0,62,63
 923 358 923 358 923 387 c 0,64,65
 921 501 921 501 856 572 c 1,66,-1
 856 198 l 1,60,61
EndSplineSet
Validated: 1
Comment: "Medievia +ACIA-MC_TRADESHOP+ACIA glyph relocated from U+-009D."
EndChar

StartChar: uniE118
Encoding: 57624 57624 406
Width: 1233
Flags: W
LayerCount: 2
Fore
SplineSet
1233 660 m 1,0,1
 1038 426 1038 426 858 426 c 0,2,3
 725 426 725 426 600 556 c 0,4,5
 424 739 424 739 242 739 c 0,6,7
 241 739 241 739 239 739 c 0,8,9
 238 739 238 739 236 739 c 0,10,11
 121 739 121 739 0 660 c 1,12,-1
 0 860 l 1,13,14
 124 940 124 940 244 940 c 0,15,16
 426 940 426 940 603 760 c 0,17,18
 731 630 731 630 866 630 c 0,19,20
 1043 630 1043 630 1233 853 c 1,21,-1
 1233 660 l 1,0,1
1232 39 m 1,22,23
 1037 -194 1037 -194 857 -194 c 0,24,25
 725 -194 725 -194 599 -64 c 0,26,27
 422 118 422 118 241 118 c 0,28,29
 240 118 240 118 238 118 c 0,30,31
 237 118 237 118 235 118 c 0,32,33
 121 118 121 118 0 39 c 1,34,-1
 0 239 l 1,35,36
 123 319 123 319 244 319 c 0,37,38
 424 319 424 319 602 140 c 0,39,40
 731 10 731 10 866 10 c 0,41,42
 867 10 867 10 868 10 c 128,-1,43
 869 10 869 10 870 10 c 0,44,45
 1043 10 1043 10 1232 232 c 1,46,-1
 1232 39 l 1,22,23
242 1365 m 0,47,48
 239 1365 239 1365 236 1365 c 0,49,50
 122 1365 122 1365 1 1286 c 1,51,-1
 1 1486 l 1,52,53
 124 1566 124 1566 244 1566 c 0,54,55
 426 1566 426 1566 603 1386 c 0,56,57
 731 1256 731 1256 866 1256 c 0,58,59
 1043 1256 1043 1256 1233 1479 c 1,60,-1
 1233 1286 l 1,61,62
 1038 1052 1038 1052 858 1052 c 0,63,64
 725 1052 725 1052 600 1182 c 0,65,66
 424 1365 424 1365 242 1365 c 0,47,48
EndSplineSet
Validated: 1
Comment: "Medievia +ACIA-MC_LAKE+ACIA glyph relocated from U+-017E."
EndChar

